<mxfile host="65bd71144e">
    <diagram id="BZllEJpw0IDGIu1xM_n7" name="Page-1">
        <mxGraphModel dx="2103" dy="2868" grid="0" gridSize="10" guides="1" tooltips="1" connect="1" arrows="1" fold="1" page="0" pageScale="1" pageWidth="1200" pageHeight="1920" background="#ffffff" math="0" shadow="0">
            <root>
                <mxCell id="0"/>
                <mxCell id="1" parent="0"/>
                <mxCell id="686" value="" style="rounded=1;whiteSpace=wrap;html=1;strokeColor=#2089D5;strokeWidth=5;fontSize=12;fontColor=#000000;fillColor=none;dashed=1;arcSize=4;" parent="1" vertex="1">
                    <mxGeometry x="-270.3" y="-726" width="1416.3" height="761" as="geometry"/>
                </mxCell>
                <mxCell id="949" value="" style="rounded=1;whiteSpace=wrap;html=1;fillColor=none;strokeColor=#B09500;fontColor=#000000;arcSize=7;strokeWidth=5;dashed=1;" vertex="1" parent="1">
                    <mxGeometry x="278" y="-707" width="330" height="560" as="geometry"/>
                </mxCell>
                <mxCell id="50" value="" style="whiteSpace=wrap;html=1;aspect=fixed;fillColor=#ccff99;fontColor=#18141d;strokeColor=#18141d;" parent="1" vertex="1">
                    <mxGeometry x="378.65" y="-78" width="30" height="30" as="geometry"/>
                </mxCell>
                <mxCell id="51" value="" style="whiteSpace=wrap;html=1;aspect=fixed;fillColor=#ccff99;fontColor=#18141d;strokeColor=#18141d;" parent="1" vertex="1">
                    <mxGeometry x="408.65" y="-78" width="30" height="30" as="geometry"/>
                </mxCell>
                <mxCell id="52" value="" style="whiteSpace=wrap;html=1;aspect=fixed;fillColor=#ccff99;fontColor=#18141d;strokeColor=#18141d;" parent="1" vertex="1">
                    <mxGeometry x="438.65" y="-78" width="30" height="30" as="geometry"/>
                </mxCell>
                <mxCell id="53" value="" style="whiteSpace=wrap;html=1;aspect=fixed;fillColor=#ccff99;fontColor=#18141d;strokeColor=#18141d;" parent="1" vertex="1">
                    <mxGeometry x="468.65" y="-78" width="30" height="30" as="geometry"/>
                </mxCell>
                <mxCell id="54" value="" style="whiteSpace=wrap;html=1;aspect=fixed;fillColor=#ccff99;fontColor=#18141d;strokeColor=#18141d;" parent="1" vertex="1">
                    <mxGeometry x="378.65" y="-48" width="30" height="30" as="geometry"/>
                </mxCell>
                <mxCell id="55" value="" style="whiteSpace=wrap;html=1;aspect=fixed;fillColor=#ccff99;fontColor=#18141d;strokeColor=#18141d;" parent="1" vertex="1">
                    <mxGeometry x="408.65" y="-48" width="30" height="30" as="geometry"/>
                </mxCell>
                <mxCell id="56" value="" style="whiteSpace=wrap;html=1;aspect=fixed;fillColor=#ccff99;fontColor=#18141d;strokeColor=#18141d;" parent="1" vertex="1">
                    <mxGeometry x="438.65" y="-48" width="30" height="30" as="geometry"/>
                </mxCell>
                <mxCell id="57" value="" style="whiteSpace=wrap;html=1;aspect=fixed;fillColor=#ccff99;fontColor=#18141d;strokeColor=#18141d;" parent="1" vertex="1">
                    <mxGeometry x="468.65" y="-48" width="30" height="30" as="geometry"/>
                </mxCell>
                <mxCell id="58" value="" style="whiteSpace=wrap;html=1;aspect=fixed;fillColor=#ccff99;fontColor=#18141d;strokeColor=#18141d;" parent="1" vertex="1">
                    <mxGeometry x="378.65" y="-18" width="30" height="30" as="geometry"/>
                </mxCell>
                <mxCell id="59" value="" style="whiteSpace=wrap;html=1;aspect=fixed;fillColor=#ccff99;fontColor=#18141d;strokeColor=#18141d;" parent="1" vertex="1">
                    <mxGeometry x="408.65" y="-18" width="30" height="30" as="geometry"/>
                </mxCell>
                <mxCell id="60" value="" style="whiteSpace=wrap;html=1;aspect=fixed;fillColor=#ccff99;fontColor=#18141d;strokeColor=#18141d;" parent="1" vertex="1">
                    <mxGeometry x="438.65" y="-18" width="30" height="30" as="geometry"/>
                </mxCell>
                <mxCell id="61" value="" style="whiteSpace=wrap;html=1;aspect=fixed;fillColor=#ccff99;fontColor=#18141d;strokeColor=#18141d;" parent="1" vertex="1">
                    <mxGeometry x="468.65" y="-18" width="30" height="30" as="geometry"/>
                </mxCell>
                <mxCell id="62" value="X1" style="text;html=1;strokeColor=none;fillColor=none;align=center;verticalAlign=middle;whiteSpace=wrap;rounded=0;fontStyle=1;fontColor=#18141d;" parent="1" vertex="1">
                    <mxGeometry x="338.65" y="-78" width="60" height="30" as="geometry"/>
                </mxCell>
                <mxCell id="63" value="X2" style="text;html=1;strokeColor=none;fillColor=none;align=center;verticalAlign=middle;whiteSpace=wrap;rounded=0;fontStyle=1;fontColor=#18141d;" parent="1" vertex="1">
                    <mxGeometry x="338.65" y="-48" width="60" height="30" as="geometry"/>
                </mxCell>
                <mxCell id="64" value="X3" style="text;html=1;strokeColor=none;fillColor=none;align=center;verticalAlign=middle;whiteSpace=wrap;rounded=0;fontStyle=1;fontColor=#18141d;" parent="1" vertex="1">
                    <mxGeometry x="338.65" y="-18" width="60" height="30" as="geometry"/>
                </mxCell>
                <mxCell id="68" value="Embeddings dimensions" style="text;html=1;strokeColor=none;fillColor=none;align=center;verticalAlign=middle;whiteSpace=wrap;rounded=0;fontColor=#18141d;" parent="1" vertex="1">
                    <mxGeometry x="358.65" y="-118" width="170" height="30" as="geometry"/>
                </mxCell>
                <mxCell id="69" value="" style="endArrow=classic;startArrow=classic;html=1;entryX=1;entryY=1;entryDx=0;entryDy=0;exitX=0;exitY=1;exitDx=0;exitDy=0;fontColor=#18141d;strokeColor=#18141d;" parent="1" source="68" target="68" edge="1">
                    <mxGeometry width="50" height="50" relative="1" as="geometry">
                        <mxPoint x="338.65" y="-98" as="sourcePoint"/>
                        <mxPoint x="598.65" y="-78" as="targetPoint"/>
                    </mxGeometry>
                </mxCell>
                <mxCell id="72" value="Sequence length" style="text;html=1;strokeColor=none;fillColor=none;align=center;verticalAlign=middle;whiteSpace=wrap;rounded=0;direction=south;fontColor=#18141d;" parent="1" vertex="1">
                    <mxGeometry x="551.88" y="-83" width="30" height="100" as="geometry"/>
                </mxCell>
                <mxCell id="73" value="" style="endArrow=classic;startArrow=classic;html=1;fontColor=#18141d;strokeColor=#18141d;" parent="1" edge="1">
                    <mxGeometry width="50" height="50" relative="1" as="geometry">
                        <mxPoint x="528.65" y="17" as="sourcePoint"/>
                        <mxPoint x="528.65" y="-83" as="targetPoint"/>
                    </mxGeometry>
                </mxCell>
                <mxCell id="413" value="&lt;font style=&quot;font-size: 15px;&quot;&gt;Add &amp;amp; Normalize&lt;/font&gt;" style="rounded=1;whiteSpace=wrap;html=1;fillColor=#ffffff;strokeColor=#121014;fontColor=#000000;" parent="1" vertex="1">
                    <mxGeometry x="300.35" y="-390" width="281" height="42" as="geometry"/>
                </mxCell>
                <mxCell id="473" value="&lt;b&gt;&lt;font style=&quot;font-size: 15px;&quot;&gt;Feed-forward NN&lt;/font&gt;&lt;/b&gt;&lt;br&gt;&lt;span class=&quot;base&quot;&gt;&lt;span class=&quot;mord&quot;&gt;&lt;span class=&quot;mord mathnormal&quot;&gt;W&lt;sub&gt;2&lt;/sub&gt;&lt;/span&gt;&lt;span class=&quot;msupsub&quot;&gt;&lt;span class=&quot;vlist-t vlist-t2&quot;&gt;&lt;span class=&quot;vlist-r&quot;&gt;&lt;span class=&quot;vlist-s&quot;&gt;​&lt;/span&gt;&lt;/span&gt;&lt;span class=&quot;vlist-r&quot;&gt;&lt;span class=&quot;vlist&quot;&gt;&lt;/span&gt;&lt;/span&gt;&lt;/span&gt;&lt;/span&gt;&lt;/span&gt;&lt;span class=&quot;mspace&quot;&gt;&lt;/span&gt;&lt;span class=&quot;mbin&quot;&gt;⋅&lt;/span&gt;&lt;span class=&quot;mspace&quot;&gt;&lt;/span&gt;&lt;/span&gt;&lt;span class=&quot;base&quot;&gt;&lt;span class=&quot;strut&quot;&gt;&lt;/span&gt;&lt;span class=&quot;mord mathnormal&quot;&gt;σ&lt;/span&gt;&lt;span class=&quot;mopen&quot;&gt;(&lt;/span&gt;&lt;span class=&quot;mord&quot;&gt;&lt;span class=&quot;mord mathnormal&quot;&gt;W&lt;sub&gt;1&lt;/sub&gt;&lt;/span&gt;&lt;span class=&quot;msupsub&quot;&gt;&lt;span class=&quot;vlist-t vlist-t2&quot;&gt;&lt;span class=&quot;vlist-r&quot;&gt;&lt;span class=&quot;vlist-s&quot;&gt;​&lt;/span&gt;&lt;/span&gt;&lt;span class=&quot;vlist-r&quot;&gt;&lt;span class=&quot;vlist&quot;&gt;&lt;/span&gt;&lt;/span&gt;&lt;/span&gt;&lt;/span&gt;&lt;/span&gt;&lt;span class=&quot;mspace&quot;&gt;&lt;/span&gt;&lt;span class=&quot;mbin&quot;&gt;⋅&lt;/span&gt;&lt;span class=&quot;mspace&quot;&gt;&lt;/span&gt;&lt;/span&gt;&lt;span class=&quot;base&quot;&gt;&lt;span class=&quot;strut&quot;&gt;&lt;/span&gt;&lt;span class=&quot;mord mathnormal&quot;&gt;Z&lt;/span&gt;&lt;span class=&quot;mspace&quot;&gt;&lt;/span&gt;&lt;span class=&quot;mbin&quot;&gt;+&lt;/span&gt;&lt;span class=&quot;mspace&quot;&gt;&lt;/span&gt;&lt;/span&gt;&lt;span class=&quot;base&quot;&gt;&lt;span class=&quot;strut&quot;&gt;&lt;/span&gt;&lt;span class=&quot;mord&quot;&gt;&lt;span class=&quot;mord mathnormal&quot;&gt;b&lt;sub&gt;1&lt;/sub&gt;&lt;/span&gt;&lt;span class=&quot;msupsub&quot;&gt;&lt;span class=&quot;vlist-t vlist-t2&quot;&gt;&lt;span class=&quot;vlist-r&quot;&gt;&lt;span class=&quot;vlist-s&quot;&gt;​&lt;/span&gt;&lt;/span&gt;&lt;span class=&quot;vlist-r&quot;&gt;&lt;span class=&quot;vlist&quot;&gt;&lt;/span&gt;&lt;/span&gt;&lt;/span&gt;&lt;/span&gt;&lt;/span&gt;&lt;span class=&quot;mclose&quot;&gt;)&lt;/span&gt;&lt;span class=&quot;mspace&quot;&gt;&lt;/span&gt;&lt;span class=&quot;mbin&quot;&gt;+&lt;/span&gt;&lt;span class=&quot;mspace&quot;&gt;&lt;/span&gt;&lt;/span&gt;&lt;span class=&quot;base&quot;&gt;&lt;span class=&quot;strut&quot;&gt;&lt;/span&gt;&lt;span class=&quot;mord&quot;&gt;&lt;span class=&quot;mord mathnormal&quot;&gt;b&lt;sub&gt;2&lt;/sub&gt;&lt;/span&gt;&lt;span class=&quot;msupsub&quot;&gt;&lt;span class=&quot;vlist-t vlist-t2&quot;&gt;&lt;span class=&quot;vlist-r&quot;&gt;&lt;span class=&quot;vlist-s&quot;&gt;​&lt;/span&gt;&lt;/span&gt;&lt;span class=&quot;vlist-r&quot;&gt;&lt;span class=&quot;vlist&quot;&gt;&lt;/span&gt;&lt;/span&gt;&lt;/span&gt;&lt;/span&gt;&lt;/span&gt;&lt;/span&gt;" style="rounded=1;whiteSpace=wrap;html=1;fillColor=#ffffff;strokeColor=#36393d;fontColor=#000000;" parent="1" vertex="1">
                    <mxGeometry x="301.88" y="-463" width="280" height="45" as="geometry"/>
                </mxCell>
                <mxCell id="687" value="&lt;b style=&quot;font-size: 38px;&quot;&gt;BERT&lt;br style=&quot;font-size: 38px;&quot;&gt;&lt;/b&gt;" style="text;html=1;strokeColor=none;fillColor=none;align=center;verticalAlign=middle;whiteSpace=wrap;rounded=0;direction=south;fontColor=#000000;fontSize=38;" parent="1" vertex="1">
                    <mxGeometry x="-265.28000000000003" y="-702" width="150" height="30" as="geometry"/>
                </mxCell>
                <mxCell id="714" value="" style="rounded=1;whiteSpace=wrap;html=1;fillColor=none;strokeColor=#FF0000;fontColor=#000000;arcSize=12;strokeWidth=5;dashed=1;" parent="1" vertex="1">
                    <mxGeometry x="-266.26" y="-1028" width="1410" height="270" as="geometry"/>
                </mxCell>
                <mxCell id="715" value="&lt;b style=&quot;font-size: 35px;&quot;&gt;MLM head&lt;br style=&quot;font-size: 35px;&quot;&gt;&lt;/b&gt;" style="text;html=1;strokeColor=none;fillColor=none;align=center;verticalAlign=middle;whiteSpace=wrap;rounded=0;direction=south;fontColor=#000000;fontSize=35;" parent="1" vertex="1">
                    <mxGeometry x="-299.98" y="-1018" width="280" height="30" as="geometry"/>
                </mxCell>
                <mxCell id="716" value="" style="whiteSpace=wrap;html=1;aspect=fixed;fillColor=#E57373;strokeColor=#000000;gradientColor=#ea6b66;opacity=50;" parent="1" vertex="1">
                    <mxGeometry x="-29.63999999999994" y="-903" width="30" height="30" as="geometry"/>
                </mxCell>
                <mxCell id="717" value="" style="whiteSpace=wrap;html=1;aspect=fixed;fillColor=#E57373;strokeColor=#000000;gradientColor=#ea6b66;opacity=50;" parent="1" vertex="1">
                    <mxGeometry x="0.3600000000000563" y="-903" width="30" height="30" as="geometry"/>
                </mxCell>
                <mxCell id="718" value="" style="whiteSpace=wrap;html=1;aspect=fixed;fillColor=#E57373;strokeColor=#000000;gradientColor=#ea6b66;opacity=50;" parent="1" vertex="1">
                    <mxGeometry x="30.360000000000056" y="-903" width="30" height="30" as="geometry"/>
                </mxCell>
                <mxCell id="719" value="" style="whiteSpace=wrap;html=1;aspect=fixed;fillColor=#E57373;strokeColor=#000000;gradientColor=#ea6b66;opacity=50;" parent="1" vertex="1">
                    <mxGeometry x="60.360000000000056" y="-903" width="30" height="30" as="geometry"/>
                </mxCell>
                <mxCell id="720" value="" style="whiteSpace=wrap;html=1;aspect=fixed;fillColor=#E57373;strokeColor=#000000;gradientColor=#ea6b66;opacity=50;" parent="1" vertex="1">
                    <mxGeometry x="-29.63999999999994" y="-873" width="30" height="30" as="geometry"/>
                </mxCell>
                <mxCell id="721" value="" style="whiteSpace=wrap;html=1;aspect=fixed;fillColor=#E57373;strokeColor=#000000;gradientColor=#ea6b66;opacity=50;" parent="1" vertex="1">
                    <mxGeometry x="0.3600000000000563" y="-873" width="30" height="30" as="geometry"/>
                </mxCell>
                <mxCell id="722" value="" style="whiteSpace=wrap;html=1;aspect=fixed;fillColor=#E57373;strokeColor=#000000;gradientColor=#ea6b66;opacity=50;" parent="1" vertex="1">
                    <mxGeometry x="30.360000000000056" y="-873" width="30" height="30" as="geometry"/>
                </mxCell>
                <mxCell id="723" value="" style="whiteSpace=wrap;html=1;aspect=fixed;fillColor=#E57373;strokeColor=#000000;gradientColor=#ea6b66;opacity=50;" parent="1" vertex="1">
                    <mxGeometry x="60.360000000000056" y="-873" width="30" height="30" as="geometry"/>
                </mxCell>
                <mxCell id="724" value="" style="whiteSpace=wrap;html=1;aspect=fixed;fillColor=#E57373;strokeColor=#000000;gradientColor=#ea6b66;opacity=50;" parent="1" vertex="1">
                    <mxGeometry x="-29.63999999999994" y="-843" width="30" height="30" as="geometry"/>
                </mxCell>
                <mxCell id="725" value="" style="whiteSpace=wrap;html=1;aspect=fixed;fillColor=#E57373;strokeColor=#000000;gradientColor=#ea6b66;opacity=50;" parent="1" vertex="1">
                    <mxGeometry x="0.3600000000000563" y="-843" width="30" height="30" as="geometry"/>
                </mxCell>
                <mxCell id="726" value="" style="whiteSpace=wrap;html=1;aspect=fixed;fillColor=#E57373;strokeColor=#000000;gradientColor=#ea6b66;opacity=50;" parent="1" vertex="1">
                    <mxGeometry x="30.360000000000056" y="-843" width="30" height="30" as="geometry"/>
                </mxCell>
                <mxCell id="727" value="" style="whiteSpace=wrap;html=1;aspect=fixed;fillColor=#E57373;strokeColor=#000000;gradientColor=#ea6b66;opacity=50;" parent="1" vertex="1">
                    <mxGeometry x="60.360000000000056" y="-843" width="30" height="30" as="geometry"/>
                </mxCell>
                <mxCell id="728" value="Embeddings dimensions" style="text;html=1;strokeColor=none;fillColor=none;align=center;verticalAlign=middle;whiteSpace=wrap;rounded=0;fontColor=#000000;" parent="1" vertex="1">
                    <mxGeometry x="-49.63999999999993" y="-943" width="170" height="30" as="geometry"/>
                </mxCell>
                <mxCell id="729" value="" style="endArrow=classic;startArrow=classic;html=1;fontColor=#000000;strokeColor=#18141d;" parent="1" edge="1">
                    <mxGeometry width="50" height="50" relative="1" as="geometry">
                        <mxPoint x="-39.6399999999995" y="-912.5" as="sourcePoint"/>
                        <mxPoint x="100.3600000000005" y="-912.5" as="targetPoint"/>
                    </mxGeometry>
                </mxCell>
                <mxCell id="730" value="Sequence length" style="text;html=1;strokeColor=none;fillColor=none;align=center;verticalAlign=middle;whiteSpace=wrap;rounded=0;direction=south;fontColor=#000000;" parent="1" vertex="1">
                    <mxGeometry x="120.36000000000007" y="-908" width="30" height="100" as="geometry"/>
                </mxCell>
                <mxCell id="731" value="" style="endArrow=classic;startArrow=classic;html=1;fontColor=#000000;strokeColor=#18141d;" parent="1" edge="1">
                    <mxGeometry width="50" height="50" relative="1" as="geometry">
                        <mxPoint x="100.3600000000005" y="-808" as="sourcePoint"/>
                        <mxPoint x="100.3600000000005" y="-908" as="targetPoint"/>
                    </mxGeometry>
                </mxCell>
                <mxCell id="732" value="M'" style="text;html=1;strokeColor=none;fillColor=none;align=center;verticalAlign=middle;whiteSpace=wrap;rounded=0;fontStyle=1;fontColor=#000000;" parent="1" vertex="1">
                    <mxGeometry x="-64.63999999999993" y="-875.5" width="30" height="30" as="geometry"/>
                </mxCell>
                <mxCell id="733" value="" style="whiteSpace=wrap;html=1;aspect=fixed;fillColor=#939ab4;strokeColor=#18141d;direction=east;fontColor=#000000;" parent="1" vertex="1">
                    <mxGeometry x="237.22999999999996" y="-905.5" width="30" height="30" as="geometry"/>
                </mxCell>
                <mxCell id="734" value="" style="whiteSpace=wrap;html=1;aspect=fixed;fillColor=#939ab4;strokeColor=#18141d;direction=east;fontColor=#000000;" parent="1" vertex="1">
                    <mxGeometry x="267.22999999999996" y="-905.5" width="30" height="30" as="geometry"/>
                </mxCell>
                <mxCell id="735" value="" style="whiteSpace=wrap;html=1;aspect=fixed;fillColor=#939ab4;strokeColor=#18141d;direction=east;fontColor=#000000;" parent="1" vertex="1">
                    <mxGeometry x="297.23" y="-905.5" width="30" height="30" as="geometry"/>
                </mxCell>
                <mxCell id="737" value="" style="whiteSpace=wrap;html=1;aspect=fixed;fillColor=#939ab4;strokeColor=#18141d;direction=east;fontColor=#000000;" parent="1" vertex="1">
                    <mxGeometry x="237.22999999999996" y="-875.5" width="30" height="30" as="geometry"/>
                </mxCell>
                <mxCell id="738" value="" style="whiteSpace=wrap;html=1;aspect=fixed;fillColor=#939ab4;strokeColor=#18141d;direction=east;fontColor=#000000;" parent="1" vertex="1">
                    <mxGeometry x="267.22999999999996" y="-875.5" width="30" height="30" as="geometry"/>
                </mxCell>
                <mxCell id="739" value="" style="whiteSpace=wrap;html=1;aspect=fixed;fillColor=#939ab4;strokeColor=#18141d;direction=east;fontColor=#000000;" parent="1" vertex="1">
                    <mxGeometry x="297.23" y="-875.5" width="30" height="30" as="geometry"/>
                </mxCell>
                <mxCell id="741" value="" style="whiteSpace=wrap;html=1;aspect=fixed;fillColor=#939ab4;strokeColor=#18141d;direction=east;fontColor=#000000;" parent="1" vertex="1">
                    <mxGeometry x="237.22999999999996" y="-845.5" width="30" height="30" as="geometry"/>
                </mxCell>
                <mxCell id="742" value="" style="whiteSpace=wrap;html=1;aspect=fixed;fillColor=#939ab4;strokeColor=#18141d;direction=east;fontColor=#000000;" parent="1" vertex="1">
                    <mxGeometry x="267.22999999999996" y="-845.5" width="30" height="30" as="geometry"/>
                </mxCell>
                <mxCell id="743" value="" style="whiteSpace=wrap;html=1;aspect=fixed;fillColor=#939ab4;strokeColor=#18141d;direction=east;fontColor=#000000;" parent="1" vertex="1">
                    <mxGeometry x="297.23" y="-845.5" width="30" height="30" as="geometry"/>
                </mxCell>
                <mxCell id="745" value="Embeddings dimensions" style="text;html=1;strokeColor=none;fillColor=none;align=center;verticalAlign=middle;whiteSpace=wrap;rounded=0;direction=south;fontColor=#000000;" parent="1" vertex="1">
                    <mxGeometry x="361.93" y="-910.5" width="30" height="100" as="geometry"/>
                </mxCell>
                <mxCell id="746" value="" style="endArrow=classic;startArrow=classic;html=1;fontColor=#000000;strokeColor=#18141d;" parent="1" edge="1">
                    <mxGeometry width="50" height="50" relative="1" as="geometry">
                        <mxPoint x="335.73" y="-815.5" as="sourcePoint"/>
                        <mxPoint x="335.6699999999999" y="-908" as="targetPoint"/>
                    </mxGeometry>
                </mxCell>
                <mxCell id="747" value="Embedding dimensions" style="text;html=1;strokeColor=none;fillColor=none;align=center;verticalAlign=middle;whiteSpace=wrap;rounded=0;fontColor=#000000;" parent="1" vertex="1">
                    <mxGeometry x="244.09999999999997" y="-948" width="73.12" height="30" as="geometry"/>
                </mxCell>
                <mxCell id="748" value="W&lt;span style=&quot;font-size: 10px;&quot;&gt;&lt;sub&gt;3&lt;/sub&gt;&lt;/span&gt;" style="text;html=1;strokeColor=none;fillColor=none;align=center;verticalAlign=middle;whiteSpace=wrap;rounded=0;fontStyle=1;fontColor=#000000;" parent="1" vertex="1">
                    <mxGeometry x="188.17999999999998" y="-875.5" width="60" height="30" as="geometry"/>
                </mxCell>
                <mxCell id="750" value="" style="endArrow=classic;startArrow=classic;html=1;fontColor=#000000;strokeColor=#ffffff;exitX=0.537;exitY=0.317;exitDx=0;exitDy=0;exitPerimeter=0;" parent="1" edge="1">
                    <mxGeometry width="50" height="50" relative="1" as="geometry">
                        <mxPoint x="354.1100000000005" y="-930.3999999999996" as="sourcePoint"/>
                        <mxPoint x="233.4799999999999" y="-930.5" as="targetPoint"/>
                    </mxGeometry>
                </mxCell>
                <mxCell id="751" value="" style="shape=requiredInterface;html=1;verticalLabelPosition=bottom;sketch=0;rounded=1;strokeColor=#110f15;fontSize=16;fillColor=#ffeccc;fontColor=#000000;" parent="1" vertex="1">
                    <mxGeometry x="489.11" y="-943" width="10" height="160" as="geometry"/>
                </mxCell>
                <mxCell id="752" value="" style="shape=cross;whiteSpace=wrap;html=1;rounded=1;fontSize=12;rotation=45;size=0.06962282153221394;strokeColor=#18141d;strokeWidth=1;fontColor=#000000;" parent="1" vertex="1">
                    <mxGeometry x="170.67000000000007" y="-873" width="20" height="20" as="geometry"/>
                </mxCell>
                <mxCell id="753" value="" style="shape=cross;whiteSpace=wrap;html=1;rounded=1;fontSize=12;rotation=0;size=0.06962282153221394;strokeColor=#000;strokeWidth=1;fontColor=#000000;" parent="1" vertex="1">
                    <mxGeometry x="432.87" y="-873" width="20" height="20" as="geometry"/>
                </mxCell>
                <mxCell id="754" value="b&lt;span style=&quot;font-size: 10px;&quot;&gt;&lt;sub&gt;3&lt;/sub&gt;&lt;/span&gt;" style="text;html=1;strokeColor=none;fillColor=none;align=center;verticalAlign=middle;whiteSpace=wrap;rounded=0;fontStyle=1;fontColor=#000000;" parent="1" vertex="1">
                    <mxGeometry x="447.23" y="-878" width="60" height="30" as="geometry"/>
                </mxCell>
                <mxCell id="755" value="" style="shape=requiredInterface;html=1;verticalLabelPosition=bottom;sketch=0;rounded=1;strokeColor=#100f11;fontSize=16;fillColor=#ffeccc;flipH=1;fontColor=#000000;" parent="1" vertex="1">
                    <mxGeometry x="-71.20999999999998" y="-943" width="10" height="160" as="geometry"/>
                </mxCell>
                <mxCell id="756" value="" style="whiteSpace=wrap;html=1;aspect=fixed;fillColor=#ffa35c;strokeColor=#18141d;direction=east;fontColor=#000000;" parent="1" vertex="1">
                    <mxGeometry x="616.92" y="-843" width="30" height="30" as="geometry"/>
                </mxCell>
                <mxCell id="757" value="" style="whiteSpace=wrap;html=1;aspect=fixed;fillColor=#ffa35c;strokeColor=#18141d;direction=east;fontColor=#000000;" parent="1" vertex="1">
                    <mxGeometry x="616.92" y="-903" width="30" height="30" as="geometry"/>
                </mxCell>
                <mxCell id="758" value="" style="whiteSpace=wrap;html=1;aspect=fixed;fillColor=#ffa35c;strokeColor=#18141d;direction=east;fontColor=#000000;" parent="1" vertex="1">
                    <mxGeometry x="646.92" y="-903" width="30" height="30" as="geometry"/>
                </mxCell>
                <mxCell id="759" value="" style="whiteSpace=wrap;html=1;aspect=fixed;fillColor=#ffa35c;strokeColor=#18141d;direction=east;fontColor=#000000;" parent="1" vertex="1">
                    <mxGeometry x="676.9199999999998" y="-903" width="30" height="30" as="geometry"/>
                </mxCell>
                <mxCell id="760" value="" style="whiteSpace=wrap;html=1;aspect=fixed;fillColor=#ffa35c;strokeColor=#18141d;direction=east;fontColor=#000000;" parent="1" vertex="1">
                    <mxGeometry x="646.92" y="-843" width="30" height="30" as="geometry"/>
                </mxCell>
                <mxCell id="761" value="" style="whiteSpace=wrap;html=1;aspect=fixed;fillColor=#ffa35c;strokeColor=#18141d;direction=east;fontColor=#000000;" parent="1" vertex="1">
                    <mxGeometry x="616.92" y="-873" width="30" height="30" as="geometry"/>
                </mxCell>
                <mxCell id="762" value="" style="whiteSpace=wrap;html=1;aspect=fixed;fillColor=#ffa35c;strokeColor=#18141d;direction=east;fontColor=#000000;" parent="1" vertex="1">
                    <mxGeometry x="646.92" y="-873" width="30" height="30" as="geometry"/>
                </mxCell>
                <mxCell id="763" value="" style="whiteSpace=wrap;html=1;aspect=fixed;fillColor=#ffa35c;strokeColor=#18141d;direction=east;fontColor=#000000;" parent="1" vertex="1">
                    <mxGeometry x="676.9199999999998" y="-873" width="30" height="30" as="geometry"/>
                </mxCell>
                <mxCell id="764" value="" style="whiteSpace=wrap;html=1;aspect=fixed;fillColor=#ffa35c;strokeColor=#18141d;direction=east;fontColor=#000000;" parent="1" vertex="1">
                    <mxGeometry x="676.9199999999998" y="-843" width="30" height="30" as="geometry"/>
                </mxCell>
                <mxCell id="765" value="Embeddings dimensions" style="text;html=1;strokeColor=none;fillColor=none;align=center;verticalAlign=middle;whiteSpace=wrap;rounded=0;direction=south;fontColor=#000000;" parent="1" vertex="1">
                    <mxGeometry x="742.81" y="-910.5" width="30" height="100" as="geometry"/>
                </mxCell>
                <mxCell id="766" value="" style="endArrow=classic;startArrow=classic;html=1;fontColor=#000000;strokeColor=#18141d;" parent="1" edge="1">
                    <mxGeometry width="50" height="50" relative="1" as="geometry">
                        <mxPoint x="715.9899999999998" y="-810.4999999999991" as="sourcePoint"/>
                        <mxPoint x="715.9899999999998" y="-908" as="targetPoint"/>
                    </mxGeometry>
                </mxCell>
                <mxCell id="767" value="Vocab size" style="text;html=1;strokeColor=none;fillColor=none;align=center;verticalAlign=middle;whiteSpace=wrap;rounded=0;fontColor=#000000;" parent="1" vertex="1">
                    <mxGeometry x="604.7299999999999" y="-943" width="73.12" height="30" as="geometry"/>
                </mxCell>
                <mxCell id="768" value="W&lt;span style=&quot;font-size: 10px;&quot;&gt;&lt;sub&gt;vocab&lt;/sub&gt;&lt;/span&gt;" style="text;html=1;strokeColor=none;fillColor=none;align=center;verticalAlign=middle;whiteSpace=wrap;rounded=0;fontStyle=1;fontColor=#000000;" parent="1" vertex="1">
                    <mxGeometry x="539.7399999999999" y="-875.5" width="44.99" height="30" as="geometry"/>
                </mxCell>
                <mxCell id="770" value="" style="endArrow=classic;startArrow=classic;html=1;fontColor=#000000;strokeColor=#18141d;entryX=0.706;entryY=0.375;entryDx=0;entryDy=0;entryPerimeter=0;" parent="1" edge="1">
                    <mxGeometry width="50" height="50" relative="1" as="geometry">
                        <mxPoint x="704.7299999999999" y="-912.5" as="sourcePoint"/>
                        <mxPoint x="583.9499999999991" y="-913" as="targetPoint"/>
                    </mxGeometry>
                </mxCell>
                <mxCell id="771" value="" style="shape=cross;whiteSpace=wrap;html=1;rounded=1;fontSize=12;rotation=45;size=0.06962282153221394;strokeColor=#18141d;strokeWidth=1;fontColor=#000000;" parent="1" vertex="1">
                    <mxGeometry x="511.6100000000001" y="-873" width="20" height="20" as="geometry"/>
                </mxCell>
                <mxCell id="772" value="" style="shape=cross;whiteSpace=wrap;html=1;rounded=1;fontSize=12;rotation=0;size=0.06962282153221394;strokeColor=#000;strokeWidth=1;fontColor=#000000;" parent="1" vertex="1">
                    <mxGeometry x="802.81" y="-870.5" width="20" height="20" as="geometry"/>
                </mxCell>
                <mxCell id="773" value="" style="whiteSpace=wrap;html=1;aspect=fixed;fillColor=#ffa35c;strokeColor=#18141d;direction=east;fontColor=#000000;" parent="1" vertex="1">
                    <mxGeometry x="587.5399999999998" y="-843" width="30" height="30" as="geometry"/>
                </mxCell>
                <mxCell id="774" value="" style="whiteSpace=wrap;html=1;aspect=fixed;fillColor=#ffa35c;strokeColor=#18141d;direction=east;fontColor=#000000;" parent="1" vertex="1">
                    <mxGeometry x="587.5399999999998" y="-903" width="30" height="30" as="geometry"/>
                </mxCell>
                <mxCell id="775" value="" style="whiteSpace=wrap;html=1;aspect=fixed;fillColor=#ffa35c;strokeColor=#18141d;direction=east;fontColor=#000000;" parent="1" vertex="1">
                    <mxGeometry x="587.5399999999998" y="-873" width="30" height="30" as="geometry"/>
                </mxCell>
                <mxCell id="776" value="b&lt;sub&gt;vocab&lt;/sub&gt;" style="text;html=1;strokeColor=none;fillColor=none;align=center;verticalAlign=middle;whiteSpace=wrap;rounded=0;fontStyle=1;fontColor=#000000;" parent="1" vertex="1">
                    <mxGeometry x="834.53" y="-878" width="39.06" height="30" as="geometry"/>
                </mxCell>
                <mxCell id="777" value="" style="shape=requiredInterface;html=1;verticalLabelPosition=bottom;sketch=0;rounded=1;strokeColor=#060507;fontSize=16;fillColor=#ffeccc;fontColor=#000000;" parent="1" vertex="1">
                    <mxGeometry x="873.4499999999999" y="-956.75" width="10" height="182.5" as="geometry"/>
                </mxCell>
                <mxCell id="778" value="" style="shape=requiredInterface;html=1;verticalLabelPosition=bottom;sketch=0;rounded=1;strokeColor=#100f11;fontSize=16;fillColor=#ffeccc;flipH=1;fontColor=#000000;" parent="1" vertex="1">
                    <mxGeometry x="-190.6" y="-954.25" width="10" height="182.5" as="geometry"/>
                </mxCell>
                <mxCell id="779" value="Activation Function" style="text;html=1;strokeColor=none;fillColor=none;align=center;verticalAlign=middle;whiteSpace=wrap;rounded=0;fontSize=12;fontColor=#000000;" parent="1" vertex="1">
                    <mxGeometry x="-186.21" y="-890.5" width="110" height="30" as="geometry"/>
                </mxCell>
                <mxCell id="780" value="" style="endArrow=classic;startArrow=classic;html=1;fontColor=#000000;strokeColor=#18141d;" parent="1" edge="1">
                    <mxGeometry width="50" height="50" relative="1" as="geometry">
                        <mxPoint x="236.9200000000002" y="-913.5900000000001" as="sourcePoint"/>
                        <mxPoint x="324.73" y="-913.5" as="targetPoint"/>
                    </mxGeometry>
                </mxCell>
                <mxCell id="781" value="" style="whiteSpace=wrap;html=1;aspect=fixed;fillColor=#208337;strokeColor=#000000;fontColor=#ffffff;opacity=80;" parent="1" vertex="1">
                    <mxGeometry x="938.74" y="-910.5" width="30" height="30" as="geometry"/>
                </mxCell>
                <mxCell id="782" value="" style="whiteSpace=wrap;html=1;aspect=fixed;fillColor=#208337;strokeColor=#000000;fontColor=#ffffff;opacity=80;" parent="1" vertex="1">
                    <mxGeometry x="968.74" y="-910.5" width="30" height="30" as="geometry"/>
                </mxCell>
                <mxCell id="783" value="" style="whiteSpace=wrap;html=1;aspect=fixed;fillColor=#208337;strokeColor=#000000;fontColor=#ffffff;opacity=80;" parent="1" vertex="1">
                    <mxGeometry x="998.74" y="-910.5" width="30" height="30" as="geometry"/>
                </mxCell>
                <mxCell id="784" value="" style="whiteSpace=wrap;html=1;aspect=fixed;fillColor=#208337;strokeColor=#000000;fontColor=#ffffff;opacity=80;" parent="1" vertex="1">
                    <mxGeometry x="1028.7399999999998" y="-910.5" width="30" height="30" as="geometry"/>
                </mxCell>
                <mxCell id="785" value="" style="whiteSpace=wrap;html=1;aspect=fixed;fillColor=#208337;strokeColor=#000000;fontColor=#ffffff;opacity=80;" parent="1" vertex="1">
                    <mxGeometry x="938.74" y="-880.5" width="30" height="30" as="geometry"/>
                </mxCell>
                <mxCell id="786" value="" style="whiteSpace=wrap;html=1;aspect=fixed;fillColor=#208337;strokeColor=#000000;fontColor=#ffffff;opacity=80;" parent="1" vertex="1">
                    <mxGeometry x="968.74" y="-880.5" width="30" height="30" as="geometry"/>
                </mxCell>
                <mxCell id="787" value="" style="whiteSpace=wrap;html=1;aspect=fixed;fillColor=#208337;strokeColor=#000000;fontColor=#ffffff;opacity=80;" parent="1" vertex="1">
                    <mxGeometry x="998.74" y="-880.5" width="30" height="30" as="geometry"/>
                </mxCell>
                <mxCell id="788" value="" style="whiteSpace=wrap;html=1;aspect=fixed;fillColor=#208337;strokeColor=#000000;fontColor=#ffffff;opacity=80;" parent="1" vertex="1">
                    <mxGeometry x="1028.7399999999998" y="-880.5" width="30" height="30" as="geometry"/>
                </mxCell>
                <mxCell id="789" value="" style="whiteSpace=wrap;html=1;aspect=fixed;fillColor=#208337;strokeColor=#000000;fontColor=#ffffff;opacity=80;" parent="1" vertex="1">
                    <mxGeometry x="938.74" y="-850.5" width="30" height="30" as="geometry"/>
                </mxCell>
                <mxCell id="790" value="" style="whiteSpace=wrap;html=1;aspect=fixed;fillColor=#208337;strokeColor=#000000;fontColor=#ffffff;opacity=80;" parent="1" vertex="1">
                    <mxGeometry x="968.74" y="-850.5" width="30" height="30" as="geometry"/>
                </mxCell>
                <mxCell id="791" value="" style="whiteSpace=wrap;html=1;aspect=fixed;fillColor=#208337;strokeColor=#000000;fontColor=#ffffff;opacity=80;" parent="1" vertex="1">
                    <mxGeometry x="998.74" y="-850.5" width="30" height="30" as="geometry"/>
                </mxCell>
                <mxCell id="792" value="" style="whiteSpace=wrap;html=1;aspect=fixed;fillColor=#208337;strokeColor=#000000;fontColor=#ffffff;opacity=80;" parent="1" vertex="1">
                    <mxGeometry x="1028.7399999999998" y="-850.5" width="30" height="30" as="geometry"/>
                </mxCell>
                <mxCell id="793" value="Vocab size" style="text;html=1;strokeColor=none;fillColor=none;align=center;verticalAlign=middle;whiteSpace=wrap;rounded=0;fontColor=#000000;" parent="1" vertex="1">
                    <mxGeometry x="918.74" y="-950.5" width="170" height="30" as="geometry"/>
                </mxCell>
                <mxCell id="794" value="" style="endArrow=classic;startArrow=classic;html=1;strokeColor=#100f11;fontColor=#000000;" parent="1" edge="1">
                    <mxGeometry width="50" height="50" relative="1" as="geometry">
                        <mxPoint x="928.7400000000001" y="-920" as="sourcePoint"/>
                        <mxPoint x="1068.7400000000002" y="-920" as="targetPoint"/>
                    </mxGeometry>
                </mxCell>
                <mxCell id="795" value="Sequence length" style="text;html=1;strokeColor=none;fillColor=none;align=center;verticalAlign=middle;whiteSpace=wrap;rounded=0;direction=south;fontColor=#000000;" parent="1" vertex="1">
                    <mxGeometry x="1088.74" y="-915.5" width="30" height="100" as="geometry"/>
                </mxCell>
                <mxCell id="796" value="" style="endArrow=classic;startArrow=classic;html=1;strokeColor=#100f11;fontColor=#000000;" parent="1" edge="1">
                    <mxGeometry width="50" height="50" relative="1" as="geometry">
                        <mxPoint x="1068.7400000000002" y="-815.5" as="sourcePoint"/>
                        <mxPoint x="1068.7400000000002" y="-915.5" as="targetPoint"/>
                    </mxGeometry>
                </mxCell>
                <mxCell id="797" value="F" style="text;html=1;strokeColor=none;fillColor=none;align=center;verticalAlign=middle;whiteSpace=wrap;rounded=0;fontStyle=1;fontColor=#000000;" parent="1" vertex="1">
                    <mxGeometry x="903.74" y="-883" width="30" height="30" as="geometry"/>
                </mxCell>
                <mxCell id="798" value="=" style="text;html=1;strokeColor=none;fillColor=none;align=center;verticalAlign=middle;whiteSpace=wrap;rounded=0;fontStyle=1;fontSize=16;fontColor=#000000;" parent="1" vertex="1">
                    <mxGeometry x="878.7399999999999" y="-883" width="40" height="30" as="geometry"/>
                </mxCell>
                <mxCell id="820" value="Softmax" style="text;html=1;strokeColor=none;fillColor=none;align=center;verticalAlign=middle;whiteSpace=wrap;rounded=0;fontSize=12;fontColor=#000000;" parent="1" vertex="1">
                    <mxGeometry x="-250.94" y="-890.5" width="55" height="30" as="geometry"/>
                </mxCell>
                <mxCell id="920" value="" style="endArrow=classic;html=1;exitX=0.5;exitY=0;exitDx=0;exitDy=0;strokeColor=#000000;" parent="1" edge="1">
                    <mxGeometry width="50" height="50" relative="1" as="geometry">
                        <mxPoint x="440" y="-320" as="sourcePoint"/>
                        <mxPoint x="440" y="-347" as="targetPoint"/>
                    </mxGeometry>
                </mxCell>
                <mxCell id="921" value="" style="endArrow=classic;html=1;exitX=0.5;exitY=0;exitDx=0;exitDy=0;strokeColor=#000000;" parent="1" edge="1">
                    <mxGeometry width="50" height="50" relative="1" as="geometry">
                        <mxPoint x="439.84" y="-390" as="sourcePoint"/>
                        <mxPoint x="439.84" y="-417" as="targetPoint"/>
                    </mxGeometry>
                </mxCell>
                <mxCell id="922" value="&lt;font style=&quot;font-size: 15px;&quot;&gt;Add &amp;amp; Normalize&lt;/font&gt;" style="rounded=1;whiteSpace=wrap;html=1;fillColor=#ffffff;strokeColor=#121014;fontColor=#000000;" parent="1" vertex="1">
                    <mxGeometry x="300.35" y="-533" width="281" height="42" as="geometry"/>
                </mxCell>
                <mxCell id="923" value="" style="endArrow=classic;html=1;exitX=0.5;exitY=0;exitDx=0;exitDy=0;strokeColor=#000000;" parent="1" edge="1">
                    <mxGeometry width="50" height="50" relative="1" as="geometry">
                        <mxPoint x="440" y="-463" as="sourcePoint"/>
                        <mxPoint x="440" y="-490" as="targetPoint"/>
                    </mxGeometry>
                </mxCell>
                <mxCell id="924" value="" style="whiteSpace=wrap;html=1;aspect=fixed;fillColor=#E57373;strokeColor=#000000;gradientColor=#ea6b66;opacity=50;" parent="1" vertex="1">
                    <mxGeometry x="362.2300000000001" y="-662" width="30" height="30" as="geometry"/>
                </mxCell>
                <mxCell id="925" value="" style="whiteSpace=wrap;html=1;aspect=fixed;fillColor=#E57373;strokeColor=#000000;gradientColor=#ea6b66;opacity=50;" parent="1" vertex="1">
                    <mxGeometry x="392.2300000000001" y="-662" width="30" height="30" as="geometry"/>
                </mxCell>
                <mxCell id="926" value="" style="whiteSpace=wrap;html=1;aspect=fixed;fillColor=#E57373;strokeColor=#000000;gradientColor=#ea6b66;opacity=50;" parent="1" vertex="1">
                    <mxGeometry x="422.2300000000001" y="-662" width="30" height="30" as="geometry"/>
                </mxCell>
                <mxCell id="927" value="" style="whiteSpace=wrap;html=1;aspect=fixed;fillColor=#E57373;strokeColor=#000000;gradientColor=#ea6b66;opacity=50;" parent="1" vertex="1">
                    <mxGeometry x="452.2300000000001" y="-662" width="30" height="30" as="geometry"/>
                </mxCell>
                <mxCell id="928" value="" style="whiteSpace=wrap;html=1;aspect=fixed;fillColor=#E57373;strokeColor=#000000;gradientColor=#ea6b66;opacity=50;" parent="1" vertex="1">
                    <mxGeometry x="362.2300000000001" y="-632" width="30" height="30" as="geometry"/>
                </mxCell>
                <mxCell id="929" value="" style="whiteSpace=wrap;html=1;aspect=fixed;fillColor=#E57373;strokeColor=#000000;gradientColor=#ea6b66;opacity=50;" parent="1" vertex="1">
                    <mxGeometry x="392.2300000000001" y="-632" width="30" height="30" as="geometry"/>
                </mxCell>
                <mxCell id="930" value="" style="whiteSpace=wrap;html=1;aspect=fixed;fillColor=#E57373;strokeColor=#000000;gradientColor=#ea6b66;opacity=50;" parent="1" vertex="1">
                    <mxGeometry x="422.2300000000001" y="-632" width="30" height="30" as="geometry"/>
                </mxCell>
                <mxCell id="931" value="" style="whiteSpace=wrap;html=1;aspect=fixed;fillColor=#E57373;strokeColor=#000000;gradientColor=#ea6b66;opacity=50;" parent="1" vertex="1">
                    <mxGeometry x="452.2300000000001" y="-632" width="30" height="30" as="geometry"/>
                </mxCell>
                <mxCell id="932" value="" style="whiteSpace=wrap;html=1;aspect=fixed;fillColor=#E57373;strokeColor=#000000;gradientColor=#ea6b66;opacity=50;" parent="1" vertex="1">
                    <mxGeometry x="362.2300000000001" y="-602" width="30" height="30" as="geometry"/>
                </mxCell>
                <mxCell id="933" value="" style="whiteSpace=wrap;html=1;aspect=fixed;fillColor=#E57373;strokeColor=#000000;gradientColor=#ea6b66;opacity=50;" parent="1" vertex="1">
                    <mxGeometry x="392.2300000000001" y="-602" width="30" height="30" as="geometry"/>
                </mxCell>
                <mxCell id="934" value="" style="whiteSpace=wrap;html=1;aspect=fixed;fillColor=#E57373;strokeColor=#000000;gradientColor=#ea6b66;opacity=50;" parent="1" vertex="1">
                    <mxGeometry x="422.2300000000001" y="-602" width="30" height="30" as="geometry"/>
                </mxCell>
                <mxCell id="935" value="" style="whiteSpace=wrap;html=1;aspect=fixed;fillColor=#E57373;strokeColor=#000000;gradientColor=#ea6b66;opacity=50;" parent="1" vertex="1">
                    <mxGeometry x="452.2300000000001" y="-602" width="30" height="30" as="geometry"/>
                </mxCell>
                <mxCell id="936" value="Embeddings dimensions" style="text;html=1;strokeColor=none;fillColor=none;align=center;verticalAlign=middle;whiteSpace=wrap;rounded=0;fontColor=#000000;" parent="1" vertex="1">
                    <mxGeometry x="342.2300000000001" y="-702" width="170" height="30" as="geometry"/>
                </mxCell>
                <mxCell id="937" value="" style="endArrow=classic;startArrow=classic;html=1;fontColor=#000000;strokeColor=#18141d;" parent="1" edge="1">
                    <mxGeometry width="50" height="50" relative="1" as="geometry">
                        <mxPoint x="352.2300000000006" y="-671.5" as="sourcePoint"/>
                        <mxPoint x="492.2300000000006" y="-671.5" as="targetPoint"/>
                    </mxGeometry>
                </mxCell>
                <mxCell id="938" value="Sequence length" style="text;html=1;strokeColor=none;fillColor=none;align=center;verticalAlign=middle;whiteSpace=wrap;rounded=0;direction=south;fontColor=#000000;" parent="1" vertex="1">
                    <mxGeometry x="512.23" y="-667" width="30" height="100" as="geometry"/>
                </mxCell>
                <mxCell id="939" value="" style="endArrow=classic;startArrow=classic;html=1;fontColor=#000000;strokeColor=#18141d;" parent="1" edge="1">
                    <mxGeometry width="50" height="50" relative="1" as="geometry">
                        <mxPoint x="492.2300000000006" y="-567" as="sourcePoint"/>
                        <mxPoint x="492.2300000000006" y="-667" as="targetPoint"/>
                    </mxGeometry>
                </mxCell>
                <mxCell id="940" value="M'" style="text;html=1;strokeColor=none;fillColor=none;align=center;verticalAlign=middle;whiteSpace=wrap;rounded=0;fontStyle=1;fontColor=#000000;" parent="1" vertex="1">
                    <mxGeometry x="327.2300000000001" y="-634.5" width="30" height="30" as="geometry"/>
                </mxCell>
                <mxCell id="942" value="" style="endArrow=classic;html=1;exitX=0.5;exitY=0;exitDx=0;exitDy=0;strokeColor=#000000;" parent="1" edge="1">
                    <mxGeometry width="50" height="50" relative="1" as="geometry">
                        <mxPoint x="439.86" y="-532.5" as="sourcePoint"/>
                        <mxPoint x="439.86" y="-559.5" as="targetPoint"/>
                    </mxGeometry>
                </mxCell>
                <mxCell id="943" value="" style="endArrow=classic;html=1;exitX=0.5;exitY=0;exitDx=0;exitDy=0;strokeColor=#000000;" parent="1" edge="1">
                    <mxGeometry width="50" height="50" relative="1" as="geometry">
                        <mxPoint x="439.7400000000001" y="-728" as="sourcePoint"/>
                        <mxPoint x="439.7400000000001" y="-755" as="targetPoint"/>
                    </mxGeometry>
                </mxCell>
                <mxCell id="944" value="&lt;font style=&quot;&quot;&gt;&lt;span style=&quot;font-size: 15px;&quot;&gt;&lt;b&gt;Self-attention mechanism&lt;/b&gt;&lt;/span&gt;&lt;br&gt;&lt;br&gt;&lt;font style=&quot;font-size: 13px;&quot;&gt;&lt;br&gt;Where:&amp;nbsp;&lt;/font&gt;&lt;/font&gt;&lt;font style=&quot;font-size: 15px;&quot;&gt; &amp;nbsp; &amp;nbsp; &amp;nbsp; &amp;nbsp; &amp;nbsp; &amp;nbsp; &amp;nbsp; &amp;nbsp; &amp;nbsp; &amp;nbsp; &amp;nbsp; &amp;nbsp; &amp;nbsp; &amp;nbsp; &amp;nbsp; &amp;nbsp; &amp;nbsp;&amp;nbsp;&lt;br&gt;&lt;br&gt;&lt;br&gt;&lt;br&gt;&lt;br&gt;&lt;br&gt;&lt;/font&gt;" style="rounded=1;whiteSpace=wrap;html=1;fillColor=#ffffff;strokeColor=#121014;fontColor=#000000;" vertex="1" parent="1">
                    <mxGeometry x="298.24" y="-320" width="281" height="167" as="geometry"/>
                </mxCell>
                <mxCell id="947" value="" style="endArrow=classic;html=1;exitX=0.5;exitY=0;exitDx=0;exitDy=0;strokeColor=#000000;" edge="1" parent="1">
                    <mxGeometry width="50" height="50" relative="1" as="geometry">
                        <mxPoint x="440.63" y="-114" as="sourcePoint"/>
                        <mxPoint x="440.63" y="-141" as="targetPoint"/>
                    </mxGeometry>
                </mxCell>
                <mxCell id="691" value="" style="rounded=1;whiteSpace=wrap;html=1;dashed=1;strokeColor=#af9403;strokeWidth=4;fontSize=30;fontColor=#000000;fillColor=#FFFFFF;" parent="1" vertex="1">
                    <mxGeometry x="197.22000000000006" y="-683" width="120" height="60" as="geometry"/>
                </mxCell>
                <mxCell id="689" value="&lt;b style=&quot;font-size: 30px;&quot;&gt;N&amp;nbsp;&lt;br style=&quot;font-size: 30px;&quot;&gt;&lt;/b&gt;" style="text;html=1;strokeColor=none;fillColor=none;align=center;verticalAlign=middle;whiteSpace=wrap;rounded=0;direction=south;fontColor=#000000;fontSize=30;" parent="1" vertex="1">
                    <mxGeometry x="232.22000000000006" y="-668" width="50" height="30" as="geometry"/>
                </mxCell>
                <mxCell id="690" value="&lt;b style=&quot;font-size: 30px;&quot;&gt;+&lt;br style=&quot;font-size: 30px;&quot;&gt;&lt;/b&gt;" style="text;html=1;strokeColor=none;fillColor=none;align=center;verticalAlign=middle;whiteSpace=wrap;rounded=0;direction=south;fontColor=#000000;fontSize=30;rotation=45;" parent="1" vertex="1">
                    <mxGeometry x="252.22000000000006" y="-668" width="50" height="30" as="geometry"/>
                </mxCell>
                <mxCell id="953" value="[CLS]" style="text;html=1;strokeColor=none;fillColor=none;align=center;verticalAlign=middle;whiteSpace=wrap;rounded=0;fontSize=20;fontColor=#000;" vertex="1" parent="1">
                    <mxGeometry x="66" y="52" width="102.69767441860462" height="68.39999999999999" as="geometry"/>
                </mxCell>
                <mxCell id="963" value="[PAD]" style="text;html=1;strokeColor=none;fillColor=none;align=center;verticalAlign=middle;whiteSpace=wrap;rounded=0;fontSize=20;fontColor=#000;" vertex="1" parent="1">
                    <mxGeometry x="677.8548837209302" y="52" width="68.46511627906976" height="68.39999999999999" as="geometry"/>
                </mxCell>
                <mxCell id="951" value="This sentence gets encoded by the model..." style="text;html=1;strokeColor=none;fillColor=none;align=center;verticalAlign=middle;whiteSpace=wrap;rounded=0;dashed=1;strokeWidth=4;fontSize=20;fontColor=#110f15;opacity=50;" vertex="1" parent="1">
                    <mxGeometry x="206.88372093023256" y="280.99999999999994" width="402.23255813953483" height="45.599999999999994" as="geometry"/>
                </mxCell>
                <mxCell id="952" value="Tokenizer" style="rounded=1;whiteSpace=wrap;html=1;fontSize=20;fillColor=#FFFFFF;fontColor=#000000;strokeColor=#000000;" vertex="1" parent="1">
                    <mxGeometry x="305.30232558139534" y="177.39999999999998" width="205.39534883720924" height="68.39999999999999" as="geometry"/>
                </mxCell>
                <mxCell id="950" value="" style="edgeStyle=none;html=1;fontSize=20;strokeColor=#18141d;strokeWidth=2;" edge="1" parent="1" source="951" target="952">
                    <mxGeometry relative="1" as="geometry"/>
                </mxCell>
                <mxCell id="954" value="This" style="text;html=1;strokeColor=none;fillColor=none;align=center;verticalAlign=middle;whiteSpace=wrap;rounded=0;fontSize=20;fontColor=#000;" vertex="1" parent="1">
                    <mxGeometry x="171.99706976744193" y="52" width="57.767441860465105" height="68.39999999999999" as="geometry"/>
                </mxCell>
                <mxCell id="955" value="" style="endArrow=none;html=1;strokeColor=#18141d;fontSize=20;fontColor=#000;strokeWidth=2;" edge="1" parent="1">
                    <mxGeometry width="50" height="50" relative="1" as="geometry">
                        <mxPoint x="407.99999999999994" y="177.39999999999998" as="sourcePoint"/>
                        <mxPoint x="407.99999999999994" y="154.6" as="targetPoint"/>
                    </mxGeometry>
                </mxCell>
                <mxCell id="956" value="" style="endArrow=none;html=1;strokeColor=#18141d;fontSize=20;fontColor=#000;strokeWidth=2;" edge="1" parent="1">
                    <mxGeometry width="50" height="50" relative="1" as="geometry">
                        <mxPoint x="112" y="155" as="sourcePoint"/>
                        <mxPoint x="714" y="155" as="targetPoint"/>
                    </mxGeometry>
                </mxCell>
                <mxCell id="957" value="sentence" style="text;html=1;strokeColor=none;fillColor=none;align=center;verticalAlign=middle;whiteSpace=wrap;rounded=0;fontSize=20;fontColor=#000;" vertex="1" parent="1">
                    <mxGeometry x="288" y="67.3" width="64.92" height="37.8" as="geometry"/>
                </mxCell>
                <mxCell id="958" value="gets" style="text;html=1;strokeColor=none;fillColor=none;align=center;verticalAlign=middle;whiteSpace=wrap;rounded=0;fontSize=20;fontColor=#000;" vertex="1" parent="1">
                    <mxGeometry x="390.89" y="67.1" width="34.23" height="38" as="geometry"/>
                </mxCell>
                <mxCell id="959" value="[MASK]" style="text;html=1;strokeColor=none;fillColor=none;align=center;verticalAlign=middle;whiteSpace=wrap;rounded=0;fontSize=20;fontColor=#000;" vertex="1" parent="1">
                    <mxGeometry x="439" y="65.7" width="85.58" height="41" as="geometry"/>
                </mxCell>
                <mxCell id="960" value="by" style="text;html=1;strokeColor=none;fillColor=none;align=center;verticalAlign=middle;whiteSpace=wrap;rounded=0;fontSize=20;fontColor=#000;" vertex="1" parent="1">
                    <mxGeometry x="497.003953488372" y="52" width="102.69767441860462" height="68.39999999999999" as="geometry"/>
                </mxCell>
                <mxCell id="961" value="the" style="text;html=1;strokeColor=none;fillColor=none;align=center;verticalAlign=middle;whiteSpace=wrap;rounded=0;fontSize=20;fontColor=#000;" vertex="1" parent="1">
                    <mxGeometry x="555.0027906976744" y="52" width="102.69767441860462" height="68.39999999999999" as="geometry"/>
                </mxCell>
                <mxCell id="962" value="..." style="text;html=1;strokeColor=none;fillColor=none;align=center;verticalAlign=middle;whiteSpace=wrap;rounded=0;fontSize=20;fontColor=#000;" vertex="1" parent="1">
                    <mxGeometry x="605.0016279069768" y="63.400000000000006" width="102.69767441860462" height="45.599999999999994" as="geometry"/>
                </mxCell>
                <mxCell id="974" value="" style="endArrow=none;html=1;strokeColor=#18141d;fontSize=20;fontColor=#000;strokeWidth=2;" edge="1" parent="1">
                    <mxGeometry width="50" height="50" relative="1" as="geometry">
                        <mxPoint x="113" y="155" as="sourcePoint"/>
                        <mxPoint x="113" y="101.99999999999991" as="targetPoint"/>
                    </mxGeometry>
                </mxCell>
                <mxCell id="975" value="" style="endArrow=none;html=1;strokeColor=#18141d;fontSize=20;fontColor=#000;strokeWidth=2;" edge="1" parent="1">
                    <mxGeometry width="50" height="50" relative="1" as="geometry">
                        <mxPoint x="200.68" y="156" as="sourcePoint"/>
                        <mxPoint x="200.68" y="103" as="targetPoint"/>
                    </mxGeometry>
                </mxCell>
                <mxCell id="976" value="" style="endArrow=none;html=1;strokeColor=#18141d;fontSize=20;fontColor=#000;strokeWidth=2;" edge="1" parent="1">
                    <mxGeometry width="50" height="50" relative="1" as="geometry">
                        <mxPoint x="316.8299999999999" y="155" as="sourcePoint"/>
                        <mxPoint x="316.8299999999999" y="102" as="targetPoint"/>
                    </mxGeometry>
                </mxCell>
                <mxCell id="977" value="" style="endArrow=none;html=1;strokeColor=#18141d;fontSize=20;fontColor=#000;strokeWidth=2;" edge="1" parent="1">
                    <mxGeometry width="50" height="50" relative="1" as="geometry">
                        <mxPoint x="408.25999999999993" y="155" as="sourcePoint"/>
                        <mxPoint x="408.25999999999993" y="102" as="targetPoint"/>
                    </mxGeometry>
                </mxCell>
                <mxCell id="978" value="" style="endArrow=none;html=1;strokeColor=#18141d;fontSize=20;fontColor=#000;strokeWidth=2;" edge="1" parent="1">
                    <mxGeometry width="50" height="50" relative="1" as="geometry">
                        <mxPoint x="482.23" y="154" as="sourcePoint"/>
                        <mxPoint x="482.23" y="101" as="targetPoint"/>
                    </mxGeometry>
                </mxCell>
                <mxCell id="979" value="" style="endArrow=none;html=1;strokeColor=#18141d;fontSize=20;fontColor=#000;strokeWidth=2;" edge="1" parent="1">
                    <mxGeometry width="50" height="50" relative="1" as="geometry">
                        <mxPoint x="551.49" y="154" as="sourcePoint"/>
                        <mxPoint x="551.49" y="101" as="targetPoint"/>
                    </mxGeometry>
                </mxCell>
                <mxCell id="980" value="" style="endArrow=none;html=1;strokeColor=#18141d;fontSize=20;fontColor=#000;strokeWidth=2;" edge="1" parent="1">
                    <mxGeometry width="50" height="50" relative="1" as="geometry">
                        <mxPoint x="606.16" y="155" as="sourcePoint"/>
                        <mxPoint x="606.16" y="102" as="targetPoint"/>
                    </mxGeometry>
                </mxCell>
                <mxCell id="981" value="" style="endArrow=none;html=1;strokeColor=#18141d;fontSize=20;fontColor=#000;strokeWidth=2;" edge="1" parent="1">
                    <mxGeometry width="50" height="50" relative="1" as="geometry">
                        <mxPoint x="713.9999999999999" y="156" as="sourcePoint"/>
                        <mxPoint x="713.9999999999999" y="103" as="targetPoint"/>
                    </mxGeometry>
                </mxCell>
                <mxCell id="982" value="" style="rounded=1;whiteSpace=wrap;html=1;strokeColor=#66CC00;strokeWidth=5;fontSize=12;fontColor=#000000;fillColor=none;dashed=1;arcSize=9;" vertex="1" parent="1">
                    <mxGeometry x="-265.28" y="52" width="1416.3" height="282" as="geometry"/>
                </mxCell>
                <mxCell id="984" value="&lt;b style=&quot;font-size: 38px;&quot;&gt;Tokenizer&lt;br style=&quot;font-size: 38px;&quot;&gt;&lt;/b&gt;" style="text;html=1;strokeColor=none;fillColor=none;align=center;verticalAlign=middle;whiteSpace=wrap;rounded=0;direction=south;fontColor=#000000;fontSize=38;" vertex="1" parent="1">
                    <mxGeometry x="-234.98000000000002" y="75.09999999999998" width="150" height="30" as="geometry"/>
                </mxCell>
                <mxCell id="987" value="&lt;span style=&quot;color: rgba(0, 0, 0, 0); font-family: monospace; font-size: 0px; text-align: start;&quot;&gt;%3CmxGraphModel%3E%3Croot%3E%3CmxCell%20id%3D%220%22%2F%3E%3CmxCell%20id%3D%221%22%20parent%3D%220%22%2F%3E%3CmxCell%20id%3D%222%22%20value%3D%22%22%20style%3D%22endArrow%3Dnone%3Bdashed%3D1%3Bhtml%3D1%3BstrokeWidth%3D2%3BfontSize%3D20%3BfontColor%3D%23000000%3BentryX%3D0.271%3BentryY%3D0.852%3BentryDx%3D0%3BentryDy%3D0%3BentryPerimeter%3D0%3BstrokeColor%3D%23000000%3B%22%20edge%3D%221%22%20parent%3D%221%22%3E%3CmxGeometry%20width%3D%2250%22%20height%3D%2250%22%20relative%3D%221%22%20as%3D%22geometry%22%3E%3CmxPoint%20x%3D%22113%22%20y%3D%22-38%22%20as%3D%22sourcePoint%22%2F%3E%3CmxPoint%20x%3D%22113.51730000000009%22%20y%3D%22-174.75600000000009%22%20as%3D%22targetPoint%22%2F%3E%3C%2FmxGeometry%3E%3C%2FmxCell%3E%3C%2Froot%3E%3C%2FmxGraphModel%3E&lt;/span&gt;" style="endArrow=none;dashed=1;html=1;strokeWidth=2;fontSize=20;fontColor=#000000;entryX=0.271;entryY=0.852;entryDx=0;entryDy=0;entryPerimeter=0;strokeColor=#000000;" edge="1" parent="1">
                    <mxGeometry width="50" height="50" relative="1" as="geometry">
                        <mxPoint x="113" y="71" as="sourcePoint"/>
                        <mxPoint x="113.5173000000002" y="-65.75599999999986" as="targetPoint"/>
                    </mxGeometry>
                </mxCell>
                <mxCell id="989" value="" style="endArrow=classic;html=1;strokeColor=#000000;strokeWidth=2;fontSize=20;fontColor=#000000;dashed=1;" edge="1" parent="1">
                    <mxGeometry width="50" height="50" relative="1" as="geometry">
                        <mxPoint x="114" y="-65" as="sourcePoint"/>
                        <mxPoint x="338" y="-64" as="targetPoint"/>
                    </mxGeometry>
                </mxCell>
                <mxCell id="990" value="&lt;span style=&quot;color: rgba(0, 0, 0, 0); font-family: monospace; font-size: 0px; text-align: start;&quot;&gt;%3CmxGraphModel%3E%3Croot%3E%3CmxCell%20id%3D%220%22%2F%3E%3CmxCell%20id%3D%221%22%20parent%3D%220%22%2F%3E%3CmxCell%20id%3D%222%22%20value%3D%22%22%20style%3D%22endArrow%3Dnone%3Bdashed%3D1%3Bhtml%3D1%3BstrokeWidth%3D2%3BfontSize%3D20%3BfontColor%3D%23000000%3BentryX%3D0.271%3BentryY%3D0.852%3BentryDx%3D0%3BentryDy%3D0%3BentryPerimeter%3D0%3BstrokeColor%3D%23000000%3B%22%20edge%3D%221%22%20parent%3D%221%22%3E%3CmxGeometry%20width%3D%2250%22%20height%3D%2250%22%20relative%3D%221%22%20as%3D%22geometry%22%3E%3CmxPoint%20x%3D%22113%22%20y%3D%22-38%22%20as%3D%22sourcePoint%22%2F%3E%3CmxPoint%20x%3D%22113.51730000000009%22%20y%3D%22-174.75600000000009%22%20as%3D%22targetPoint%22%2F%3E%3C%2FmxGeometry%3E%3C%2FmxCell%3E%3C%2Froot%3E%3C%2FmxGraphModel%3E&lt;/span&gt;" style="endArrow=none;dashed=1;html=1;strokeWidth=2;fontSize=20;fontColor=#000000;strokeColor=#000000;" edge="1" parent="1">
                    <mxGeometry width="50" height="50" relative="1" as="geometry">
                        <mxPoint x="200.55" y="75.1" as="sourcePoint"/>
                        <mxPoint x="201" y="-38" as="targetPoint"/>
                    </mxGeometry>
                </mxCell>
                <mxCell id="991" value="" style="endArrow=classic;html=1;strokeColor=#000000;strokeWidth=2;fontSize=20;fontColor=#000000;dashed=1;entryX=0;entryY=0.5;entryDx=0;entryDy=0;" edge="1" parent="1">
                    <mxGeometry width="50" height="50" relative="1" as="geometry">
                        <mxPoint x="202" y="-37" as="sourcePoint"/>
                        <mxPoint x="338.6500000000001" y="-35" as="targetPoint"/>
                    </mxGeometry>
                </mxCell>
                <mxCell id="992" value="&lt;span style=&quot;color: rgba(0, 0, 0, 0); font-family: monospace; font-size: 0px; text-align: start;&quot;&gt;%3CmxGraphModel%3E%3Croot%3E%3CmxCell%20id%3D%220%22%2F%3E%3CmxCell%20id%3D%221%22%20parent%3D%220%22%2F%3E%3CmxCell%20id%3D%222%22%20value%3D%22%22%20style%3D%22endArrow%3Dnone%3Bdashed%3D1%3Bhtml%3D1%3BstrokeWidth%3D2%3BfontSize%3D20%3BfontColor%3D%23000000%3BentryX%3D0.271%3BentryY%3D0.852%3BentryDx%3D0%3BentryDy%3D0%3BentryPerimeter%3D0%3BstrokeColor%3D%23000000%3B%22%20edge%3D%221%22%20parent%3D%221%22%3E%3CmxGeometry%20width%3D%2250%22%20height%3D%2250%22%20relative%3D%221%22%20as%3D%22geometry%22%3E%3CmxPoint%20x%3D%22113%22%20y%3D%22-38%22%20as%3D%22sourcePoint%22%2F%3E%3CmxPoint%20x%3D%22113.51730000000009%22%20y%3D%22-174.75600000000009%22%20as%3D%22targetPoint%22%2F%3E%3C%2FmxGeometry%3E%3C%2FmxCell%3E%3C%2Froot%3E%3C%2FmxGraphModel%3E&lt;/span&gt;" style="endArrow=none;dashed=1;html=1;strokeWidth=2;fontSize=20;fontColor=#000000;strokeColor=#000000;" edge="1" parent="1">
                    <mxGeometry width="50" height="50" relative="1" as="geometry">
                        <mxPoint x="316.62999999999994" y="75.09999999999991" as="sourcePoint"/>
                        <mxPoint x="317" y="-1" as="targetPoint"/>
                    </mxGeometry>
                </mxCell>
                <mxCell id="993" value="" style="endArrow=classic;html=1;strokeColor=#000000;strokeWidth=2;fontSize=20;fontColor=#000000;dashed=1;" edge="1" parent="1">
                    <mxGeometry width="50" height="50" relative="1" as="geometry">
                        <mxPoint x="317.22" y="-3.1599999999999966" as="sourcePoint"/>
                        <mxPoint x="338" y="-3" as="targetPoint"/>
                    </mxGeometry>
                </mxCell>
                <mxCell id="994" value="" style="shape=image;verticalLabelPosition=bottom;labelBackgroundColor=default;verticalAlign=top;aspect=fixed;imageAspect=0;image=data:image/png,iVBORw0KGgoAAAANSUhEUgAAAaYAAAByCAYAAAAYqXWOAAAMP2lDQ1BJQ0MgUHJvZmlsZQAASImVVwdYU8kWnluSkEBoAQSkhN4EESkBpITQAkjvNkISIJQYE4KIvSwquBZURMGGroooWAGxI3YWxd4XCwrKuliwK29SQNd95Xvn++be//5z5j9nzp1bBgCNExyRKBfVBCBPmC+ODQmgJ6ek0kk9AAHagAzcgRWHKxExo6MjALTB89/t3Q3oDe2qo0zrn/3/1bR4fAkXACQa4nSehJsH8QEA8CquSJwPAFHGW0zNF8kwbEBHDBOEeJEMZypwlQynK/AeuU98LAviVgBU1DgccSYA6pchTy/gZkIN9T6InYU8gRAADTrEvnl5k3kQp0FsC31EEMv0Gek/6GT+TTN9SJPDyRzCirnITSVQIBHlcqb9n+X435aXKx2MYQ2bWpY4NFY2Z1i3WzmTw2VYDeJeYXpkFMTaEH8Q8OT+EKOULGlogsIfNeJKWLBmQA9iZx4nMBxiI4iDhbmREUo+PUMQzIYYrhC0UJDPjodYH+JFfElQnNJnk3hyrDIW2pAhZjGV/DmOWB5XFuuBNCeBqdR/ncVnK/Ux9aKs+CSIKRBbFggSIyFWh9hJkhMXrvQZU5TFihz0EUtjZflbQhzLF4YEKPSxggxxcKzSvyRPMjhfbFOWgB2pxPvys+JDFfXBWrkcef5wLthlvpCZMKjDlyRHDM6Fxw8MUswd6+YLE+KUOh9E+QGxirE4RZQbrfTHzfm5ITLeHGJXSUGcciyemA8XpEIfzxDlR8cr8sSLsjlh0Yp88OUgArBAIKADKWzpYDLIBoL23sZeeKXoCQYcIAaZgA8clczgiCR5jxAe40AR+BMiPpAMjQuQ9/JBAeS/DrGKoyPIkPcWyEfkgKcQ54FwkAuvpfJRwqFoieAJZAT/iM6BjQvzzYVN1v/v+UH2O8OETISSkQ5GpGsMehKDiIHEUGIw0Q43xH1xbzwCHv1hc8EZuOfgPL77E54SOgiPCNcJnYTbkwTzxD9lORZ0Qv1gZS3Sf6wFbg013fAA3AeqQ2VcDzcEjrgrjMPE/WBkN8iylHnLqkL/SftvM/jhbij9yM5klDyM7E+2/Xmkur2625CKrNY/1keRa/pQvVlDPT/HZ/1QfR48h//siS3C9mNnsZPYeewI1gjo2HGsCWvDjsrw0Op6Il9dg9Fi5fnkQB3BP+IN3llZJSXOtc49zl8Uffn8Qtk7GrAmi6aJBZlZ+XQm/CLw6Wwh12kE3cXZxQ0A2fdF8fp6EyP/biB6bd+5+X8A4HN8YGDg8Hcu7DgAez3g43/oO2fLgJ8OVQDOHeJKxQUKDpcdCPAtoQGfNANgAiyALZyPC/yKeQN/EATCQBSIBylgIsw+C65zMZgKZoC5oBiUguVgNVgHNoItYAfYDfaBRnAEnARnwEVwGVwHd+Hq6QIvQB94Bz4jCEJCqAgNMUBMESvEAXFBGIgvEoREILFICpKGZCJCRIrMQOYjpUgZsg7ZjNQge5FDyEnkPNKB3EYeIj3Ia+QTiqFqqA5qjFqjI1EGykTD0Xh0ApqJTkGL0AXoUrQCrUZ3oQ3oSfQieh3tRF+g/RjAVDE9zAxzxBgYC4vCUrEMTIzNwkqwcqwaq8Oa4X2+inVivdhHnIjTcDruCFdwKJ6Ac/Ep+Cx8Cb4O34E34K34Vfwh3od/I1AJRgQHgheBTUgmZBKmEooJ5YRthIOE0/BZ6iK8IxKJekQbogd8FlOI2cTpxCXE9cR64gliB/ExsZ9EIhmQHEg+pCgSh5RPKiatJe0iHSddIXWRPqioqpiquKgEq6SqCFXmqZSr7FQ5pnJF5ZnKZ7Im2YrsRY4i88jTyMvIW8nN5EvkLvJnihbFhuJDiadkU+ZSKih1lNOUe5Q3qqqq5qqeqjGqAtU5qhWqe1TPqT5U/aimrWavxlIbryZVW6q2Xe2E2m21N1Qq1ZrqT02l5lOXUmuop6gPqB/UaepO6mx1nvps9Ur1BvUr6i81yBpWGkyNiRpFGuUa+zUuafRqkjWtNVmaHM1ZmpWahzRvavZr0bRGaUVp5Wkt0dqpdV6rW5ukba0dpM3TXqC9RfuU9mMaRrOgsWhc2nzaVtppWpcOUcdGh62TrVOqs1unXadPV1vXVTdRt1C3Uveobqcepmetx9bL1Vumt0/vht6nYcbDmMP4wxYPqxt2Zdh7/eH6/vp8/RL9ev3r+p8M6AZBBjkGKwwaDe4b4ob2hjGGUw03GJ427B2uM9x7OHd4yfB9w+8YoUb2RrFG0422GLUZ9RubGIcYi4zXGp8y7jXRM/E3yTZZZXLMpMeUZuprKjBdZXrc9Dldl86k59Ir6K30PjMjs1Azqdlms3azz+Y25gnm88zrze9bUCwYFhkWqyxaLPosTS3HWs6wrLW8Y0W2YlhlWa2xOmv13trGOsl6oXWjdbeNvg3bpsim1uaeLdXWz3aKbbXtNTuiHcMux2693WV71N7NPsu+0v6SA+rg7iBwWO/QMYIwwnOEcET1iJuOao5MxwLHWseHTnpOEU7znBqdXo60HJk6csXIsyO/Obs55zpvdb47SntU2Kh5o5pHvXaxd+G6VLpcG00dHTx69uim0a9cHVz5rhtcb7nR3Ma6LXRrcfvq7uEudq9z7/Gw9EjzqPK4ydBhRDOWMM55EjwDPGd7HvH86OXule+1z+svb0fvHO+d3t1jbMbwx2wd89jH3Ifjs9mn05fum+a7ybfTz8yP41ft98jfwp/nv83/GdOOmc3cxXwZ4BwgDjgY8J7lxZrJOhGIBYYElgS2B2kHJQStC3oQbB6cGVwb3BfiFjI95EQoITQ8dEXoTbYxm8uuYfeFeYTNDGsNVwuPC18X/ijCPkIc0TwWHRs2duXYe5FWkcLIxigQxY5aGXU/2iZ6SvThGGJMdExlzNPYUbEzYs/G0eImxe2MexcfEL8s/m6CbYI0oSVRI3F8Yk3i+6TApLKkzuSRyTOTL6YYpghSmlJJqYmp21L7xwWNWz2ua7zb+OLxNybYTCiccH6i4cTciUcnaUziTNqfRkhLStuZ9oUTxanm9Kez06vS+7gs7hruC54/bxWvh+/DL+M/y/DJKMvozvTJXJnZk+WXVZ7VK2AJ1gleZYdmb8x+nxOVsz1nIDcptz5PJS8t75BQW5gjbJ1sMrlwcofIQVQs6pziNWX1lD5xuHibBJFMkDTl68Af+TaprfQX6cMC34LKgg9TE6fuL9QqFBa2TbOftnjas6Lgot+m49O501tmmM2YO+PhTObMzbOQWemzWmZbzF4wu2tOyJwdcylzc+b+Ps95Xtm8t/OT5jcvMF4wZ8HjX0J+qS1WLxYX31zovXDjInyRYFH74tGL1y7+VsIruVDqXFpe+mUJd8mFX0f9WvHrwNKMpe3L3JdtWE5cLlx+Y4Xfih1lWmVFZY9Xjl3ZsIq+qmTV29WTVp8vdy3fuIayRrqmsyKiommt5drla7+sy1p3vTKgsr7KqGpx1fv1vPVXNvhvqNtovLF046dNgk23Nodsbqi2ri7fQtxSsOXp1sStZ39j/FazzXBb6bav24XbO3fE7mit8aip2Wm0c1ktWiut7dk1ftfl3YG7m+oc6zbX69WX7gF7pHue703be2Nf+L6W/Yz9dQesDlQdpB0saUAapjX0NWY1djalNHUcCjvU0uzdfPCw0+HtR8yOVB7VPbrsGOXYgmMDx4uO958Qneg9mXnyccuklrunkk9da41pbT8dfvrcmeAzp84yzx4/53PuyHmv84cuMC40XnS/2NDm1nbwd7ffD7a7tzdc8rjUdNnzcnPHmI5jV/yunLwaePXMNfa1i9cjr3fcSLhx6+b4m523eLe6b+fefnWn4M7nu3PuEe6V3Ne8X/7A6EH1H3Z/1He6dx59GPiw7VHco7uPuY9fPJE8+dK14Cn1afkz02c13S7dR3qCey4/H/e864Xoxefe4j+1/qx6afvywF/+f7X1Jfd1vRK/Gni95I3Bm+1vXd+29Ef3P3iX9+7z+5IPBh92fGR8PPsp6dOzz1O/kL5UfLX72vwt/Nu9gbyBARFHzJH/CmCwoRkZALzeDgA1BQAa3J9Rxin2f3JDFHtWOQL/CSv2iHJzB6AO/r/H9MK/m5sA7NkKt19QX2M8ANFUAOI9ATp69FAb3KvJ95UyI8J9wKa4r+l56eDfmGLP+UPeP5+BTNUV/Hz+F+n1fIiernYKAAAAimVYSWZNTQAqAAAACAAEARoABQAAAAEAAAA+ARsABQAAAAEAAABGASgAAwAAAAEAAgAAh2kABAAAAAEAAABOAAAAAAAAAJAAAAABAAAAkAAAAAEAA5KGAAcAAAASAAAAeKACAAQAAAABAAABpqADAAQAAAABAAAAcgAAAABBU0NJSQAAAFNjcmVlbnNob3Tit5ZUAAAACXBIWXMAABYlAAAWJQFJUiTwAAAB1mlUWHRYTUw6Y29tLmFkb2JlLnhtcAAAAAAAPHg6eG1wbWV0YSB4bWxuczp4PSJhZG9iZTpuczptZXRhLyIgeDp4bXB0az0iWE1QIENvcmUgNi4wLjAiPgogICA8cmRmOlJERiB4bWxuczpyZGY9Imh0dHA6Ly93d3cudzMub3JnLzE5OTkvMDIvMjItcmRmLXN5bnRheC1ucyMiPgogICAgICA8cmRmOkRlc2NyaXB0aW9uIHJkZjphYm91dD0iIgogICAgICAgICAgICB4bWxuczpleGlmPSJodHRwOi8vbnMuYWRvYmUuY29tL2V4aWYvMS4wLyI+CiAgICAgICAgIDxleGlmOlBpeGVsWURpbWVuc2lvbj4xMTQ8L2V4aWY6UGl4ZWxZRGltZW5zaW9uPgogICAgICAgICA8ZXhpZjpQaXhlbFhEaW1lbnNpb24+NDIyPC9leGlmOlBpeGVsWERpbWVuc2lvbj4KICAgICAgICAgPGV4aWY6VXNlckNvbW1lbnQ+U2NyZWVuc2hvdDwvZXhpZjpVc2VyQ29tbWVudD4KICAgICAgPC9yZGY6RGVzY3JpcHRpb24+CiAgIDwvcmRmOlJERj4KPC94OnhtcG1ldGE+Csp/c7kAAAAcaURPVAAAAAIAAAAAAAAAOQAAACgAAAA5AAAAOQAAGRTMMElUAAAY4ElEQVR4AeydB7AUxdPAB1AkmbMoKoIYSkUEswJGgmDCiGJAFMGMIoYCs5JEQAswEAQEBAXMYAJEARUzZgQjYsCcxf36N/XN/PfuXdq7fbx797qrrvZuZ6ZnpmdverunQ7VAwCgoBZQCSgGlgFKgSChQTRlTkayEDkMpoBRQCigFLAWUMemDoBRQCigFlAJFRQFlTEW1HDoYpYBSQCmgFFDGpM+AUkApoBRQChQVBZQxFdVy6GCUAkoBpYBSQBmTPgNKAaWAUkApUFQUUMZUVMuhg1EKKAWUAkoBZUz6DCgFlAJKAaVAUVFAGVNRLYcORimgFFAKKAWUMekzoBRQCigF0lDg888/N4sWLUpTmvp2tWrVzFprrWXWWWcdU7duXbP//vubGjVqpK6sd1NSQBlTSrLoTaWAUkApYMzZZ59tpk2b5klRp04dU7NmTfP333+b33//3d+vV6+eZUL//POP+fnnn82///5ry2BQ33zzjWVUvrJ+yUoBZUxZSaQVlAKlQwEkgPXWW8+sv/76pTOpcprJH3/8YbbbbjtTq1Yt06tXL8ukYEAAIUYbNmxovv/+e7P77rubuXPneqkIpsTvk08+2TRo0MAsXrw44whhcl999ZWtW7169Yx1q0whsfIUlAJKgdKnQP/+/YN11103uPfee0t/sjHM8OGHHw423njj4MMPPyyDjXvQks8111xTppwbxxxzTHDKKaekLAvfFFVhsMEGGwRdunQJ/vzzz3BRlf0O51dQCigFSpwCffr0sZtot27dSnym8U3v9NNPD3r37p0S4ejRoz1jmj17dso6nTt3Dq677rqUZck3x4wZY/F17NgxEEktubjK/VZVXpWRjXWiVZUC/fr1M0OGDDEHHHCAmTlzpj0jKS9a/PXXX+bNN9808uZvz1V23HFHs8kmm5RXd+WGFzXe9ttvb+bNm2eYQzK4syfOkD777DPjVHzheq1atTLnn3++Oemkk8K3036/6aabzIABA8xhhx1mJk+eXK7rlHYQRVKgjKlIFkKHoRQoDwoMHz7ciKrJNGrUyDz77LNmww03jLUbeZU3b731lnn++efNnDlzzIIFCwybugOs0bBKE0nAiGrLbL755q4o0hWGumLFCrtZr7322gbLN85juP7333/+s3r1astIDjzwwDL4Gev06dOtcQIGDDAVxgce2sFMOX9jrE888YSBdk8++WQZPNxo3LixWblypWnevLl57rnn0tZ56KGH7BlUygopbnbv3t088MAD5vjjjzciRaWoUTVuKWOqGuuss6yCFMDMuW3btnazZfPksD5OeP/9981FF11kFi5caNFiBMCmTj+YSS9dutRu8PPnz7flco5i7r//ftNKJIkoAKPbZpttrCVcLu2Y85QpU8pUfeeddyyTLFMQuoFUCTOiT4wSUhmJyPmSZUg0u+yyy4yo60IY/vf1iy++MPXr17fM8393M3/Dqq99+/aWpoMGDTLnnntu5gYlWqqMqUQXVqdVtSmwatUqg9TA5sgb+FFHHRUbQVDXsWmiHmTzRtU1YsQI06JFi5R9PP744+aMM86wdZFSBg4caLp27ZqybqqbSEQvvPCCYU4wDJgOEpqDXXbZxZx22mlGDBVM7dq1TbNmzayFmyt3V/BMnTrVyHmbtaZz95F+kHz4oEZDhZcJxHjEMiTqIIEdeuihmapHLlu+fLnZd999rRT3zDPPmD322CMyjkrfoMqdqumElQIlTgHZgINOnTrZw3RhALHOVqSjYM899/QH/yIxBeLPk7WPkSNH+jZYss2YMSNrm3QVevTokTcu8SkKRPqy7UU6CoTBpesm7X2s55iDqEWDX3/9NW29QgqwnKQPkUID8YsqBFWlbKtWeZVy2XTQSoH0FLjjjjvspiaSQCBSRvqKEUtEHRhsttlmFjfmzZhTRwGRmmxbNtymTZsGoraK0tzXFcnG45EzoUB8iXxZpi+ierRMdYsttgjGjRsXyLlSpuppy0Sisv2LpJS2ThwFmJtDKxhhVQNlTFVtxXW+JU0BJBre5NnQ5AA/trmGmRK4xXosMu433njDMxRw3H333ZFxwIRgRrTnI4YVOeFAQoMhwdRgUPnCu+++6/uWs6V80eTU7ssvvwy23npr29+oUaNyalMqlZQxlcpK6jyqPAWQjnbeeWe7kZ111lmx0UPMoe2m7pgBb/KoC6MCKj8xJvAbO1JTVHjsscd8e8Zz5ZVXZkQhURiCvn372jZIHoWq3mAQjg5i5Zix7zgKhw4davsTk/sAxl5VQBlTVVlpnWfJUwCHUDZNJKZly5bFNl+nUgJ3kyZNgu+++y5v3HKQ7zd21IFiSBEJ11VXXeXbMx4xrEjbnnF26NDB0mPYsGFp60UpECML2/9GG20U/Pbbb1Ga5lUXZi7GJbZPaBeVXnl1WgSNlDEVwSLoEJQChVIgrCbDICEuEIu+BEYg5t4FoZb4cQn4Pvjgg0j4DjroIN8e6evHH39M2f61116z0uMOO+wQiEVfyjpRbyIlSuw82395ny+Fx+YMIWDE9913X7ioZL8rYyrZpdWJVSUKuA0flY8Eao1l6liwSRBSzwjEP6ngWG7il+PxZZN4kieBdRpSFu34wKRSwdixYwPoAPOQ4KipquR17+233/Z9l/f5UniAYpIf7LbbbrZvMY0P+F3qoIyp1FdY51fyFJDIC94g4PLLL49tvhJ2x2/EMIKbb765YNzEj3OMhevEiRNzxvnUU08ltE0OnkoA1AsuuMDW6dmzZ+wb+F133eX7f/rpp3MedxwVJ02a5PuG8ZY6qINtpfdE0wlUdQrgXPrII48YQvWI1VjeYX/CdBQjAbPtttsaIhEAJL1bsmSJEXPxcLXI38XgwXzyySe+3YMPPmjatGnjf2f6cu211xo5K/JVCPdz+OGH2984EgvTM6+//rr9TRgmMYzwdfP5wjjFMs7mVvr222/NrbfeaqNZgOv66683IsXYlBjQJFU8vXz6TNeGVBo4En/99dd2XZgnzsolC6XOeXV+SoFSpoCE2fHSEtJIXCCMzr+hI9nkkr4hW9+cB4WlJb6/+uqr2Zr58oMPPti3x8Djl19+sWWYsruzH4d/p512CrDIKwQkCkSAkQO+WxLjL9hyyy2tdSK/URUyBkzXJUhrId3k3Bb1oZvf+PHjc25XGSuqKq8yrpqOWSnw/xRwUQjYsGbNmhUbXZxKzG2Et99+e8G4ibLg8HEl15GEGMoJb/L50iGHHGJN1iU0kjVBP+GEE4Jdd901Ab8Efs0Jd2WpJLEH/UsIESEKZbzFPG9lTMW8Ojo2pUAGCuDs6ZxNMeOOc6MCX5iJSEbWDCPJrWjw4MEJOI844ojcGkqt5PMlCZ4aYPCBZR4JELGYcxEv3LglPmDO+CtLxXbt2nkaYjFZqqCMqVRXVudV8hTAidZtwnLmEdt8w9Zn4Gfzd2qzQjpBynHj5QojyRWuvvrqhLao2OQMLAg7ueJgjJot3Eeq7LO59lmM9SSArZ8fDsr5ODoX47ySx6TGDyV7eqgTK2UKEGVbzlV87iPxY4otrQVpH8LJ7SSahCGFRiHw3nvvmX322cejqFWrliFthjAYfy/TFzlfMszRgQSSNRMmTLDpMNw9rqKCtKk13D0S9YlE5X5W+is5o4h+Ls69di6iHjV77bVXpZ9XmQkkcyr9rRRQChQ/BYiD5yQD2fBjHXCy2ozzm0KB0EFuvFyjOAFjNBEOZYQRBKbhqUCy5yb0Q6y5XKKfp8JVrPdOPPFEP0fJeluswyxoXKrKK4h82lgpUDEUuPDCC/3mRJieOAH1V5iJcJZTCGDggNrN4STtBM67uQJhh1xbrmK2nbEp1nTh+qNHj85Yv7IVEvzWzY/UHaUIyphKcVV1TiVNAc4VSGnhNidJJhfrfDGiwBza4ZeEgwXh5/zL4eIaNaxOsrSVLcSQ+EYl9CdJ9woaf7E1Fv+qhPnFFemjmOapZ0xllJt6QylQ3BTAubJly5Z2kJzVfPrppzZza5yjJvutRJSwKOvVq2cktE9e6EW1Zlq3bm2dVEFAJtvhw4dHwiWpLQxp0QEcfXGm5ZoOyKrLuRhOsQ7IoishjNzPSn8lq60E6rXzEFN+c84551T6OSVMoJi4pI5FKaAUyE6BW265xb8xd+zYMXuDPGrIRuf7QMqRiAMJWIisjaUc/jSo5oThBMIIEuqQCJB8SU5awhE1qkk7EcKdSTx42rZtm9BHuh833HCD75d2p556arqqlfJ+r169/PyOO+64SjmHTINWVV4m6miZUqAIKYBqzW32Q4YMKZcREn8Pk2zXDxGuHWCMQHp1ykm1wXkXURGc0yv1SM8QNmeX0EF5GSGQJdeNgWuu8frIIRU2mCD4q0iWbgqV/hqOzLHpppuukRQca5JoypjWJLW1L6VAgRQgq2l4o54zZ06BGNM3hwm4vpCKnEREcFeywYpKzTdm06cu4YFIxock59pyQP/DDz/4ulG+YL3n8HAlekSugCQRbtunT59cmxZ9PUdvN79HH3206MccZYDKmKJQS+sqBSqYAhgOuM2IayFJ+7JNhfQKGA64/pCAUMXBlFJFMadujx49AhfTDokK5pZvcjvSqBPzzvXPldBEuUK3bt0S2iLVffTRR7k2L/p69evX9/OD7qUEavyQcOJWdX/I5mEdGOXhNnvvvbepXr161SVGEc+8a9euZurUqXaEwiCMmHaX62iJsN29e3ezcOFC248wH/tdNkJz2223+b4xcrj44ouNJOiz93D6vPPOO43Er/N1sn3BeZRI6StXrjREN1+xYoURH6SEZmItaCOc16lTx0hmXSMSVUI5z7H4+dhnWaS0hDJ+VKtWzTomS5w+a4QRZXxlkFXwDTlvMy+++KIdhSRE9JHVK3hYsXRfEGN65ZVXrOXO6tWrkbyMmLHaK98dhL+7e8nXRo0a5Rz6Prmt/i6MAosXLzZyUGxeeuklw58aELWNkYRudqMpDLu2jpsCWOO51A6SCM9Mnz497i7K4OM/LGdMRqJbGwlN5MtJ+4DFHlaBzmqPVAwDBgwwIl2ZGjVq+LruC5Z+YjDhfiZcJZutER8km2qDtrwc8YGZsMe4D6k42GsGDhxoRCpKwEGECVEd2nHVrFnTpoagPR+s9WB+POfgldBLBafxSOh8Df+44oorzKhRo2yv0B2GTuqTQoFoEiJZehq6dXB7POsAHVkHXpQygcTzs88M68nYGCdrwfqxDuIAbY488sgyKApiTGEzzjKYI9wQnbWRuFkRWmjVOCggXuP2z80DJ2cC5pJLLjFykG3z7oB/7NixRvT0cXSlOGKiAH9kUWdZbEgoN954Y0yYs6MRp1j7AkPOJz6YK0s6CLOdhEYiTA75kZCYCDW01VZblUG4YMECm9OI3FEKhVNA0tzbEEwOE7TnJb9QwNSePFTZAOk1nFsruT7PB2btmYD9hX0mGfJmTPgSkLgqDPgWoAYirpXoc417Y3FvPdSVzI82xpVrx0MtgRiNWJa4W3pdAxQYOXKk6d27t+1JIgcYPmworJ8DfCPwkVAoDgrgl4PKxsE999yTENPO3a+o69FHH214207lV4Ok1b59e6uqQxpXKJwCYX82sEVJupipd/bon376yfAigjqWvd6BnPnZhIy8eLB3t2jRwhWVufLCK6GzjFhWevUzlWjLs4DkjL9c+Jn2SKRxXiAipD94I2GWiPlZzUElCKM1K3WHmTKx4OOPP86rf22UPwU4VHZRmMlh43LiYE1FQjS3PpMnT/adyANqfVKIOqBQMRQQdatfG9ZIVOkVM5A0vYpq0Y5P3rgDxuqelXnz5tlnh2dONrw0rfV2VApg6ej+q1z5j8YNyVHd5YU2ry5EiLFjJV0J+0w2yNsqT96ObEdYhgjnztaP9SEQMdMTkoe02P5YWSdRIhVEN+/XITkIpBxyB6LSC8aNG5dgTYW/Cg+/6JdLhAqVbxqiuvHrxloUWyga8iuFN8qGDRsmvIjGHdOv8q1g/CPGh8nRnP9t3BAWQOhH0ttH7gITf9pGibmYF2MiNwvZJ/HIzsV+njf0Zs2aeQLi7EZgRoWKoQBpst3DDAPKBXCopI0yplyoVT51+vXr59eN/54cHpdPR3lidS8v7tkKX2FSKi3lSdgMzcQAxT8T5ZEYUVKgePysJy4DUYBnVCw0y/i9ZcORF2OaMWOGHWwutvOEnE+O9hs1iGO2SWh5NAp06tTJP2zTpk3L2pg1dF70ypiykqvcKnTu3NmvG2rwYoMRI0b48YWZEgFhxay52IZbEuMRizZPc1SocYPEKPT4WVP28ijgtDMSHzFKsyAvxiR+DXawYpqZsTM2sfDbORMjhpVCxVJA/D/8w5aL5Dp+/HhfXxlTxa0deZfchr/ffvtV3EDS9MyZR/Pmzf0YGSsOsuUZnSLNUKrM7TPPPNPTGyk67txTSLnumeMahfktX77cnmUTL5G4iVEgMmPiQBOxPJfgkRx0hSd13nnnRRmb1i0nCrjzQdYGUT0T8GCy3m4dlTFlolb5lfG/C58n8HJRjMDzIg7AwdChQwPOFuLeKItxzhU5JsIsuf8mV/HNin04YkXn++AYJlcmg2YGZvnyyy9HHlNkxrRq1aoAXaaYFGbsbNCgQX4yEIzNkBAnVR0IiUL2UfHpSPjTYrEoToo5kQe9LTlpkHaWLVvmrZ9yaiyVcmVM9BMOxMk65sOYeJDTJYYjE2kuZyVszJxVOkuvXOfq6vHsiQOnpT20I9ZYPnNx+Nb0lbh04Q1IUoav6SFof0VIgWHDhiU8FzNnzox9lOGwVDyDuRjdMA7qiq9dXuPJ24/J25un+CJmxjZygCvCyUrezK0nsbtXla6ERsGZVc5zDN/xfJbVsl7QhETBFwAnM7F4MSJlpiXN3LlzDU51s2bN8k6WVJbzH4OzMyFicHRMBfKgGNYFkDcYn6uGvsVC0jfB875du3a2LqFvXB4cVwH/g2QQVwHTpEkTe1sYh5FU3EZeYOxHmIkfq0Slth73OFrKOaVxkUPwChfVlGnVqpX15K9bt67FBY2gy6RJk+w4CFNTu3Ztm2vn0ksvtU7B0DIdiBm89cOYMmWKdQSUOG8JVeWcxvaH9zohblIB/l6LFi2yPnkuGgH1GJswNruWcrZim06YMMEI07NjpK5bZ+qJJGHH4uaWqq9M94iYgM+Hg+SQQO6+XqsWBfh/hMMyCaMyot6LlQj8n9lzHMyePdsQmiodSEoUIypdG2mDyDIiZaWrmv5+XuwsQyOiC4fD5eMnk5zLJUPzkivi7UKYRYAIzEEg4fiRIEgdgO7d+X7wdjF48OCU80dKIJ00YjE+Y5hsooJbunSptYrECIX2+CClMywBN3WyfXjDQaLLVi9cjs+KA3yiwmXh70gomDxj0dmlSxfrd9G3b98Ei01hEhYVdBMGGUikg0CYUIDZKvPk0N/hzJZiW/5Qvi79ovMGr4RJCTAkgJ7gIvo1UbtTgTiDehyu3/C1QYMGvlmyWiVcj+9oG/KF+fPnJ4wDCz0FpQC+huHnDBVq3IAZergPVLWZwGUcDvtBZqqfqiyyKi8VEndPAjkm+C3wp5Ugk664XK5sNsKVy/VTiJ782GOPtYuazv4fJtWyZUtbJxVjIpqzs8bijCGdsQKbrXshIJV1MpDYTWJp2Q8bvnvQxEvf36ec6M2o11xd3AFcXa4SWNOXuTrJKlrqoJqUN7eEtoyL8yo22TBAX5i36wcmJJKctQAKp1agDX5Wrh6WgukMcCSKha9HfQnsGe7SfpdYY74OJq2pdOfQAxUrakBoxYuB65/8QzzzDmA8jNuVi6YgIKGbSHwB48lXDQn+5JcFkgUqKAUkVqJ/3njuJERV7ERJPpbhf5AO+N/zEl6o6XpsjAlJoHHjxp5IbKJsIuUJvIFjJeI2gvK65mtJiPTAIjEuEp6lA7fppGJMYRNciSeYDoW9797u6TPTgWP4jEnC2mTEmfymDs1zBRhU8pqISiBl8/79+yfUhVGlk7TDjpzo2FMBZ3nhvsmwmgwwRDKwunpjxoxJrlLmN4n5XH1evJLPBTn7oRzJz0XUKIMkjxu8pbp+uWbaHPJAr00qKQWS/YzKI+eUqMITnj2M2lIBe4Oo461GpFCBJJYzJs5NJEOlD8FPbDwxMTYdOnRIr0OMqUQ4dMZAgum6Qf/vPtRx37km/+YchoCFUWHJkiX27IR2nM1MnDjRnrEk43FxBzmrCZ8xiURixDHZR3TmvEc2w+Tm/nc4dhbBHAmJz5lMMpAuQFSu9rZscIaYeOkAHITXd+DOidzvTFd0zcRMdJApGjbxtMK6cVHTmZ49e7qmCVfu83wBYvljRo8enVDufnAOJQ7ENlo616ZNm7oif4XeRM4GmCfnUZlA/pBGpGBPv9atW9vzMp4b9OlESuZ54UyPWJFxAeMKR9IWRm6ECcaFXvFUUgo8L7EJ5UXTj14sn21gZn8jhi/Je0CbNm1sXL5k1MRuFA2BEeZoJJRRcnGk3/8HAAD//61XwE4AABllSURBVO2dCdhVwxvAx062yBJJ9kSSnQpZshZSShHJkqWskbXIkp2QSskWZYtIooREthJFRZZki4hKSDn/9zf/Z+Y5595z7nruvd+937zP833nnJl3tvecO+/Mu43y8oS//vrLa9Gihbfuuuvav0GDBuVZa2UU//nnn71atWpZunTu3NmbNm2a999//yUNcOrUqd6CBQsC6T169LBlmzVrFsiLeth4441tmWHDhoWiHXvssRZn8ODBoTgmcdKkSRaXd7xixQqTlfa6dOnSQNn+/ftHlhk1alQAd9asWZG4F1xwgcU96aSTIvHIgKap+nz77bfbuvbff/+UdZnM+fPne9tuu60td9ddd3kLFy70GjRo4G2//fYe7z1u4F36f2MPPvhg3E24+sqQAu+8807gu7joootiH8W3334baKNJkyZJbfz0009enTp1vF133dWDJ+QLKp8K+MEzMfh/ML169UpZJRPhbrvt5i1fvjwlXqVknn322QH6QKt69ep5J5xwgnfrrbd6H3/8ceRQmzdvbsueeuqpkXj+jB133NGWgbGFQbEYEx+o/9sYP358WHd02ujRoy3ueuutF4lHxsUXX2xxO3TokBI3LHPRokXe9OnTPdrs0qWLratp06Zh6KFpEyZM8NZff31ddoMNNvB4VzVr1vQmTpwYip9v4kMPPWT7CU0ff/zxfKt05SuAAixo/b+x7t27xz6qf//9137rtFW3bt2kNk477TTdD34XccBKVKJyBJn41AMPPGBLt2vXTgnjUSuttJJNS7zZfffdlfyg1euvv56YVZHPc+fOVccdd5z68ssvI8d31FFHKdllaroYJF7L5ptvrv7880+d1L59e01bkx91bdSokfrmm2909n777adeeeWVJFT6Ix+QTr/zzjvVGWeckYRjEt5++2115JFHmkf1+++/q5VXXtk+p7pZtmyZ2mijjSyK7IrUQQcdZJ/9Ny+//LJijMBqq62mfv31V3924N7/3R199NFq+PDhgfzEB2j46quvqhdffFGP+7fffktE0c/QTnaIoXlhiddff7267bbbbNYVV1yh+CsECGNSslO0VfM7M/SyiTHcyKIghlpcFVEUkEVRVFZO6bKwVbLTt2VPOeUUdd9999nnuG5kwat++OEHWx3366yzjn5mLpfFrmrbtq0aOnSoxcnrJlfuhvjCz6lbtmzp/fPPPymr++ijj3QZdgrVCRYvXuzJ5O+xE/DTzH/fsGFD76uvvrJkmTdvXgCXlX0mIIzflmNrHQb57Jiy2emy0vKP8Y033gjrjk4TBmpxEUemgksvvdTinnjiiZGoiEwRK9euXdviIxLl+5MfkycM3BPGbPPCRBSRlUsGtDj00ENt+ZNPPjkVel55jzzyiG0HmqYTwebVmCtcNhR46623At8FYu5CwCGHHBJo57PPPtPNIBWRBZ23xRZbeIi444KcRHlPPfVUYJKVlbmHeCQdGN3Ap59+mg61IvOR1SKS6dq1q5bF+idt7v3iOlnlB2iM6C8TQMZr6kXfEQZ+xiQ73jAUmyY7Jlsf9SYuPpj8w3RmVMDEbfrCNZWYS3Y0FjcdY+rZs6fFjWJMS5Ys8WQnavHQ/9BGIsjq0uJky5jQJe2www62PGMslO4H0Z2fliwMHTgKjBkzJvBdXHLJJQUhCvpx//dnfkt9+vTR6UOGDIm13axFeW+++aZq06aNQkwDCKdUojvQYqdUW7fvvvtONW7cWMkqXrH9jAsQp8yYMSOu6kLrYbyIKbMFmZjV5MmTFeLLtddeO6k4NLnsssuU6Dp0HiKy9957T9WvX18/77TTTgocQCZNNXbsWH2f6t9mm21mxX+ZiPLuuOMOdeaZZ0ZWKcpVdcQRR9h8mYzVmmuuaZ9lJ6fAEWMFm2ZuRAepRP9iHnX/GUcYjBs3Tn9X5FE/7UTB5Zdfru6//36djRh0xIgRSajnnnuuEoMBnS66HyVMUW211VZJeGKQYcVvsmvVY0lCCkkQZqzFF4g6EYUOHDhQY6211lpKdoZKGGFIqdyTZDEYELnKrlFdc801uVfoSlYEBRK/i3POOUfdcsstsY+Nb61fv362XlkYKdHJ6j/mdXhAKhWOLZjpTTZsThiAJ3oPyznZvpktXbp6ZKLQ5UQGnw4143yML4RhaGMKDCoK9ZerohkLPFYZd999d8oxGcUhuI8++qjFRbFvVinshNIBu1aDz/Wee+4JLXLMMcdYvHQ7JmGsFpc6sbTzAyspDC7CQBYvgbLsvqIgG1GeMHNbr+hZkqr8+uuvbT59xvIuCoQxW1x2/oDoBT2+1ylTpkQV82RBpMtRHkBUa2i/9957J9EpsqIMM0aOHGnrpx3EmQ4cBfj9mu+O69VXX10QoiAS97eDkdvhhx/uYfiDIVHckLEoD52HrORt50Sp7SHfzAT8xMO8sbrABx98oOm15557phwyuhfz0pmgDTAx+vVS33//vckKvSIqM/VgIcY7CwM/Y0pn2v/+++/bOqk7UWTbqVMnLZYMayfRXDyVKE92g7addKI8v46JhUkiIGo2dOD67rvvJqLYZ37IBnfffffV6dCdtGeffdbi+W8QY/BexIjEijHRIyJrN3V169bNXyTveywaTd1csfZ04CjgX1jxXdx8880FIUqiyHDLLbfU32OhGGFGjOmPP/7w9tlnH/vD4Ef5zDPPpCXA33//7UE4Y1aL70cqn5K0FZYZgn9Sh0lFAbtOM+kkMhO/bDfdzsu/w+rbt29Uc16rVq1seyKCisQjA2Zo+sZVrAsD+HwXIuoLpJkH9Dz+sqlMScUqz+JuuOGGporQq9+/K0z35q+L9vHFCoNffvnFMz8w8NjpAEavJlZ8ScVmz56tyyAtoLwfYGj03Yz56aef9mfnde//lqg/nf9WXo25wmVDgWuvvdZ+b3wXAwYMKEjf2RWZ79pcd95559glA6bzaRkTym6/EplOiazRlE+6YqXBRCBmtJ7oSAKDufDCC5PwKznBP5kw6UXteFjlQNcDDjggiRxMfliSkc8uCEfUMBA9i10AiAl1pJ8Y4jWU/Objuu6668KqC6QhIjX4otuxeYahskMJA6zeTDmu9DEKMBrw4yZO+v5yHTt2tLhifu5h/ecHMWkPMBzEbGGApSM7f9Ou6Oc03cyOi/dnAPEezN44MCO+TGwXXNHXBepLtUs0dWdyxeHY9JMru97qCIkiTT9NSnlfqneBsYN/3LmqHdL1n82Jvx3ujQFEurK55Kc1fhCRhBK9R0BlhYLdgDSqUHLzJz9UJeIbfW/y/Vf8SA488EB/UkXfyy5JiZmlHaM4pmljBxEZaaMR2R1pxb3ogtTqq6+ufWi22247i29uREykjS9QtK+xxhrq+OOP10pHjCPmzJmjfXOMAQB+DLJL1XimPFd8fzCsEMtAJVEK/Fm6LxKhQvcBPwRxAA7kY5whzECn4buA4hN8DE/wOcJwwSg+MYrB70l2S0oYk5KFiq1rlVVW0XXLrkL3kbyrrrpKSXQGbeTBN2QAI4Ktt95ayQ9A1w+NZAeixCRViZe5QdNX+oIRjjBwJcxDpz333HPaWIBvEhCRo/YDwjfsiy++UPfee6/Cr0qsidRLL72kUCIDe+yxh/Y5w99KTLQVxh0odvHfSgQxFVcyUdpk/Djkx2qfzY0wM8WfLDyUmKqb5KyufAMYDhkQ8bD1RTNp1eF68MEH628gzJCllOPnGyoFYLj05JNP2qZfeOEFJc7e9jnOG5Eu2N8BBmFiYRxn9YG60jImLC5wpmLSwBIJRmT+AjX5HpikzB+WZquuuqpiUEyMmTpn+qor21vDmPh4RPSiJ2GYix+gE4xGZLVKRJ3+rMA9Fn5MpLJVV7KSD+RRBx+jmKErrNTCAAc48SPTDIv3QRnALCxgKDiiYr0WZlHG4kQUnsrvnAoTxfINBmlAxLeaScBQYLa8b9oy3wyMAqYFI6A9Jn4sFmFw4BlcvjX6xEIHZgRjhfnCsGBw5juiXmgjO3sFwzcMhv58+OGHmq5YDSYCCwasl8TcW8nuTIkBihKdqapRo4a2QoT5Ys0Hs5Odru4f7Rp60R6MEytVA1gcwvixKjR9BJ+xgI91JgwzV4DexloRh8fE7yDXesulHO8WC0gcSFmAOVBK3CWU6H8sKUSKoX9/NiHGGxx5sajG0pa5bZNNNomx9mBVaRlTEN09ZUMBJmBW20RaMID5t+gplGyN1VZivszk5jepNniprkSREMszzST4OMRfKbCaTlU2nzwYifig6cmX1Tu7C5hPVQeYBf1mUmfXyqTOzikReDdEqvCbwyfilPIZs33DZKH/zJkzS9mdorct4kv9HlNFUSl6p0rcIJFPWFABLNqQJphFZ9xdQ0KC1At3DRbThQTHmApJXVe3o0CMFDjvvPPUY489pmsUAyTr4xZjE1W2KkRlYtyjRaFikVhl+1nsjpldDO2KMYL2myx2HwrRnmNMhaCqq9NRoAAUQLzYu3dvWzM7PBhUdQCYkpj9a0lBruNFHyjWZToOIyJp4jFyJb6hX6qRa/2lKOePjcmO0jiVl6IvcbbpGFOc1HR1OQoUkAKIUdBVGsDQAr1apYP4+SkmXZiyWKHlNFz0lERUQd+XCKmCCyfiVqVnjIcQSRujIYm6r8R8vCp1Mee+OMaUM+lcQUeB4lIAxbafEbGDOv3004vbiRK0hsEDTBhdYa6AIQ3iQHZJMCJjtIIhEDtPjF7KDcRvLhCtnzBdEki43IYR2l/HmELJ4hIdBaoeBbB43HTTTbVlIL1jwubYkkoGLCsxEY8zNqBEotFWntANAx6ObShHwFzbfxQKR9wQH7MSwDGmSniLbgzVhgL+wL5RQXoriRjilK/91+RImCTfvFzHKVH8rdn++eefr2644YZcqyppOTmtVoljuu0D1or4y1UCOMZUCW/RjaHaUAB/NLPC58BNnLQrFTBUwCmZSPE33nhjbMPEXxDfNQDfKH/0/NgaKUJF+OLhTwRUmpWmY0xF+IBcE44CcVHAf+QHdRbSoTKuPudaD+I7zOPx18rW1y+qTY5nkfBgOhsnbU6YhsGXG2DEQQQeE1lFYlbqCCnlNo6o/jrGFEUZl+4oUAUp8Nprr6nWrVvbnhGmSY4fsM+VcvP555/rI8OJyCGxJGMbFkfSG8s+OUrGOqfG1kCRKoI+hKUyQOQYznarFHCMqVLepBtHtaAAoY2IGEIUDgDzYMyEKw2IoQgTmTp1aqwhdvz6JUSEcTK9Yr4DOd1Bh/MybRLqbJdddjGPZX91jKnsX6EbQHWjACbBBOsE5NiPgAK8EmhB8F8iGhAHTk4pyHlIWDESq5BQPQa22WYbHTSY5+HDhytC+pQj+E+UJYAxIt1KAseYKulturFUCwrI0QaKI7QBgtBiUl1JIEex6OjvxAVkfNkAOhf0UpiEE0WeYLpYMmI8QVxJdDEA8eRggHHprrLpYxy4fiOYSnQbcIwpjq/E1eEoUEQKYFFG4F4TxYCIzwQDrgQgkjuWeIQI4viWbMAfAR/fJ45fwSmXdBgWR5ng6wMg9kqM9J9NW6XEZRfIzg9nYUBOWlYtWrQoZZfib1sG6cBRwFGgzCggE689uE3Oqiqz3kd396abbtIHYgqzjUYKyRFHY0sPiYgRwJBje+wBj+awO7H4C+CU04MwVDtWcbj2hOmWU/cz6isyWAeOAo4CZUYBTog2k+xhhx1WZr0P764cS+JxMnC2J13LcQyWFlEn+/bs2dPiQDfR0YV3ogxSu3fvbsciergy6HH2XXSivPg3oa5GR4GCU4DzpUz4Gfxx0KdUBa9/fI8494rTf7MFRHfolzhfCFPuTICI48KYNSqHTU6ePDlUL8Uhmeb0bPRLnGfGScqJwEGWWOoxBhOBnOgQUQdwJpYv9DNWmRwYyXluQMUempg9L3MlHAUcBaoCBUSpb1fOwghK2iUJh+PJ4XG2PxIkNav+yNH1nuh9vG7dumVcTnRsnuiNbJvifBxZdujQoRZPAuFG4on+zhP9ltewYUOLL8wuEr/YGXICsu2XOAZ7cjBgsbtQlPacKK8oZHaNOArET4F+/frZSUrMxuNvIMMaJfK3Jzsc2xdEZXKYX4al/4+GnoxyEmIn43LiXBxoMxUDEUddi9ujR4+0bYwdO1bjyy7UE7PztPjFQmjfvr0dh/hkFavZorfjGFPRSe4adBSIhwLiZOuJNZ6eqORIeI/VfrFhyJAhun2JPuHJCbt20mQ1P2PGjIy6s3TpUk+ifHtnnXVWRvgGiZ2P0bOJKbgnYi6TlXQVs3OL+/zzzyflJyaISFHji2VfYlbJnhcsWOCJ+FH3S2LjeSLOLVlfCt2wY0yFprCr31GggBTwW6Nh0VZMEKdOb6+99vKMCE30PXbyh2FI9IaMujNw4EBdDmuzTAFmBvMzjCnK6IH65syZY/GY0Jng04EESNVlxP8pHWrR8gcNGmTHIU7WRWu3FA05xlQKqrs2HQViosCSJUu8evXq6QlLQhV5TNjFBJiTH+SEXTt5iq+NJ742/uyk++XLl3tNmjTxELVlA+JUbNuBOd16662RxeXcIosrAVwj8UwGNBXHW10mW12ZqaMQ1+bNm+s+wVw/+eSTQjRRZep0jKnKvArXEUeB3CjgNx1HtFZKEAdWywRgGOzoUoGcJ6Tx5fj0VGhJeQ8//HCgnVT6JTnl1+JKANekuhITxo0bp/Fr1apVdEaf2BfzLFaXdgwdOnQwyRV7dYypYl+tG1h1ocDixYu9LbfcUk9cu+22m7dixYqSDl1Mq+0kiqgvCtgtNW3a1OvYsWMUSmS638ounX6pfv36tj8jR460dcKkunbtap/NTa9evTQ+ejM/wHQ7deqkLfaKvQCQyOF2DNOmTfN3qyLvHWOqyNfqBlXdKCC+N3biGj16dEmHL4fv2b6waxo2bFhof4zOhB1KtmB2NdQvxz9EFpfjIQJ9wYkXwHAEhmb0Y/4KjAk6jrsAjF5Oi/Xatm3rsbOT2HRenTp1Uhpb+OvL9x5xqREttmvXLt/qyqK8Y0xl8ZpcJx0FUlNAHC49iTKtJ2FxJPXw8Skl+M3H5YTYpK6gC5OAql6rVq2S8jJJ+PHHH+1kTVieMIs8aOIP3YTlnwGJL6dpNWXKFJOkr3790oQJEzxxuNX6L2NYwi4LZkibxTIj9+9A5RiQQH8r9cExpkp9s25c1Y4CRl/DxFlsUVMisc1uiL7wJwccBlD69++v08eMGRNIz+bB75sk0SICRbG8a9asmW7D9AEmZQArvsaNG5tHex0/frwug1k2hhuE/MFq0AC7JawBr7zySpNU0KvfV0vOjypoW1WpcseYqtLbcH1xFMiTAp07d9YTK7un+fPn51lb7sUJLIpzqmEKfvPmhQsXeujC2NnlAxJWSEeLoA2Jru3Nnj3bk2jinoTp0Q6/+HihF2KnBA6iu+nTp3tyJIZ+Ji8RevfurfOwKET/BWPwAztRIw70pxfiHt2h8b9id1lsi8tCjCnTOh1jypRSDs9RoAwowGTGToCJOFsT7LiH17dvX90Pw5yMw63xvRo1alTeTbIzQhyICbVpp2bNmnqnI0do6PrnzZtnGRg44GLgEAZ+0R+MrE2bNlpHhqFGsQE/MPqL2HDWrFnFbr6k7bkgroWOuujqdxQoMgXEx0WJg6gi4KdEOVAy2Ra5B/9vTuK4BQKqSmQHRZDXQw89VK2++upK9Dux9Ut2YUrCGSmustNJOo5dZlklOyo1c+ZM1aBBAyVRzJPalh2JLidMSHEYI2Xor+izdABYsehTBIotBggj0uMgqKyIRZWYiBej2arTRknZomvcUcBRoCAUGDx4sF5tN2rUqKQiIIKymp0Moj2zixoxYkRBxp1PpejB6CvhnYxhA0FSa9eurdMxhjCQSfQIg5vLtWXLlrpNOak4l+JlX8aJ8sr+FboBOAqEU4Agn0y0Xbp0CUcoQioiKMOYuOJTJKfvFqHl7Jvo06eP7mtifDzZYel0InsD+BER2b1Q8MQTT+j2iFJRnfRKfno6xuSnhrt3FKggCixatMhG/U4VsqfQQ27dunWAOWF8UBUBhgTzTIyPh88S6caxFQMJ/goBnNyLbos/ETsWoomyqNMxprJ4Ta6TjgK5UQCDg7p162qFfxzGBrn0YtKkSZYxocivirBs2TLNDGBAEydODHTRhDSCUWBQwY5v7ty5AZw4HhAPshPDeMPszuKotxzrcIypHN+a67OjQBYUwCmTVT+rcLPqz6J4LKiYOzPpyym1sdQXdyVY7tE/DghMdNaFfoRWIg8z8kyOzci2f4js5CRe7SM1fPjwbItXHL6zyqs6diiuJ44CBaOARONWYvqsatSooSRithImVbC2wioWfyAlxgNqwIABYdlVIk3EaEoitCtxoA3tj+w+lURyV8LAQvNzTcQKUOIFKnHuVeJ4XP0s8EII5xhTCFFckqNAJVIAc+mePXtqBiXBSCtxiGU5JjnHSknIIyUHLSoJHFuWY4i7044xxU1RV5+jgKOAo4CjQF4UcIwpL/K5wo4CjgKOAo4CcVPAMaa4KerqcxRwFHAUcBTIiwKOMeVFPlfYUcBRwFHAUSBuCjjGFDdFXX2OAo4CjgKOAnlRwDGmvMjnCjsKOAo4CjgKxE0Bx5jipqirz1HAUcBRwFEgLwo4xpQX+VxhRwFHAUcBR4G4KfA/tmxKS8VGMXcAAAAASUVORK5CYII=;" vertex="1" parent="1">
                    <mxGeometry x="376.17" y="-296" width="122.13" height="33" as="geometry"/>
                </mxCell>
                <mxCell id="995" value="" style="shape=image;verticalLabelPosition=bottom;labelBackgroundColor=default;verticalAlign=top;aspect=fixed;imageAspect=0;image=data:image/png,iVBORw0KGgoAAAANSUhEUgAAAqAAAAEmCAYAAAC9PSKdAAAMP2lDQ1BJQ0MgUHJvZmlsZQAASImVVwdYU8kWnluSkEBoAQSkhN4EESkBpITQAkjvNkISIJQYE4KIvSwquBZURMGGroooWAGxI3YWxd4XCwrKuliwK29SQNd95Xvn++be//5z5j9nzp1bBgCNExyRKBfVBCBPmC+ODQmgJ6ek0kk9AAHagAzcgRWHKxExo6MjALTB89/t3Q3oDe2qo0zrn/3/1bR4fAkXACQa4nSehJsH8QEA8CquSJwPAFHGW0zNF8kwbEBHDBOEeJEMZypwlQynK/AeuU98LAviVgBU1DgccSYA6pchTy/gZkIN9T6InYU8gRAADTrEvnl5k3kQp0FsC31EEMv0Gek/6GT+TTN9SJPDyRzCirnITSVQIBHlcqb9n+X435aXKx2MYQ2bWpY4NFY2Z1i3WzmTw2VYDeJeYXpkFMTaEH8Q8OT+EKOULGlogsIfNeJKWLBmQA9iZx4nMBxiI4iDhbmREUo+PUMQzIYYrhC0UJDPjodYH+JFfElQnNJnk3hyrDIW2pAhZjGV/DmOWB5XFuuBNCeBqdR/ncVnK/Ux9aKs+CSIKRBbFggSIyFWh9hJkhMXrvQZU5TFihz0EUtjZflbQhzLF4YEKPSxggxxcKzSvyRPMjhfbFOWgB2pxPvys+JDFfXBWrkcef5wLthlvpCZMKjDlyRHDM6Fxw8MUswd6+YLE+KUOh9E+QGxirE4RZQbrfTHzfm5ITLeHGJXSUGcciyemA8XpEIfzxDlR8cr8sSLsjlh0Yp88OUgArBAIKADKWzpYDLIBoL23sZeeKXoCQYcIAaZgA8clczgiCR5jxAe40AR+BMiPpAMjQuQ9/JBAeS/DrGKoyPIkPcWyEfkgKcQ54FwkAuvpfJRwqFoieAJZAT/iM6BjQvzzYVN1v/v+UH2O8OETISSkQ5GpGsMehKDiIHEUGIw0Q43xH1xbzwCHv1hc8EZuOfgPL77E54SOgiPCNcJnYTbkwTzxD9lORZ0Qv1gZS3Sf6wFbg013fAA3AeqQ2VcDzcEjrgrjMPE/WBkN8iylHnLqkL/SftvM/jhbij9yM5klDyM7E+2/Xmkur2625CKrNY/1keRa/pQvVlDPT/HZ/1QfR48h//siS3C9mNnsZPYeewI1gjo2HGsCWvDjsrw0Op6Il9dg9Fi5fnkQB3BP+IN3llZJSXOtc49zl8Uffn8Qtk7GrAmi6aJBZlZ+XQm/CLw6Wwh12kE3cXZxQ0A2fdF8fp6EyP/biB6bd+5+X8A4HN8YGDg8Hcu7DgAez3g43/oO2fLgJ8OVQDOHeJKxQUKDpcdCPAtoQGfNANgAiyALZyPC/yKeQN/EATCQBSIBylgIsw+C65zMZgKZoC5oBiUguVgNVgHNoItYAfYDfaBRnAEnARnwEVwGVwHd+Hq6QIvQB94Bz4jCEJCqAgNMUBMESvEAXFBGIgvEoREILFICpKGZCJCRIrMQOYjpUgZsg7ZjNQge5FDyEnkPNKB3EYeIj3Ia+QTiqFqqA5qjFqjI1EGykTD0Xh0ApqJTkGL0AXoUrQCrUZ3oQ3oSfQieh3tRF+g/RjAVDE9zAxzxBgYC4vCUrEMTIzNwkqwcqwaq8Oa4X2+inVivdhHnIjTcDruCFdwKJ6Ac/Ep+Cx8Cb4O34E34K34Vfwh3od/I1AJRgQHgheBTUgmZBKmEooJ5YRthIOE0/BZ6iK8IxKJekQbogd8FlOI2cTpxCXE9cR64gliB/ExsZ9EIhmQHEg+pCgSh5RPKiatJe0iHSddIXWRPqioqpiquKgEq6SqCFXmqZSr7FQ5pnJF5ZnKZ7Im2YrsRY4i88jTyMvIW8nN5EvkLvJnihbFhuJDiadkU+ZSKih1lNOUe5Q3qqqq5qqeqjGqAtU5qhWqe1TPqT5U/aimrWavxlIbryZVW6q2Xe2E2m21N1Qq1ZrqT02l5lOXUmuop6gPqB/UaepO6mx1nvps9Ur1BvUr6i81yBpWGkyNiRpFGuUa+zUuafRqkjWtNVmaHM1ZmpWahzRvavZr0bRGaUVp5Wkt0dqpdV6rW5ukba0dpM3TXqC9RfuU9mMaRrOgsWhc2nzaVtppWpcOUcdGh62TrVOqs1unXadPV1vXVTdRt1C3Uveobqcepmetx9bL1Vumt0/vht6nYcbDmMP4wxYPqxt2Zdh7/eH6/vp8/RL9ev3r+p8M6AZBBjkGKwwaDe4b4ob2hjGGUw03GJ427B2uM9x7OHd4yfB9w+8YoUb2RrFG0422GLUZ9RubGIcYi4zXGp8y7jXRM/E3yTZZZXLMpMeUZuprKjBdZXrc9Dldl86k59Ir6K30PjMjs1Azqdlms3azz+Y25gnm88zrze9bUCwYFhkWqyxaLPosTS3HWs6wrLW8Y0W2YlhlWa2xOmv13trGOsl6oXWjdbeNvg3bpsim1uaeLdXWz3aKbbXtNTuiHcMux2693WV71N7NPsu+0v6SA+rg7iBwWO/QMYIwwnOEcET1iJuOao5MxwLHWseHTnpOEU7znBqdXo60HJk6csXIsyO/Obs55zpvdb47SntU2Kh5o5pHvXaxd+G6VLpcG00dHTx69uim0a9cHVz5rhtcb7nR3Ma6LXRrcfvq7uEudq9z7/Gw9EjzqPK4ydBhRDOWMM55EjwDPGd7HvH86OXule+1z+svb0fvHO+d3t1jbMbwx2wd89jH3Ifjs9mn05fum+a7ybfTz8yP41ft98jfwp/nv83/GdOOmc3cxXwZ4BwgDjgY8J7lxZrJOhGIBYYElgS2B2kHJQStC3oQbB6cGVwb3BfiFjI95EQoITQ8dEXoTbYxm8uuYfeFeYTNDGsNVwuPC18X/ijCPkIc0TwWHRs2duXYe5FWkcLIxigQxY5aGXU/2iZ6SvThGGJMdExlzNPYUbEzYs/G0eImxe2MexcfEL8s/m6CbYI0oSVRI3F8Yk3i+6TApLKkzuSRyTOTL6YYpghSmlJJqYmp21L7xwWNWz2ua7zb+OLxNybYTCiccH6i4cTciUcnaUziTNqfRkhLStuZ9oUTxanm9Kez06vS+7gs7hruC54/bxWvh+/DL+M/y/DJKMvozvTJXJnZk+WXVZ7VK2AJ1gleZYdmb8x+nxOVsz1nIDcptz5PJS8t75BQW5gjbJ1sMrlwcofIQVQs6pziNWX1lD5xuHibBJFMkDTl68Af+TaprfQX6cMC34LKgg9TE6fuL9QqFBa2TbOftnjas6Lgot+m49O501tmmM2YO+PhTObMzbOQWemzWmZbzF4wu2tOyJwdcylzc+b+Ps95Xtm8t/OT5jcvMF4wZ8HjX0J+qS1WLxYX31zovXDjInyRYFH74tGL1y7+VsIruVDqXFpe+mUJd8mFX0f9WvHrwNKMpe3L3JdtWE5cLlx+Y4Xfih1lWmVFZY9Xjl3ZsIq+qmTV29WTVp8vdy3fuIayRrqmsyKiommt5drla7+sy1p3vTKgsr7KqGpx1fv1vPVXNvhvqNtovLF046dNgk23Nodsbqi2ri7fQtxSsOXp1sStZ39j/FazzXBb6bav24XbO3fE7mit8aip2Wm0c1ktWiut7dk1ftfl3YG7m+oc6zbX69WX7gF7pHue703be2Nf+L6W/Yz9dQesDlQdpB0saUAapjX0NWY1djalNHUcCjvU0uzdfPCw0+HtR8yOVB7VPbrsGOXYgmMDx4uO958Qneg9mXnyccuklrunkk9da41pbT8dfvrcmeAzp84yzx4/53PuyHmv84cuMC40XnS/2NDm1nbwd7ffD7a7tzdc8rjUdNnzcnPHmI5jV/yunLwaePXMNfa1i9cjr3fcSLhx6+b4m523eLe6b+fefnWn4M7nu3PuEe6V3Ne8X/7A6EH1H3Z/1He6dx59GPiw7VHco7uPuY9fPJE8+dK14Cn1afkz02c13S7dR3qCey4/H/e864Xoxefe4j+1/qx6afvywF/+f7X1Jfd1vRK/Gni95I3Bm+1vXd+29Ef3P3iX9+7z+5IPBh92fGR8PPsp6dOzz1O/kL5UfLX72vwt/Nu9gbyBARFHzJH/CmCwoRkZALzeDgA1BQAa3J9Rxin2f3JDFHtWOQL/CSv2iHJzB6AO/r/H9MK/m5sA7NkKt19QX2M8ANFUAOI9ATp69FAb3KvJ95UyI8J9wKa4r+l56eDfmGLP+UPeP5+BTNUV/Hz+F+n1fIiernYKAAAAimVYSWZNTQAqAAAACAAEARoABQAAAAEAAAA+ARsABQAAAAEAAABGASgAAwAAAAEAAgAAh2kABAAAAAEAAABOAAAAAAAAAJAAAAABAAAAkAAAAAEAA5KGAAcAAAASAAAAeKACAAQAAAABAAACoKADAAQAAAABAAABJgAAAABBU0NJSQAAAFNjcmVlbnNob3TPQcwRAAAACXBIWXMAABYlAAAWJQFJUiTwAAAB1mlUWHRYTUw6Y29tLmFkb2JlLnhtcAAAAAAAPHg6eG1wbWV0YSB4bWxuczp4PSJhZG9iZTpuczptZXRhLyIgeDp4bXB0az0iWE1QIENvcmUgNi4wLjAiPgogICA8cmRmOlJERiB4bWxuczpyZGY9Imh0dHA6Ly93d3cudzMub3JnLzE5OTkvMDIvMjItcmRmLXN5bnRheC1ucyMiPgogICAgICA8cmRmOkRlc2NyaXB0aW9uIHJkZjphYm91dD0iIgogICAgICAgICAgICB4bWxuczpleGlmPSJodHRwOi8vbnMuYWRvYmUuY29tL2V4aWYvMS4wLyI+CiAgICAgICAgIDxleGlmOlBpeGVsWURpbWVuc2lvbj4yOTQ8L2V4aWY6UGl4ZWxZRGltZW5zaW9uPgogICAgICAgICA8ZXhpZjpQaXhlbFhEaW1lbnNpb24+NjcyPC9leGlmOlBpeGVsWERpbWVuc2lvbj4KICAgICAgICAgPGV4aWY6VXNlckNvbW1lbnQ+U2NyZWVuc2hvdDwvZXhpZjpVc2VyQ29tbWVudD4KICAgICAgPC9yZGY6RGVzY3JpcHRpb24+CiAgIDwvcmRmOlJERj4KPC94OnhtcG1ldGE+CiNZ7OMAAAAcaURPVAAAAAIAAAAAAAAAkwAAACgAAACTAAAAkwAAQjfaBhW3AABAAElEQVR4AeydCdxtU/nHF67LRaM0SyoiqdBEw400ClEJSWXIUFQklRCuylURKrkR3QxFg1KkdJWEzKXZ0KhUaO5Ktf/Pd/09u7X3u/c++5z3nPO+55zf+nze9+xhrbXX/u59zn72s55hmcxKUBEBERABERABERABERCBIRFYRgLokEjrMCIgAiIgAiIgAiIgApGABFDdCCIgAiIgAiIgAiIgAkMlIAF0qLh1MBEQAREQAREQAREQAQmgugdEQAREQAREQAREQASGSkAC6FBx62AiIAIiIAIiIAIiIAISQHUPiIAIiIAIiIAIiIAIDJWABNCh4tbBREAEREAEREAEREAEJIDqHhABERABERABERABERgqAQmgQ8Wtg4mACIiACIiACIiACEgA1T0gAiIgAiIgAiIgAiIwVAISQIeKWwcTAREQAREQAREQARGQAKp7QAREQAREQAREQAREYKgEJIAOFbcOJgIiIAIiIAIiIAIiIAFU94AIiIAIiIAIiIAIiMBQCUgAHSpuHUwEREAEREAEREAEREACqO4BERABERABERABERCBoRKQADpU3DqYCIiACIiACIiACIiABFDdAyIgAiIgAiIgAiIgAkMlIAF0qLh1MBEQAREQAREQAREQAQmgugdEQAREQAREQAREQASGSkAC6FBx62AiIAIiIAIiIAIiIAISQHUPiMCQCfzzn/8MS5cuDSuttFJYYYUVhnx0HU4EREAEREAEZp6ABNCZvwYawQQQuO6668L5558fLr744nDVVVeFu+++O8ydOzfMnz8/vPSlLw077rhjWG655SaAhE5RBERABERABEKQAKq7QAQGSOBPf/pTOOigg8LixYvDZpttFrbccssodD7sYQ8L3/ve98KCBQvCN7/5zbD55puH0047LdzrXvca4GjUtQiIgAiIgAjMDgISQGfHddAoxpDAueeeG/bbb7/w97//PSxcuDDsvPPOU87yX//6V3j+858frrnmmrDhhhuGb3zjG2HZZZedUk8bREAEREAERGCcCEgAHaerqXOZNQTQZu67777RzvOiiy4Kj3vc42rH9qtf/SpssMEGAWH0Yx/7WNhhhx1q62qHCIiACIiACIwDAQmg43AVdQ6zisB5550XXvWqV4Usy8Ipp5wSXv7yl3cc38Ybbxx+8IMfhEc96lEBe1EVERABERABERhnAhJA77m6CAsIAHfccUecAn3oQx8ahYFxvvg6t/4TwObzyU9+cvj9738fXvOa14Tjjz++1UF22WWXcM4558S6t956a1hllVVatVMlERABERABERhFAhMtgP7iF78IS5YsiU4gOIL88Y9/LFzDddddN2y99dZhm222CSyrhPDVr3413HLLLTF80Jw5c6Kwjs0iAvx///vf+Pef//wnLLPMMuEVr3hFWHnllXNsCPjf/va3o6PN8ssvP6UtnuF/+ctfokd46ozzwx/+MF4jvMZXXHHFeGyOyXH+/e9/x7+77ror9ocg54Wp7QsuuCDWnzdvXn48xultOSZjxBOd80nL5z73ufDnP/85tsND3W0zac/xHvnIR4bnPve5aZOw1157hdNPPz329f3vfz/gbNSmvPvd7w4f/OAHY9Vvfetb4UlPelKbZqojAiIgAiIgAiNJYCIF0DvvvDO8613vip7JXDW0nS972cuind4DH/jA8Mtf/jJcdtll4bOf/WwUVBA8jjjiiLDPPvuM5EXu56Af/vCHRyGxU58IoHC8z33uk1dNtXz5xtIC7RBUOY4XnHe+8IUv+Grt50Me8pDwk5/8JN9/6KGHhmOOOSZfr1tAsP3Nb35TiMn5j3/8I9AfgnVd2WqrrcKnPvWpfPell14aXvSiF8V1pt2Zfm9bDjzwwPDRj340Vv/yl78cnvWsZ7VtqnoiIAIiIAIiMHIEJk4APfvss8Pb3/728Ic//CHc+973Dh/4wAeijV5VDEaEGQRTBCnKq1/96ijQILBMaiGW5d/+9rdw++23R+0iXttpefzjHx+23Xbb8LSnPW2KEEXYIQTJY489Nmotvd0666wTNtpoo/gCwPLznvc83xU/r7766qh1ZXr7ve99b7x2XuGJT3xieMlLXhIe8YhHhLXWWitOf/s+NNzXXnttNKs47rjjws033+y7Yn3sNL3dU5/61HyfL3CuaCM/+clPhr/+9a9xM9rSF7zgBXG8CJuPecxjvHp485vfnAudX/va1yKDfGeHhS222CJccsklsdbPfvaz8KAHPahDC+0WAREQAREQgREmYBqeiSim4cpsmjWzqd34Z6FvMhMsO567hcfJHvCAB+Tt9t9//45tJqWCTUNnJoDlbGB7xhlndDz9JzzhCbGNCY/Z5z//+Y710wp77LFH4XhmQpHurl22Ke5CO/NSr61b3mFaztjWzDAym1Yv787X2Q+DBz/4wZlN8efbOy3YlH5m2tbY1jS/nap3tf+3v/1tdsghh2SmDc5MiO6qLZXtZaPrNmogAt0SsBfZ+Pt82GGHZZYprNvmjfXNtCV+B6688srGetopAiIwXAJMMY59MVvAbP31188FENOAZmY72Pq8Fy1alLe9//3vn910002t2457RTNNyNkgfFlA9cZTfv/73x/rm11tTw+ad77znYXjmUa18Xi+08IbFdp9+MMf9l0dP3npWG211TLToNbWNbOBvP8Xv/jFtfWqdqRteTHqZ9l9993juF73ute16tbMCDIzlchMg50LxZy7hYnKzKY3g7fZzbbqS5VEoA0BXmQf/ehH598fXvj6WT7ykY/Evs05UPduP8GqLxGYJoGxF0DLwqc5FXWlnXK+Ziea/0CaTaJvnvhP+JqdZ84GIfSGG26o5PKZz3wmM7OHzBx3MrOxrKzTaaMLsByHv0984hOdmsT9aDy9DZ9HHnlkq3Y2HZ7d7373yxC0m4o5HuX9H3zwwU1Vp+yjvo/NPOGn7O91w+WXXx55m11zxnVqKtdff322ySab5OPw8VR9mplE9sUvfrGpO+0bUwJoJ5kV4s+cEftylvS5xhpr5Pee2U73pV/vhBcmhE/u5RNOOME361MERGCGCYy1AMoPzzOf+cz8h+2xj31sZrafPSG3NIp5P/yQMaWv8v8EzOGmwKbKTIEpNrTHT3nKUzILddUzOh5OqVBkTkYd+2KK25x6Cu3e+ta3dmxHhe233z5be+21M8tm1Fj/rLPOyvtHY962WPD5XPtjsUAzxtqPggmAn3PV9UiPYU5Pmdmc5uOHLxrQ1772tRkaZ7SovDSkLxq8SDC1qTJZBMwuPr9PuD/6Vb70pS9lm266aca92um71ssxP/3pT8dxW1SKzEKk9dKF2oiACPSZwFgLoOZglP9YosX6zne+0zO+N77xjXlfPKDb2h72fMARaogAkwqF/MinGk5zBIp2kWjOOmniOp02NqPpsbBv7FTchjNtt+uuu3ZqlllornisM888s2NdNELevzk8dazvFVLNrAWw983T/kz7veKKK2r74zuRCpaYANR9T37605/G6Xk/Tz5PPPHE2r61Y/wIDEoAHTQphFpmArhn+S1XEQERmHkCYyuAMnWK7Zo/LNHiTKdgM+h98fnxj398Ot2NVVvsadEup3xcaMNu0rL7ZOZtnv3oRz+a9nlffPHFheNYaKzGPnGiMe/4zFJhFtpZdIPGdmgQn/GMZ2TPec5zWmklEbjRCsLgTW96U6Fv+vr5z39e2MYKDkI4HdGm03lMadxhA7a49LveeuvV1mTqE9tOv24WOD/DHq9TOeqoo/I2OFy1cebr1Kf2jwaBURVAoYvGlnsdbX+/HZ1G4+pplCIwuwiMpQDKNKaFyskfkvzoWHrDaZFfvHhxoT8cmVT+R6DsjGQhiuJUFx7vaB6wR+xHsVBOhetgobEauz388MOjDWdZcMWkoqlY6KV4nCbtYbm9m2mkfdMeIZBoAUxr+33I1LuFq4rHYJq/G6e48nHL65iZuFYT7/e6snDhwpzl05/+9K4cNNAgu+C600471R1iYNsR6hHg+zFdy8sDmvnZ5Fy1dOnSzJIgdOTH+bepV9cRL2jdtO+HAMq1g3c6S1I3vn5uZ4bB71lLqNHPrtWXCIhADwTGUgDFMcV/aPh84Qtf2AOaYhOmGtM+99xzz2KFCV+zmJu5BtA5YfiP6YPF0+wbHR5c3j+fFgO0tm/qogU/4IADMh7oaTs0f3WFhzICY1vPce+HEE3YuXKcr3zlK5klPIja3wsvvDBWsZiisU+EBg8Jxvj7/SBOHaK+/vWv+/CmfLpjBuPF+72b8rvf/S73kl911VUzy2BVaI6N9IYbbhj/3vOe9xT2lVcsvmte1xJElHfn6wjthPl69rOfXQiNZhmpsn333TdDOKor/Cb4eK666qqMvt73vvfF3wbGDwPseLn2COPUxWGxU0GYwnaR+rz0dmPDWx4TbZlpsQQH+XQxLy8W+zaO18fC/cMLn8Xcjd85NO/YVu+9997ZLS0cgyzBRrbddtvl7Tl3ooTwIlFnv7zDDjvEc+SY1OeP0GHOlM9UqONF0fcRgYICX162XOv/hje8wU8pe8c73pHXT8OFcY28n06Og5aFLK9rGdfyvn2B76OP3WL2+mZ9ioAIzBCBsRRAXRPlPzYYuE+3lG1Acc5QKRLgge3M/RPNcT8LD1/vm0+myesKAiTetTx4KG4DRjuElrpCLMI2nuNV7d1Ln5igOEghnKQFjTCOcUwDWuajniIypP1VLSNIOCNLL1tVJZpDeB2El15KqgUlwkFaeCHx/ssmCWk9lhmj162zzaUOjlBer+oT4d9NP8rHSO3BeRHA2aXcBwISBSHJ93UyG0HQ8bq86HRTymNCUPe+yp/Y5qKhRbD3eLPlOqxjasKLV1WBIRE8qtql24i1W9YGt4mQYEk+8sN+97vfzY/DeVla23zdj5UKoD49zj5eSLygnfXzve9975thT15ViMrg/Ta9OHoMYuzRVURABGaWQE+ZkMgmRJpB0yTEEPymSQmkWST390wXMvRYTLmYk5yxmAYuZtHxPN69js+EhkAmHy82tRsz3/h6t58WqiiYFqbbZq3rc77DzidOliPSZnqxB0a48cYbQ78zR1ligJwdKTvJFV8u9gAMZgcZTCAMr3/96+Nus1MNNm0bl8l8Zd74MWd92vbXv/51MI1LMI1aTNea7mu7TBYkE7oCfa2wwgrBbCuDPfyDmSGEW2+9NY7rQx/6UFh99dXzLs0zN5jQm6/3umBatJjG1DR5sX/SmlYVi40YM4Kxb7/99gvkou+2mFARTHCIzXbcccdgswR5F2QPIysWhd8Gsl/VFb6za665Ztxtmrlg9tWFqmavF+bPnx9+/OMfx+2kzjVhNJgmNJDtypzFYupcM2OI++2lJ9jLUKEP89jPz9Fi0AZzZouZ0Ez4jtmz+L6Q4Yprby+sgSxZFNPMxb9CZ8mKRVMIJ510UtxC1qxuvnPpmMiyRlpXe6EKFkc2ZsKywOkxXbC9dMX+ybRFule224tNZMA9ZGYdgd9k7jcK3M2RLC6n/7hGNg0dN/EbaS/q8dznzZsXyL518sknx/uTCuXrwHeb78ttt90Ws5FRx2YR4r3NMoUx+XVkjFwjCpnNGDfXBz5kHeN3mbqkrKWY0BhTH7NsAnQhhS/Xl7S39qgMZD5bsmRJmDNnDlVjIUsZ15HvFulzzewl8NtTVdLj8H00gb2qmraJgAgMg0C38m85ELi/dfI5G7SCHm7Dx0XA8+kWDNaZSvY++cSmsNdiQlmhr7Tffi4T+miYBQcWnFLSc0Dz0e+SBq3meOXCVCaaR3vQFWwrWU/HVmX7hiYGpyWmYqdTmFZH04bpBvbCJoDFIO6EdCqHL2LquElr0804Um1ik23mQQcdlLPoNaZnquVk2jgt6b7pakCJdODXDS1olQNJanaA+UT52qbaRvrCRrlsNuDj5z5Gc069Ju0w0+/cK9Tj3uq2lMd04IEHTukCc4E0BjHHWrBgwZR6OLlxb7GfP+6DtKDJdSc5zqnMh7pMfZOdjPbMAGCmUC5tbUBTDSj94aRoL4rl7vJ1vnc+9lQD6hVg4/vLoddSbXaTyQl92Ytf3k8/TYN8nPoUARFoT6CrKXim2fxHoO6zPBXXfij9qUkWl3RsneyG2hy1/GOKzdh07fawC8QWq9s/BDpCEZGRhr9zzz03BgXHzIA/DO0Ji8SPaz8dW9pwQrBK2bNcFkza9NOpTmq7yDHKntv+EnLRRRcVumIaMx1f2TOd8EPs73cmlnQQCM/Y0bmdm+W5jwHgy2NN23SzjKDh59j0Qrjbbrvl9Xp1EOM74MfCwSot/RJAERLdRhM7xaY4vqbFzcdTjlKRCnsIi1VCbDr+VKipm4bHbtbPvywUpX3VLadjwmyozn40vVZNmcbS83e7Yz829snc1/zVTdFTN80YVnVf9CKAMnXO/dBUOgmgXC8EZ3gjHHtWMtJrusNdG7vO1BQAR0MVERCBmSPQlQCKM4//4NZ99sPhp1cc/IC75sLHlxrG99ovnsTeH5+dQvj0epxRboftHRoWNI/+QIAV28qC3nTP06b0CtfDpgXzLhGKsBkjbWS54HiRXsfUnox7h8Dt2Gei2RpUcRs0MyPIbdtserlvh0Pr6ud49NFH1/ab2usSsqzXgjDA8Qi1lZZ+CaD+MsExms6HY9sUdH7u5RefVNhrigzg54Dm0TnWOVGRzIA63O+9JKZIx1R3DMZjU/z5WKq0nz5mXmZ9zGj6einMmngfVVmDehFA06gQdWPqJIDSjggS7uS35ZZbRg0tDmOMF80t9uGdShoNA/4qIiACM0egKwGUh6b/ONV9UmemClql8rjKU1Hdjg1jfKb00n77IdR2O47ZXN9sHuODAeENjRUCesoLp55+lrIgabaBefd4zfKQImh6ueBckY4rNVHwKdwq79lyP9NZZ6o9HQMCXD+PmQohZS1gOm6zcczHQRrOXgoadn/ZQDuZln4JoKnzH/dZp0K8WfjymZZU2Gv7/d1oo41iX1XT8Lyk+JR3WdhNj9u0nI6prLFM2/m9yXmljj5pHZYvueSS/JqWzTzKdevW0xeYKgGtFwG0KbKBj6ONAErdNAYtL7swQcPaNlwa97p///C8VxEBEZg5AmMlgJY9pKvsA7tFncaO44eLh9IgNWTdjm+m66MpwqMbzZ6nuCtnRkKAL3vVTmfcZUHSM/eYE0IcS5UtHcdL7ci4lghrFO4bhIkmm8lYsQ//mGr3oPho69s+ONseOp1C9fOravuWt7wlfxD3Ov2P5tkf5thmpqVfAmia5pVrhDd205+Ph8/UhjEV9hCy2pS0TXka3s01OI57z7fpM62T9t80JqbN/byaBNBOwiPH5qWB6XhCQOGFThgwNP98f4kM4cfhs18CaJN213m0FUAZfznKCaYHbQvmB36OmDaoiIAIzByBrgTQ2T4FD8ZUW0lKyOmW9AHID1eqNZtu36PeHi0jDy3sGm9J4g/ykChnRsJWtV+lLEgi8FKIzYrmy8MulY+HdtQfPny6hpBpTTT36TmU2/ZzHWEcISAVkPrVfxqvFlvhukJsSWfhHOrq1m1HePY+zMO6UK1fAiiZqPwY3X76CxEDayvspSfBlL5reMtCFCGXGA8vub3ag7cdU78EUGYK0sxXnXjORgGU65Ped3xvqxyq0uuYLqdmGvgLqIiACMwcga4E0FFwQmI6LP1hdWePXhCjGUr76penci9jmW1tPB4hwag9u086RoS6lB2B1/tVyoIkD2jGgLCAAFZXUu0gYyNmJ2kkmQZvM01Y1+9s2n7OOefk3C1UWu3QUi31K1/5ytp6TTvIMuXXGIE2Lf0SQNPvs4UJitpGNI51fwSqx26Uv9TRqK2wl54Dy378dBoee2Gffp9OQoq2Y+qHAMqLM99Vv17YHVv4regVftppp0WHRuwjjz/++LzObBVAU/MRzqduxqN8LVnnxc8ZdNOuqi9tEwERmB6BrgRQDjXbwzCVtWOpo0k3qAjD41Ol/GBh3zgdYTY9NlO+vH1jyzjIP7KRDKKgYcSTGO/kJUuWVB6CqS7XHsGPZYSSfpSyIInDBWF1MI9omuovv0AhdKK5s3iEtSF5+jHeYfZhMRPzB2yVAOFjQTjzkFkI4HUhiYimAF/+UnMBhLA0GoHFG/Wu42cqgJKhp6mgeXahoByIPvUAv+yyy5q6adzXVtgrd4Kg62Pzafh0+h3evZa2Y+qHAOpOZ9hLNoXd6uSk04sNaFl7XMWr7RR8ej08rBqOjti/timpmQIvoCoiIAIzR6BrAZSh8iBnOp7pD/5YnunwS46Qt3l/YPBZtpniwcmUIxl0eADjUV2lwUM74P3gYJF6Wvuxev0kh/XGG28cp8OYEhvEH8JYWSjodbxpO6YbsffjRx9tW1MZlDMS19SvDZ+EAOLzggsuaBpOhhNL2s6CYsd1NGvjUoi16OdIrM+mkmbFIVZpVaE/93TH3AI7W0r6PeP+LRde4PwFpFMsXmI3+pjLAuhxxx2X7yNzVK+lrbBX7p+XRRfUXZDy6XeiLfB70mtpO6bpCqB8Z0lJC2NMipqKZ/KiLuMrl5kUQJk+9zSeaO15EfaYwIQ2axO7l9B1fq9xD6uIgAjMHIGeBNCZG27nI/PA4MfIf2R4s06LZaWJ+4inxwOahwiBnslt7cWyxORBmwkvc9NNN/muif7EZnHbbbeN/MhZ3amUHbh4WPTD7rEsSHKt23gip6F1/P5AeMVmdVxKGoi+k8kIL16eYIHPOm98XticF04rbvvr25juripub8h3rIkx8Ru9r7IAmmpSmTbuZG+J3StasnKQ8bbCXtV5MM3O+JiGR+B0++bpRndoO6bpCqDEzHS+lhWs6hTzbWmIsyoBNE2i0fRikcZOdsE9P0jFQicNKNzdHIIXAo9lmr6MWvayip6Lm/htdxble6RYU2siIAKDJjB2AijAmEZCQ+c/NO44hOcn29Lc8DwY0XD6wyQN5oxDS69T+IO+cMPuH0GA2Hvw22effVodvsoZqayRbtVRqVJZkGRasY22N30Ql++N0iFGdpUIDa6xRMPbqRx88MH594R2ddOzZbs758cLSV1JhYq6HO1MnXL9vL+yAErfaditHXbYoTYKRaq9wz41LW2FvbSNL6dmDf4bwnirQn15mzafbcc0XQGUsfASwJjJgV7lpMd9UzZfqhJAeQHw31ZezlM72/Sc+y2AprFQESLT4uYFnF+nTEi77757fq8NykQpHZuWRUAE6gmMpQDK6ZL+zx9qPIix32RKmMDF5UJAabxt0/A+lpu5r9Pu5WOOwjraSoz2iSlIqCXnycOgTeFhhfORt+PT8nfXPrTa9EkdNNJpn20yoNCOFH9pu6pg9dQb9cL0JOeJoNDJQ5hrtMUWWxS4YGKBwHjNNdfEmQEP25OyYxkzj6YA7GkQeTSsvNwhcCK4oX3ie8c0PcfzvqsEUI5BRAuvw3cVrRoaWzJJMVbLn57vR9gqZ0xqK+xVXXu0b6k9OOMgBuV0S9sx9UMA5aXR+XHdcOTj5Zpri4bbtYtpiKMqAZRzTmeYsAMmNifmL66VpE4/BVC+7/5Sxe9HWZt+i9kQ+36001WpPBkTxe2WmY2ZjvnE//em/yIgAtMhMLYCKPZAOD+kP7poNLH9TAt2RangiXdrqiFN607KMradOF15CkRnmH5iw1qX4QhnFdr79G7ajmWEWR6CTPctWrSoa6y33357fl0RTMrCRl2HPHB8TASrn04GoLpjzIbtp556as6H2YBOhReNvfbaK29Tvl51622cysrREMp9rbfeejGtom+vEkAZP8Kwe5573apPhE9P05ied1thL22TLh9xxBEFPm1fwtI+ysttx9QPAZTvTDkVbZkfGutU21sngKYvFmkf6exGvwRQhE1/QUFTXmWvD9eUZV18z9QuuZNjXPlaaV0ERKD/BMZWAHVUPIBJ05b+UPKQwpYNzahPJ7EfrWmdxogp3iYPaz/eOHySBxvhE9vY1VdfPaY3RXjHAYBQLgiQOKSkcRbT88ZLHY0EtloIiLSjPX/0xzb28ceUZreFh5JfN5xUuilrrbVWvBfGOQsK9szOp439nfNj+hInFXceSr8zVctl+2rvp/y5cOHC+EKSTrVzDIQAxprardYJoPRJXSIXlNPtMjaE02OPPbY2HWMqoDQFfS+P3dd5WXEGfDfuuOMO39XzZ9sx9UMAZZBLly6NoZfchtXPhygQfGd5EUm9xOsEUPoipzovmTihej+pU2K/BNCUERFY6gpjd2dExlNlSpI6u026kqGOo7aLwDAJLMPBwpgXs1MKNl0XzKM3mCAZLCBzWGWVVYIJUcEeZsEM64O91Qfzhg42LTuFhr05B5u6CWYzFObOnTtlvzYMn8D2228fTMgN9oAKyy+/fOsB2FRkMIEnmAYr2IOqdbtRq2hTxMGmp4MJG+HKK6/savg2KxDM2zlYjNRgQl8wgSvYy0Owactgdn/BpuyDhSKKfZozWjBzlVb923R/sFSIwYTP2M+KK67Yql25kr2ABJuWDzblG+bNmxfHZcJtuVpf1837P9iLKy/swWyhg6XH7Gv/w+7MInHE3z2uq70UhmWXXbanIcCD79OcOXOCzS701MewGtkLTzBhPnDf2exNWGmllYZ1aB1HBESggsBECKAV513YdPTRRwebYgvmUBFs+rKwjxXzrgxmuB8WL148ZZ82iMBsJICAbTaWcWiXXnppMEe7vg0TAdVMWeJ3goe42XUG0yz3rf/Z2JHZQQezYY1DsxSnwcxHZuMwNaYaAnfddVd8UbF4t8G0/MGSNNTU1GYREIFhEZAAaqTNAz5q0pZbbrmoGUPDwVuy2ZKFQw45JNh0TrBUkgGtkooIjAIBtIRmpxs1meakFcwrvK/DNtOWYFOasU+z4wzmnd7X/mdTZ2iBbbo5mMlJFGLMHjUss8wys2mIGksHAjblHiySQ9SYMzNgZkEdWmi3CIjAoAlIADXC5igRzE4tZ73yyisH/njgUMxWNJhxvh46OSEtjAIBy1IVLERNnPI2j+dg9nqjMOxZMUZMBTDZQXtsaUuDOfHEcVmqz2D247NijBpEOwKYCVjkhMB3wOxIgyVdaNdQtURABAZKQAKo4U2nK8u00XRceOGFwQzcy7u0LgKzngCaSQQoC0ofLJ3mrB/vbBkgL6S8mHphdsRCFwWLmOGb9DkiBLD7xP4Te1eLIRxnt0Zk6BqmCIw1AQmgdnlvuOGGsMkmm1ReaGxDzTu+cp82isBsJ4CzhcVpjE4mfOJ8p9KZAA6JFtg+TtXifITdoMWg7NxQNWYdAWx3LZVysIQGMqOadVdHA5pkAhJA77n6u+yyS7AwIvm9gA0odnOWhi/fpgUREAEREAEREAEREIHpE5AAeg9DC1IeLMd4DNFEqBnLmBRWW2216RNWDyIgAiIgAiIgAiIgAgUCEkALOLQiAiIgAiIgAiIgAiIwaAISQAdNWP2LgAiIgAiIgAiIgAgUCEgALeDQigiIgAiIgAiIgAiIwKAJSAAdNGH1LwIiIAIiIAIiIAIiUCAgAbSAQysiIAIiIAIiIAIiIAKDJiABdNCE1b8IiIAIiIAIiIAIiECBgATQAg6tiIAIiIAIiIAIiIAIDJqABNBBE1b/IiACIiACIiACIiACBQISQAs4tCICIiACIiACIiACIjBoAhJAB01Y/YuACIiACIiACIiACBQISAAt4NCKCIiACIiACIiACIjAoAlIAB00YfUvAiIgAiIgAiIgAiJQICABtIBDKyIgAiIgAiIgAiIgAoMmIAF00ITVvwiIgAiIgAiIgAiIQIGABNACDq2IgAiIgAiIgAiIgAgMmoAE0EETVv8iIAIiIAIiIAIiIAIFAhJACzi0IgIiIAIiIAIiIAIiMGgCEkAHTVj9i4AIiIAIiIAIiIAIFAhIAC3g0IoIiIAIiIAIiIAIiMCgCUgAHTRh9S8CIiACIiACIiACIlAgIAG0gEMrIiACIiACIiACIiACgyYgAXTQhNW/CIiACIiACIiACIhAgYAE0AIOrYiACIiACIiACIiACAyagATQQRNW/yIgAiIgAiIgAiIgAgUCEkALOLQiAiIgAiIgAiIgAiIwaAISQAdNWP2LgAiIgAiIgAiIgAgUCEgALeDQigiIgAiIgAiIgAiIwKAJSAAdNGH1LwIiIAIiIAIiIAIiUCAgAbSAQysiIAIiIAIiIAIiIAKDJiABdNCE1b8IiIAIiIAIiIAIiECBgATQAg6tiIAIiIAIiIAIiIAIDJqABNBBE1b/InAPge9///vhvPPOC3Pnzg3LLbdcWGaZZeKe//73v4G/xzzmMWHrrbcu8Fq0aFH429/+FpZffvkwZ86ckGVZWLp0adh2223DGmusUairFREQAREQAREYFQISQEflSmmcI0/gM5/5TDj99NPDnXfeGa677rp4Pssuu2xYb731wv3ud7/wkpe8JOy55575ed51111h/vz54Yc//GG+bd68eWHDDTcMCKYPf/jD8+1aEAEREAEREIFRIiABdJSulsY6FgR+9atfRaGTk3nFK14RTj755Nrzuvzyy8Pzn//8sMEGG4TDDjssPOtZz4ra09oG2iECIiACIiACI0BAAugIXCQNcbwInHPOOWGXXXaJJ/XhD384vPrVr648wQsvvDDsvffe4cADDwy77bZbPmVfWVkbRUAEREAERGCECEgAHaGLpaGOB4G3vvWt4aSTToong11o2ZYTO8+jjjoqLF68OHzyk58MG2200XicuM5CBERABERABO4hIAFUt4IIDJnA05/+9GjXufrqq4cf/OAHhaP/5S9/idpO7D9POeWUsOqqqxb2a0UEREAEREAExoHARAigt956azj33HOjF3HqgYwDCNom90L+z3/+E+tstdVW4T73uc+U63vzzTeHb37zm7GOeyXjzUwf//73v8M//vGP8NznPjcgWExS+epXvxpuueWWsMIKK0Q2cK1ii9c3No8rr7xyjgcB7Nvf/na4173uFT29y23vvvvugFC24447xjreEMccrgXXc8UVV4zHpi3XkGvBH0Ic23y6m7bYX15wwQWxPg49fjzuAW/LMRnjS1/60ng+fkw+P/e5z4U///nPsR3XnvYU2nO8Rz7ykfEeiBsr/t1xxx1hzTXXjPfMq171qvDRj340rwWLnXbaKXrCH3zwwbL1zMloQQREQAREYNwITIQAumDBgrBw4cLW1+6SSy4JT3ziE6fUR2D40pe+NGV7uoEwO89+9rPTTWO/jDc2QmKnggD6y1/+siDcIxxiE9lUaIdwlnp977zzzuELX/hCU7O47yEPeUj4yU9+ktc79NBDwzHHHJOv1y0g2P7mN7+JgqrX4QWD/njhqCu8vHzqU5+q2x3vH+4jCtPw22+/fVw+++yzwxvf+MZwwgknRCE9btQ/ERABERABERhTAhMhgP7617+OYW/++c9/BjRQb3vb23IhAuHm9a9/ffRKXmWVVaJw9LznPa/ycqMBPfLIIwPCghc0ZU95ylPCk5/85PDUpz41ar/Qjk5SOf/882Osyttvvz1qF7/xjW8UTv/xj398jFv5tKc9LXpxpzu/973vRUHy2GOPjVpL37fOOutE28fHPe5xgeXyNbn66quj1vVPf/pTeO973xv+8Ic/eNP48kBIo0c84hFhrbXWitfGd/7iF78I1157bbwPjjvuuMA19UJ9hENvx/UsF871W9/6VrTN/Otf/xp3cw+84AUviON90YteFON5ltv5OvfeiSeeGFd/9KMfhQc+8IHhoIMOyrc1OSV5H/oUAREQAREQgZEnYNqciSo2BZvZdG/+Z0JRV+d/+OGHx7YPeMADsne9612ZCUBdtR/3yjYNnVlA9ZwvrM8444yOp/2EJzwhtjHNc/b5z3++Y/20wh577FE43pIlS9Ldtcvvfve7C+1OO+202rrlHabljG3XXXfdzByJyrtr1zfeeOP8PH/7299mFmIpe/nLX57d+973jtuf+cxn1rYd1I4zzzwzO+SQQ7IvfvGLgzqE+h1BAvaCldnLUfayl70sMzOZvp6BvQTGe+7oo4/ua7/qTAREYHQIoAmcqPLZz362IHSYR3Kr8zf7wMym8qOgYLaBmU0lt2o3iZWOOOKIAuPNN9+8EcP73//+WH+bbbbJTEvdWLdq5zvf+c7C8WxqvqralG0f+9jHCu1M+zilTt2G/fffP1tttdUy06DWVZmy3TTEuaD5jGc8I0N4/chHPhLrce7+YnTllVdOaTuoDWaekN3//vfP7nvf+2ZmV1s4zDXXXJPBlr9LL720sK9uxQLt520+9KEPZWYbW1dV22c5Ae5NvyfXX3/9jN/AfpW///3v2WMf+9jYvyVo6Fe36kcERGCECEycAHrAAQfkP6r8uJpNZ8fLhZYTLYA5JmXvec97+vpD3PHgI1gBLTOs/OHF5w033FB5Jjx80P6Z81ZmNpaVdTptdAHWj/eJT3yiU5O4H42nt+HTzCtatfvZz36WWeaiDEG7m2KOcPnxzDQg+853vpM3N8eofJ+ZhOTbB73AyxTnjkBdLq7lZX8b4dxCRuXn8LCHPSwz84pyl1ofEAFzAsx4YeCvl5e4qmGZWUx+PXlZMse+qmo9b/v0pz8d+1977bUzSzfbcz9qKAIiMJoEJk4ARfPkQgdCktmENl45pleZHjbP9swCgzfW1c7/EWBa2TnXCThmKxq1b2ZD2/E6/K/nqUsWrqhwLHMymlqptAXNnGUVKrRrqw03x6GMhyZanG4KQp4zMVvUQlO0S2iZ2I9mFW3poIs5zMXjof287bbbphyuGwHUbGOjFpXxm11rQbie0rE29J3Aa1/72vzeQqvdj8KL9z777JOZ/XX29a9/vR9dFvrgO/ikJz0pjtucAwv7tCICIjD+BCZKAOUHNdXMdbK34w2dhyn1fv7zn4//3dDHM/zyl7+cPxARStCIpRpObMAe/OAHZ+ZglKExnU7BZtQFOz6xZ+xUUuHK2+66666dmmUW+ikeC7vJbos5NcW2CNxVhSlrH8sHP/jBqip92/avf/0rF3i33nrryn5TRk0a0CuuuCJ+Txg7mmELy1XZnzYOjsAgBNDBjfZ/PTPrwH1j8W4ztLgqIiACk0NgogRQtDT+gOfzHe94R+WV5uHsU/V77rln36a0Kg82phuZrnMbL2fuQht2k4961KMy8zbPzBN82gQuvvjiwnVFa9NUmO5jCtw87AvtMLNoKmgp0aA/5znP6dq28fe//31+rLe85S2Vh0EbzwsPvAYx5ZkeFO2zXxcEzarSRgD98Y9/HK8jfWFKIXu+KpKD3zaqAijaWr8P3/e+9w0elI4gAiIwawhMlACKR6f/2PGJQFou7pnMG/nHP/7x8m6td0Gg7IxkIYoyBDFMGhC0Lr/88i56q6+KrWF6XS23en1l20MkAzR1ZcF1s802a2znNo5o/LotFus0HyPLdYUXHj+Xts5UdX01bcfcgOMQzcFiuFZW7SSAWpzUKCj7eHHq6rbwMsB3rp8OLt2OoZv6Fu6r41iZWsakoVcHLNr97ne/63icdNz9EEB5AeK4vY47HU83y24WNX/+/G6aqa4IiMCIE5goAdQCxOcPd+zeyg9enELQjFk2m2yYnsgjfg/VDh87Rw8v5EKKxUuNwl+V8F/bUYcd5dBaFgO0tgV1sbFEw7106dL8fmB8G2ywQW07BCXCS73uda+rrdO0w4LM58fiIV9Xvvvd7+b1CNE0qLLeeuvF4zQJ3U0CKOYshDDz64pzXtuCE9eb3vSmqAX39rzw8f3kmITyKhe+mxtuuGH8a+P8hWbN69fNdJSP4euEyqLt7rvvHjfhQMd4PVQYL09bbLHFFCcrXqi49yxZQeSC2QnmDYsWLfKuaz95McNGeNNNN42mKXDBRAX7S7bDrFyWWLgxP0c/Ju0s7m6+fdttty004z70NuywGMmZxabNOGf/rrKNgtmR18XRz4tlloszAeyztLIZLyJ1BVObjTbaKPaDkFwl3HJ8xs3xm74bdcfQdhEQgdEkMDECKMImQqc/8JhGTYulRIwOMex/6EMf2rWDSdqXlv9HgAewM/fPxYsX/69CH5ZwBvK++USjUlcQINdYY43szjvvjFV8ypt2vHjUlcMOOyxqbbuxV8WmjalubInpm2NwPCIvWDD7KY4/CDof+MAHCueC1h4P+T/+8Y91Q+t6u2WVyo9R5f3uHdYJoHhZW+D9vI+2zlv0S5+EfUqvV3kZoavshIVZjDN89KMf3VE7aMkJ8mN0G98UrTBjQmOPsMVLaXmMrHMeX/nKVyIupo+r6vi2JgEdG2Y/N69f/uSe5eUkLdxH5XrldYTEtHjUA+pxHcuOeGx3ATSdHkdITItl7MqPvcMOO6S78mXMcLCfp09eMOoiYZx11ll5X6eeemreXgsiIALjTaCnTEhkAjLP43DVVVfFQPxkASKlInm+Z2shX3k6PrPDCyZUBPsRjikQ0+xGnIM5hAQTVoZ6OvYDHexBO7BjkrfcvE4H1n9Vx6TLJG2mF3sJCDfeeGPM4e7b+vFpQkPOjpSd5IovF3uAB4tJGkybE7Nfsd/sVINNAceq5HYnUxbZsdJCJi17kId99903WPKBdFfjMtmRyLpEf2nOePLU25RzsHBRweJ/5n2Q8Yk882TSor799ATT0sYc8+SgN21lXnc6C2SA8vMgF72nBi33aTE9w1577RU3m4AV9t577zhurqenpH3lK18ZU4qWmZX7Yt0SEgQzMYi75syZE0x7Fs/JNIWB9Ldk0DKBL+4nFa5p+AL1vKRZpMzJbUpWLa/HJ31zD5iQGH760592db+ZhjwyNy1xWHHFFQPZs0ixSopdewEJpr0PppGNh6OuxUkN++23X8xqteWWWwZ7AQr2whAseHuw0Fv5sODJ/rSQCcyEtLiJczWtd8ysZjbAMbvXRRddFPvgXpg3b15gncxiFNLamnd6XLaQYvFeY8U0vuFBD3pQ3G5Ol8Fsm+My/7jf6MOXTfgN8CfrF/2SbvbNb35zzAgHN37bKdwHRx11VFzmH+PhXMgKRrGXymAvm3HZ/5FWFjYUfmv5za0q6XHog75UREAEJoBAt/I1QanLb9m+zr7ZWsha5OPkk7AiN910U5xCYvqqnE2HKalhFhPKCuNLx9rPZTRywyxMpzKVmJ6DCVN9HwJaMT8GxysXpv6Y3sQTPY1n6J7p3tYEwHLTjKlDtGDjEqswDQeFNrSuVGlATTjJOdsLXXb33XfXNS9sZ2rVXgxiWyJRVGklybzjmaK4HuVIAEzn+nUyga/Qf7qSau6aNLxpm3TZNaAca80114y/E+l+7h8iJvhY+MRprBxaizZptq2qsbzmNa/J+6nT/mGL7sdauHBhOpR8ua0NaKoBpc+3v/3tldPidJxyLGtA2c9sAGYG9MP3I/3ukKjDhOC4D412k40v+9yEAI2sigiIwGQQ6EoDipbQfngbxfKTTz65oGlsrDzEnWbgnmsI0DCh+UFrwdu/PWiDxfmMOcfRgHmxqc+wySab+OrAP7/2ta8Fzy/ezcHQPvkf7XzZtVK+jlbNHgYBTd+wisXkDBbjr3A4EwQLmqHCzh5XLLRRsAdm3hoN1Ny5c/N1884Ou+22W8w7n2oS0VJedtlleT2L+xpsujNfZx91mjSFeeURWTChJ6D5oqD9JZd9VSlrQM2MJdhUcl71pJNOChYTNV9vWuAe4F6g0IfZIlZWR9vMd9WcfYK9SATzss+1xzQwu9NgkROiho/r7ZrltDM0dRbeJ25Ci2o2iOnujsuuAaWiZU6L35lyIzOvCGhpvaDp5L4uF2ZYzKQnao4ZB+PxYo+YYOYZcR+aWpvy911TPi1qRNSq1n13mK1hrBRmpixO7ZQ+2JBqQM1ZL1h4rcp6bEw1k2UNqDeyyBbBXt7jKmNg5ohicYCDxU2O9xbaYhPk4/a6f2hgudZ1sxd17bRdBERghAl0I2e/8IUvzN/E/Y28/Emd2VZ4M0/tP/GAZtzYA6bBxIkfmZ4P+1V6J0DYJRwL0Dym8VfZ1u+4qmhZ0muXBlYn/igaKjR25bLddtsV2qFl84LWFI0MdmxNGhyvPyqf2DbCChvGppJqQFO2voytNJr7NsWEtXhMbGBTDXRV2ze84Q35NbEXgEIVkgz48bGjrSo4xlCnbP9YVbdqm2tA+cRRra4QSozjYN+Yxrgt18fxjnpoBHstfn/DvKr0ogHtFFy+kwbUx2EmHPH8+F6TMz6N+ECSiDbFbYpxEFQRARGYDALY8rQu/sPsD4CqT+rMtlKO/4kA6jm407EybZQKSjxY8E5V6Z6AaXOjgIPwhgMYMTbT+wWnnn6WsiBJfEovOIggbJlGxzfln2XTi9REgbzmjJmH6jgVF4gwW2gqVQIoKVNJFerXEmGvSfiif7ykvT4vI50KDoFe/8QTTyxUxynIXyarpuG5xt726KOPLrRtu+K/c2VHxXJ7jyTQSdB98YtfHMc0HeGKiAicV93vay8CaKfr1lYAxUGOCBGMDw98F8zLHvhlfuk62cX8umGKoSICIjD+BCZCACUMi/+48UlO7rqS/hBSNw0/UtdG24sEbAowansIW+MCfDkzEg+stvaDxd6r18qCJGF7KAgsaJ4OPPDAyoZsT+8Nm8aM9dCMk25zp512qmw3yhvd4xpBtKmUBVDqEysSraDHboQd7JsK+clTxmbWkjX9pXWJ2VoubsfIPVTWTNv0ezwW2rhuIhakx3ABFE1xU/FEBp0EUNc41wmPHAOvf1L9khnIHLti+CXsk8kUltpQ1/XRiwDadG7sayuAUpdIDel1I8kE8V3bFpviz9uTqEJFBERg/Al0JYCO6hS8hwLhBxItRNO0Ghqw9Id00Blpxu0WQwOFgIN2zezk8tNj2rWcGanpRSBv2HKhLEgi8FII7M7D0MMulbsrh8/x5AMLFiyI2qb0HMptR3UdHtzjCDhNpSyApgIdU+/uOEJf5tFf2xWCVfqd6ma5KmsU2Za8D/OeLxzXnZiaYsEWGlSsDFMAxcyDew2B2c+p6XO2CqBgTEOutUmHm6JPzS7amnWk7bUsAiIwegS6EkDTH/66H8nZlooPjU06rc50WFPhgUBA8vT8BpmRpmkso7bPM+MgmFx33XVThs+DNuWKJqtfpSxIIjwxBq59eRo3PSbZe9IxofHGFANbRSInjGMhMDjnjOdyU0kF0CoWqa0fL3ZV15z+seN0xmiVifvY9GfhmmLsVOKnok0vF6aOsYWkz3QaPp1+x3yi1zIsAZSXstR0hHPCK57vCfcl549mkQD3eONzvrNVAOXaY+bi15lzSV9YOl2LHXfcMW+betN3aqf9IiACo0ugKy94fK0sMHY4/vjjK92uLAd37n1aWWEGNhKvMI1zSIw8/poKHs+mUcurEKfPAk7n64NYsIdqgJ+F+hlE93mfxH9cf/318/V+LVhmnOgtbqGtggkmweznpnSNhzOxBk3Ij/vwYCYOomnkptTtdgMe2RYQPW9mD/FAFAMzAQj2AC/Ek8wr2UI5soNlvAk2BRg946+//vpgD9S0+lgs42196aWXhhVWWCF6m9edVNkLnjig5UJsRyJfUEzzHeN5mtBfqGZa5NxjvM6Lu9CgxQpe9JYateANbyGKAtd9pZVWCtyHdd79nbo3YTrGAe30vSdOqAlZwQT5cPXVV9d2ay+9MSZombfHpaUhMUaJk2qa0Mp+bPYpxh4t9+GVe/GCJ6pBUzGBvjYOaNrOQq3F8ROdgHvAQm7F+LX8BhAdwKNxpG3Ky3WMyvW0LgIiMEYEepGd0XIyHc/bOH8szzbNp59XGvOQt/M6z1mvzydv4GmGHNqRb3yQBXsppg/Rvg7qD81XU9zHXs8PjRTOKUwjNuU5p/9BOSOZIJlrULheniYSDVJTwVmK+v5ngfrjsglVTc1Gep+F38nPN40CUT6pVANq4XrKu+M62XRSe1DsF5lFSAu2vhbmLB6T6f9+FBzD/Jr5NLxPv1u4rWkdYlgaUOw9/Rywk60raSzd2agB9djQzDZwHjh/+XmhyW1T/PuKzauKCIjAZBDoagp+FJFYfMj8x5Afbx6YbUpqk8SPqWl/2jSbuDqkSMTbFUZ1QkoK5bzzzsuvB22wFaWP6ZayIEnflr2mY7dM8VI3/eNh2ClUUMeOZ3GF9KWMaeu60kYApW3ZHrQcQJ462OI6404mLYzJp+jrpnERcvG4pk+m4cmV7v2nkQw4drdlWAIogrKPuSksWWqXXieAWia6vK8rr7yy9pTdgYvjdiptnJBMk56bOHmwer7PnuCBF3kSfnQqnqRAgeg7kdJ+ERgfAmMtgKJV9B94Pgll0raUBRN++N2ju20f416PzC+Wji8yNvOBVqdb5YyE9nK6pXy9CNXTRtuLx216j7A8XQFmuucy6PZpvvmmmYu2AijjTTXQsHetpJ+LTVHnggr2otg1VhW+s+5djvd3nfMYbV2DiDe82wDj6Fb2jK86TtO2YQmgZkKQ33vHHnts5ZDIn54679UJoGkMYzORquyLjf0UQMkM5i8BOGummcKw+3XHqk6ZkMxEI+dQl1e+9oS0QwREYGQJjLUAiiYmFS5IO9e2oNVJnZfoB81RP7R1bccwG+tx/pYtKKZJ9FR7sDEbzFbDZbo+fQjS1uzfWmum6w6CliW91qSMbFPMdrXQripYfZt+RqkODiPOquk70Y0AyvmnaToRCkm/mRafquXYOKkQTxRnIV4UPARR6lmPoNxUql4euvW+rup/WAJoGh8VoR2NKII8L3aYjhArl1SXOIsh4MGtTgDFccuvKQI+YZnoyzIvFU4x/e4VdlSsdNKA7rvvvvkxPepE2k26v07Apj6hz3zsbX9H0uNoWQREYDQJjJUASuadzTffPE7/YEvkP2r+iZcmGVmY5sFmsUq7wtQftpKeLcnb+idTRdi8HXDAAaN5xXscNbadhLMiOL+zKH9ig1c3lXjFFVfE9nVcEWbhjrZk0aJFXY+SOIo+Hh7alsqxVR9M5fqYuD+Yyp2E4t8PMtDUlW4F0LI9KPEvU1MGbEGZLvfr1PRJDvU2xQO0e1/mCNOmWWOdYQmgDILfrKbvFFPY2FV2iiWKnWhqbuQ8yjFK+yWApqG1yIRUVXi5w8SGscC07toQYcHHW2dyUdW/tomACIw2gbESQAlmzA82WhSEEBwfcHrgD40LQg4/hGg2CQeTPhz9MuKgQT3CnqB54EGN9oFpMMsRHvehrSC4/SQVtL88KOEIV1jAFYEc3jAzD9haMwWcEbg2TKtybWjn14b+2MY+/ppiStYx51r6lN9xxx1XV61yO9eZB+AkXVPia3LOXBO00lWlWwGUPsr2oAcffPCUri0yRebZgVzw4JMXAcshXhl6aUon92zgXvE++mU/OEwBlNPAXME8xuNvk58Ln2jjPaNXJwGUfki6gBaa76H3w0tdWvohgBLazr8z/B5w3LqSmmZwfaqST2y22WZxvCQnUBEBEZgcAl2HYRqjAAA6lTEjYFmsgglUwaZuw/LLL9/67Ah/ZekEA6Gc7MHdut0oVzSnrWARCeIpnHrqqcEcyYZ+OoTuspirwQSaGIrLXkhqw2XVDc4EnLDrrrvG3YRhMmenuqqzfruZtwSz+Yxhi8yEYVr3ommjA3ztpTHMnTt31p47YawIzWaP3GBOTIEwcSoiIAKTQUAC6GRcZ52lCBQIELvRzFGCaa+CZQ2KMSgLFUZkZZtttgkXXXRRmDdvXjBtYTAt6oiMXMOEwDHHHBMOPfTQsNxyy8V4vTbTJDAiIAITQkAC6IRcaJ2mCJQJmAd8MMeXGJDeps5DOYB8uf5sW7/44ouDpX+M2rOdd945nHDCCbNtiBpPBwI27R61vuaQ191MNgAAAfdJREFUFiwLWYfa2i0CIjBOBCSAjtPV1LmIQJcEzIknap7MqS6YvWaXrYdfHW2neYkHTAhYXrp0acx8RCYisyMe/oB0xJ4JnH/++cESFwRz/gvXXnuttNc9k1RDERhNAhJAR/O6adQi0BcCpBudP39+tBO0AObBnMv60u+gOrHkAgHNpxdsHEkZiiZNZXQIYO9qCR9iylSm4d2Od3TOQCMVARGYLgEJoNMlqPYiMOIEmLq2WJyBPO3bbbfdrD4bnIzMazzgpGPRKYJFvpj1QvOsBjpDg+Nl55RTTgmrrLJKOOqoo8Kyyy47QyPRYUVABGaKgATQmSKv44qACIiACIiACIjAhBKQADqhF16nLQIiIAIiIAIiIAIzRUAC6EyR13FFQAREQAREQAREYEIJSACd0Auv0xYBERABERABERCBmSIgAXSmyOu4IiACIiACIiACIjChBCSATuiF12mLgAiIgAiIgAiIwEwRkAA6U+R1XBEQAREQAREQARGYUAISQCf0wuu0RUAEREAEREAERGCmCEgAnSnyOq4IiIAIiIAIiIAITCgBCaATeuF12iIgAiIgAiIgAiIwUwQkgM4UeR1XBERABERABERABCaUgATQCb3wOm0REAEREAEREAERmCkCEkBniryOKwIiIAIiIAIiIAITSuD/AAAA///r7x9VAABAAElEQVTtnQeUPUWxxpsMgjkHMGcxoGJAQVTECAqomBVQTGACxQQPQRFMoKCIAURRMYtgRAEJigmzqKigCGbMWe+rX79Xc+r2zsyd2Tt79/53vzpnd+bOdJpverq/rq6uXmtkkiRCQAgIASEgBISAEBACQmBGCKwlAjojpJWNEBACQkAICAEhIASEQEZABFQVQQgIASEgBISAEBACQmCmCIiAzhRuZSYEhIAQEAJCQAgIASEgAqo6IASEgBAQAkJACAgBITBTBERAZwq3MhMCQkAICAEhIASEgBAQAVUdEAJCQAgIASEgBISAEJgpAiKgM4VbmQkBISAEhIAQEAJCQAiIgKoOCAEhIASEgBAQAkJACMwUARHQmcKtzISAEBACQkAICAEhIAREQFUHhIAQEAJCQAgIASEgBGaKgAjoTOFWZkJACAgBISAEhIAQEAIioKoDQkAICAEhIASEgBAQAjNFQAR0pnArMyEgBISAEBACQkAICAERUNUBISAEhIAQEAJCQAgIgZkiIAI6U7iVmRAQAkJACAgBISAEhIAIqOqAEBACQkAICAEhIASEwEwREAGdKdzKTAgIASEgBISAEBACQkAEVHVACAgBISAEhIAQEAJCYKYIiIDOFG5lJgSEgBAQAkJACAgBISACqjogBAZC4OSTT07f+c530oYbbpjWX3/9nOp///vf9K9//SttsskmaY899liQ05lnnpnOOuustN5666V11103rbXWWjn8He94x7TtttsuCK8LQkAICAEhIARWAgIioCvhLeoZ5gKBffbZJ33zm9/Mf3/9619zmSCVW2yxRdpqq63SgQceuKCcRx55ZHrVq16VLrvssurepptuml7+8penhz70odU1nQgBISAEhIAQWEkIiICupLepZ5kLBI466qj0whe+MJeF88c97nGt5brkkkvSLW5xi7TddtulZz/72eke97hH1oS2RtJNISAEhIAQEAJrMAIioGvwy1PR5xMBpuIf/ehH58IdfPDBae+9924t6GGHHZZOPPHEdM4556QNNtigNaxuCgEhIASEgBBYCQiIgK6Et6hnmCsEvvGNb6R73vOeuUx77rlnnmJvKuBFF12Uttxyy/T+978/bb311k3BdF0ICAEhIASEwIpCQAR0Rb1OPcw8IPC73/0u3eAGN8hFefCDH5ze/e53NxZrl112SVe+8pXTW97ylsYwuiEEhIAQEAJCYKUhsOII6GmnnZZ++MMf5lXHrERee+21899oNEqsSP7Pf/6T/v73v+eVxrvvvnvr+4Q4/OlPf0rrrLPO2Cpl0vnHP/6Rrne966Xtt9++NY2VdpPFMuACtkwXO748Z8QYjLBrvPvd7z4GwbHHHpt/b7zxxlVcVn4Tnr+//OUviUU497nPfcbinXrqqelHP/pRzrdulfm///3v/F6vf/3rj72Tc889N33rW9/KK9OJR3nJj3rAH/FYpQ5hvNe97jWWJwuJ3ve+9+Vr/pwc/Tn/9re/ZU3nLW95y7F4/LjWta6ViH+7290usdK9Tk466aT0zGc+M331q19NV7/61euC6JoQEAJCQAgIgRWJwIojoJCBn//85xNf1tWudrX04x//uDHcT37yk0weGgPYjZ122ikdd9xxbUFW3L03vvGNab/99uv0XM94xjPSIYccUoW94IIL8orw6kLDyeMf//jE6vAoN7zhDdNvf/vbeKn2/OEPf3h629veVt27973vnb7yla9Uv5tOWPjz8Y9/fOz2Zz7zmbTzzjuPXSt/sIKdafZS7nznO6fvf//76apXvWqiLpUC0b7Tne6U9t1337TbbruVt/VbCAgBISAEhMCKRmDFEVBIwx/+8If0q1/9KpOYiy++uHqBaOQe85jHpOtc5zpZ4wVJaBK0XBCSD33oQ9k+z8MR90EPelC67W1vm1cr3/jGN/Zbq+J44YUXpq997WtZM4z9ImQvuhBCK/rIRz4y3fWud82ayKjZQ2P4sY99LL+Xr3/96xVel7vc5bKbolvf+tZZa4otJNrlKJ/61KfSH//4x6wFfeUrX5m1pX7/gQ98YLrb3e6Wrnvd6ybeKVpQl/POOy/H+eUvf5kOOOCA9M9//tNv5TLyLol3hzvcIZXvEi33e9/73rw46D3veU8Vj7JBbPHViaskptBL4frnPve5fJm8N9poo7EgkPgvf/nLCc0uGlmJEBACQkAICIFVhYARrRUrL3rRi0aXv/zlq7+jjz56Uc96q1vdKqfx3Oc+d/TnP/95UWms1EhvetObKnzB2oj5yKbSWx/XSF2Oc6UrXWm01157jS699NLW8OVNfx/+bm0avQxS+9um9cfKahrw2nB1F03LmeMa2R0Z4a4LMnbNptarvMwkZOyeke+RaeBH5jN07PpS/QDf/ffff2QEfGQmJUuVzSDpfuITn8hlpby//vWvB0lTiSw/AnwDT3rSk0Z8Rz/96U8HLZApCXKdsYV8g6arxISAEFhaBLBnW7Hy5je/uSIBkJWXvOQlvZ/VbEpzGrvuumvvuKshgmmbR9e85jXHcDbNX+Oj/+IXvxiZmUQmYKb9awzXdsNWmI/lZ1PzbcGre+aPcyyerVav7rWdmK3oyDSsI1utPjKtaFvQ6p5paau8Ih6kZbamIwZHs5InP/nJuSwQABdzFZXLQDlMo+2XOx9tx6cq/pAd//Of//wKNzNh6FweBZxvBB71qEdV7xUSOqQwoLviFa+Y2xQzdxkyaaUlBITAEiKwogko2hTXknGMHXAXTCEbNs06sgUlI5vK7xJlVYaJ2j5wfuxjH1uLA9pjyCOdxUc+8pHaMF0u7rjjjmPv1WxLu0Qb2VaYY/HOOOOMTvHe+c535niRSE6KeMIJJ1R5HX/88VXwY445JhNwswGtri3lyRe/+MXRFa5whdE1rnGN0c9+9rMqq09/+tNV+fp+FyTynOc8p4ovAlrBuiJO0MwzKBlSQ2+21FV9WUx9mwSst0Fm/jMpqO4LASEwJwisaAL67W9/u2r0IEb3ve99e8FuC0xy/De84Q294q22wHRWkeibTeQITWcUs70c7bDDDjncW9/61nir9zkdWMzPFhlNTMN2G1qgqf3oRz86MR5E8WY3u9morwb89NNPr8r4ile8IucDJmZvOkL7OAtB2+ra4uc973ljWWK2cJOb3CSXEQ12H0JsXgNG5jUgxzWb6JGt9h9Le5of0oBOg94wcc0WOr9bjkMJbTEkFE1oaZIyRB4Mrhho0S4sdmZliHIoDSEgBLojsKIJKNPDkagw9dtVbLFN1hqZG6ERHa6kHQFbRT6G9atf/eoqAjahttI733cyVt1cxAlkKr5XW3g2MRW34YzxzIPBxHi2J/vIVrKPzAXUxLAxAOE9r6c97Wn51hOf+MTeRDam2ff8He94R1UGc0e1IHq0ke6jxYzaU/N0sCDdaS6IgE6D3jBxl4KADlOy9lTuf//75/rOrFVXu/D2FHVXCAiBpURgRRNQgEND40SARS9dyaQ5CM8j6i996UtLif+KSRutpuPMMS5Gsn3R8z3b53yQ57XtLcfyMl+dremioUU7Ui5eOvzww1vjYXbB1PWLX/zi1nB1N83XbKWRMWf0I0gyphxxGrwu3pDX0PjzLsy7QG2y5h+1wtHcV9WGqbsYTRnOOuusuiCLviYCumjoBou4phLQ2AadffbZg+GhhISAEFgaBFY8ATV3QFUnS2fchQAwNUvYZz3rWUuD+gpM1VwkLZji/vznPz96/etfn7E091cjpoSHEPNFOvZOWWzWJve73/1Gt7nNbUbvete7xuKxKrxNWLxj/kdHaNIXIz7Fbe6/RptvvvlolqYcrCDH1pZ63PacW221VQ5zlatcZWQ7OE18TKbbIdKkC6aTPB5gemEu0Sam6wGWk4Bi820+hDsvNPMyL+YIbl1W+TNg7hKuqQx98SedIQgoJi9dvEU0lXsx13/zm9+MMP+hbi5mweli8lQcISAEFo/AiiegaDJpkPzvC1/4QitaLJSBMNzoRjeaeQPaWrA14CZTzY4zR6bC0Dw+4AEPGKERHErMJ+dYPqw4bxJctFAW23Uo24bF8u29995N0Ua2O1Euu/k5bQwz6ca2225blRMThVlOC8ZFUG02cebwvyrj29/+9kmPNPrgBz9Yhcc8oU5YlYyd7l3ucpcRxBbM+Z7MN+rooIMOanVl1kZAIdJbbLFF/oNstMmhhx5ahW0bdEK6DzvssDxAcMLOkQEDaXT1sFBXFhbxeHl9kGS+hUdPeMITKhtabGkZ6MTngZzabmPZ8wLmH+BHm4QXhy4L4RaDPyYzXlZmisiTo1/jWJrP4BmC65QfYcEbpi6YOhGfWRCXD3zgA1Vap5lnERfqpudBW902SEXD6WGPOOIIT2LsiMkUedP2SISAEJhvBFY8AWXalwbJ/ybZur3gBS/IYfFVKemHAHaGjrMf6RAWq0Fsyv2Tn/zkWD68szqB9DL9zBQ4wmIlLxdHOvQm2W677UZoz6chjRAN8qEjX4yro6aydbmOJwJ/1khuyrjmJL/SGjFQmCQsxvJ0Sz+qaOsgKU46PVx5hIyTb520EdBox1sucivTinbCTfa7tklBtRCrLKP/vulNbzqC0C1GMN/xdMAF8ujkzq/7EYIOUQZDiLpfL4/4j20aUEyDf8S9zNN/lzNClIV71Bswtg0axsodCWicHrfNKMbgZOW658HsRp2AjWvebXvbxkVz2CR7Wk3vvS59XRMCQmD2CCxqJyQjccm0JdUWh2wpyHaCbIM4b/Ka17wmHXjggVWxODcXMtXveGJ+IfN+4GzLyI49SymmeUnsKrSUwg4/tsJ5KbNYkLZpvdL3vve96rrZaybTNFa/hzhhf3cjiFVStrI2mYap+u0nr33ta5Np3PJe7DZdnHdEYscjl2222ab2PbP7lS0YSuzVbj47PXjvo2ns0ute97r09Kc/PbF706zENGh5JynT5qdNN900mc/O1qz5btlpih2ZeHfs9lUnNpDIu0WxmxQ7XdlipLFgtilBssFAvmYkNL8jdqaiHrIjmWn1EjtTIexWZVrmtP766+ff/o/4pIOwhap5IPBb6alPfWpOgwu2krq1bu+zzz7JXF7luEYgkxG8Kh1Ozj///PxuzaQgX6d+sLvV7W9/+7zTl2npKtw22WSTZNq9tNlmm42lMekHO13Z5gc5mHmASGaSksymOHFu5CzZyvC8y5r5rsxhqGs8L+U2e+XEDl9GtvKzsiubbynLrlrgWL6nafDnm/J68tKXvjTvdGZELn8//pzsJGcDSv+Z2OWM3cJufvObp7XXXjtjyjltgGl2c32yzTtyeHZM83aXemCDwiodMzHIcWyglDbeeONkxD3X2yqAnbC7mrnVS+uss06yAWgOH+/7eczHtLrpKU95it/SUQgIgXlDoC/njStnfaTpx1k61+5a7hNPPLEaEVNOdjOqE3cQzpTXD37wg7ogg17bfffdx8rlGA55RIs3azHCP/ZcRkAGLwIOyiNOdQto0LBd+9rXHrPjRRMY42H/WIptF5oXKz3iEY8ob/X+jUYY7WwfF0e9M6mJEJ+zySdrjBan1bHZbZK4qr6crsfWkGli8EVT1eTkP7rQqjOHiZq40hH9UBpQvvW4K1aTBt0Ib1VfHvawhzXB0ng9akDBhTxLl1XYd5Z26rgrK01WqJe2bWxVng9/+MNj+Q6FP4l2tQF1DSjPRruJuUuTtGlAiYNW1L/NnXbaaSwZntXvYYbRJtEl3Dz2R21l1z0hsNoQ6DUFz2pjbwiajpNWJM8aYFbpxrLWkRXKhINwwjXZtQ1dbqaU6Pj7/tHI0yDzhzN3Fkxh38gfjTg+Jk855ZT8Z1qeoYvdmh7Tokx5R7w5xzZsSGFRS8yjzr8rjqnxuRkXcDBFGePVueXCHpAp5KXwVTgkBm1pmRazes4unTDkxqdPmR5vEkwZwM80XwvMKngnLPLiD/vZJvnud79blQ0/u6XMgoDikcDrASYFTXaHkDqmlz1sSYjLspe/IwHFm0LTIq9I7CF1Tdv9fvazn63KYlrKseyGwp9EF0NAsctuk0kElLjRhtxNpTDfwQyCd4A5z6SdyPje/X25bWpbuXRPCAiB5UOgFwF1P2v+gdcdCTNPwr7DsZw0YqW4g3Bsi+iMJf0RYI9xyAurUG1qewxzNElDSkkkywUHuBdiIUmdNg+tqNcHNHVR3Fl9k0Yshp3nc7wP+DPWkby6srMgy+PUzQCwn7wv0sG2dbES313drjWzIKC+aw7PO2lwhC2448LgpI9EAmrT6Y1R44Bh++23bwwXB14s2FmMTMKfNPsSUL75JtLsZexCQGlDfACL9wkWgLkNPxpWnNlPEmy23SE9trQSISAE5heBXgQ0Trl4o1weCTNPQoPrHSdlNZu4BcXzacEuK0wXRNaFrJV4yEMekht+NCFowGK9QPsz9EKkSCRZwBEFTR2DiTptSekLFC2XC0TZbBPXeO8HcUqdjr+LMB3u76xc7Uz8o446qrrPIrBpxPOpIwizIKDUDcpAu1BOiZfPFX2l4kqsj0QCWmosYzpxkFwu9InhOHfsFmMS4Gl5GnX4E6YvAWXAOUm6EFDSYMbK22uzia3IpNlST8qius/MB8/Yps2vAutECAiBZUNgxRNQkDXD+KrhpmFipO0C6eQaJFTSHwGmL9GIgWHUONL4c83/3A1N/xzqY0QiiQbGBfMD8mza7tL9Xnq50CohrHRGczJ0Ob1cszzyDP58kNGu4sTMFmotiOJabcgJg7o2ueiii0a43dlvv/3yim7cUeE+B7+oTN972eoI0CwIKFuPehmYEWn7w4bZw/a1qY4EtI7UO4bg5Xl0JaB12MX0Fos/afQloF28J3QloOTPxg+OB0f8+DaZSRC+FPzTEg+bZIkQEALzi0AvAromTsEDfVxwQMOEHRrCdDuuQrB/a3ILkwPqXyMC7u6m3C0odjhgzkKLIaUkkjjCR5sJeWKxRpO4HSNl4s/t+pj6NG8OE8lVU7rzdP3oo4+uOvBysUpbOQ855JAqXnQbFbcVhVQ2CVpubKwd20nHOhK11AQUjeekcjXdp370kVkT0CHw5/mWm4DSLrsWk3fRZavd+F5o04lnHgXiZZ0LASEwZwj0IqBr4iIk8GYP7tipsJc18rKXvSxf7zpNmSPpX4UAjrrBFWP/ckcctMxR00Q4OuShpCSSaJHwIcj0XdMKbPKO/jEpEyvVfcraXBENVbxlTQftl9f3crV6W8HMLVg15cn2qS44+vf0cK5eJyyqQ8vp4bDlw6QBu0mc+VMmFtFEX6zLQUCpp9FPKTaek/5wCo83DZzI95FZEtCh8Of5lpuAxgEU9WnrrbfuNTDEzIp4dV4u+rw/hRUCQmBpEehFQCnKmuaGiTKzLZt3jBwhnBj+0xGZ778F5Ik4Sy10yLj6Wcq//ffff8keA2IDltiiRTvKmGFc7EFYVrkOJTiRj+8UckPHgyPqNtlrr73G4uFVgKm6OjLUls483zvjjDOqZ8QtVh/xWQ60Rz7tySIvsGbnmyZhJx1/H9g7NjnwJ00PV4d5Vw0ohKtNGBR5PqVDcncXhTnAJHOCtjwm3ZslAR0Kf55pOQko3iewGefdbbnlltU7bNvtLL4H6pcvQtpxxx3jLZ0LASEwZwj0JqCUH00oHRULjvjjfN7cL0Wco00cDRvEjClXbAdZZLAcwnQn08VL+WeOn5fk0XD/hKYRu8A2H5dLuRgprtrmnbLtI6vaJ+2Qw7t3YsLRHI/n3WncLGNJAJtxotHVUWkaMako0SUQRBbbWMcr2viW6ThxZXGYE9cyDL/ROHt6fQloHEiak/e65KtrDCw9n5KARjOBpfz+Z0lAh8IfAJeLgDJo8e1rsdtnFgUSyXtEWdA2s+EvnpXz/t732GMPv6yjEBACc4jAogjoHD5Ha5GYOvNGiaPtaJJ/06FJ+iFwmu3jzKAD4hZ9bDalUtpq2m4tTUF7XS+JJO+1i8shVtPGusD5UhH1Xg80YODoiL7v4jpsaV0DhbbYSR9bSLaRe9cq1vlWjY/mZi/g3peA4hvS392xxx4bkx07Z1V5XOxUEtATTjihSgcb5jb5/e9/X03Rt/k3rUtjlgR0KPx5DrTf4AyGbUI7QLihFiFhruHv17frZLtXr4/Ykdd5tohlxETE0+jiAzfG1bkQEAKzRWBVENDoSsUbJ2zUJrlgme2rmO/csJ3Dlg+7Tjqmch/wptKXi5FKn51N8SZdL4kkq+K7+HCNGj7qAosdIGwrSdBAeqfNQKGvuFsy2+pxZFsq5g693J2mTDNOeTcRNQgk/hz9G+xLQOMOWCwIKncLokzUgajhJK+SgKJZi54xjjzyyPJx8m/Sx0TGy9vXTdssCehQ+PPgroXkudGAN8mQBBTtptvm2ta6Y1lG84JJOyEdf/zx1ftq2ld+LHH9EAJCYNkQWBUElNWh3on40RciLRvya0jGuCliFapP8YEfZK8reT/99NMXYN9nZXYTTMcdd9xYutjUdpG45R/P0jat3CW9eQ2Dk3eeD3u4vj5Y405B/r34zjRNzxsXKOJLFVtOCBsDFeJiD0xZ4tR4XwIKsY4LnbBJxYbX9jDPi5sYXHAfYhTdgJUElGewfcWr+kO5wAvCAuE688wzszuuzTffvAqzGL+bsySgQ+EPNnFHInzs7rPPPnlntXIKfCgCCtH37Ugx4bj44ospRiXYmGNiQ11EEw+uTcJshtdZ7PwlQkAIzC8Cq4KAAr+vjKRxYlW8pBkBprnQIvlUnDfo8YjrqoMOOqgxEWw06bxinHjOVC0kARLCNGdfwQ7V06vbirMpvXPOOaeKh3Zw0pReUzrzfj0SdAYBfQRbPN/+EIzREk/SLhPHXXL5eymPkMPLLruswr8vAeUZWHwUtZdlHvzGzCOWpY6AkhbbhkaNbF1aXGOTha4DLtJ1mSUBHQp/yg5e0YTBcSl9lA5FQFm05nmwAr5O2LHKFxdhN9/0PtxfLa6YJEJACMw3AquGgLpGBPtP+fxsr5TY+tExM90O0QQztFqQeKZlWezDFG/bdBgEhvhoNEiDuKRBWvwmHe7j/Lxt0UpTSX2lN51S05RvXVxW2Xpn19etTl1683qNd+gddpsT9KbyR2fgaC+7Cgv+mB73vMGauoRG1PdCd/wXQ0ApB5ot9nBnu0ZPiyMOyF273oWAkhYaz912220BEaX8OKhHw1q6GCNeF5klAfXyTIu/p3PeeeeNdt555/z9OsZsixllCALKDlxx56O2tgAC7GXZd999Y1HyOfbLPqCgvkmEgBCYbwTWonhpFYhp65JNvyZzpJ3Mnm0VPPHKfkTThCWze0u2SjbZlGHnhzVNXtphhx2STemlgw8+uHO8NTGg2fIlI+fJNIbJVo3P9BHMzjKZ7XUyu75kmvC0/vrrL0n+NsWfbJ/6ZCu3kw2MFp0H9YI6dckllyTT/uUyb7TRRotOb7kjDom/mXAkmybPuKy99trL/WiN+ds2wGnPPffM90866aRkW3k2htUNISAElh+BVUNAlx9qlUAIzBaBY445Jpn9Xs707LPPTmbTONsCKDchMEMEUCyceuqpyWZbkmm203rrrTfD3JWVEBACfREQAe2LmMILgTUEAbMLTLZQJ9nq8WTTp8lcIK0hJVcxhUA/BMyTRTKb9USdt5Xwycw7+iWg0EJACMwcARHQmUOuDIXA7BAwv63ZTMHs7JLZ9SWz25td5spJCMwIAfP5mcydVrJtO9PJJ588o1yVjRAQAtMgIAI6DXqKKwTWAATMr2I65ZRTkvn3TEccccQaUGIVUQh0R+CCCy7INt22WCxhamJu4rpHVkghIASWDQER0GWDXhkLgdkgcOGFF6ZDDz00sYCE4yabbDKbjJWLEJgBArazVTrrrLOSuVWrFiHNIFtlIQSEwJQIiIBOCaCiCwEhIASEgBAQAkJACPRDQAS0H14KLQSEgBAQAkJACAgBITAlAiKgUwKo6EJACAgBISAEhIAQEAL9EBAB7YeXQgsBISAEhIAQEAJCQAhMiYAI6JQAKroQEAJCQAgIASEgBIRAPwREQPvhpdBCQAgIASEgBISAEBACUyIgAjolgIouBISAEBACQkAICAEh0A8BEdB+eCm0EBACQkAICAEhIASEwJQIiIBOCaCiCwEhIASEgBAQAkJACPRDQAS0H14KLQSEgBAQAkJACAgBITAlAiKgUwKo6EJACAgBISAEhIAQEAL9EBAB7YeXQgsBISAEhIAQEAJCQAhMiYAI6JQAKroQEAJCQAgIASEgBIRAPwREQPvhpdBCQAgIASEgBISAEBACUyIgAjolgIouBISAEBACQkAICAEh0A8BEdB+eCm0EBACQkAICAEhIASEwJQIiIBOCaCiCwEhIASEgBAQAkJACPRDQAS0H14KLQSEgBAQAkJACAgBITAlAiKgUwKo6EJACAgBISAEhIAQEAL9EBAB7YeXQgsBISAEhIAQEAJCQAhMiYAI6JQAKroQEAJCQAgIASEgBIRAPwREQPvhpdBCQAgIASEgBISAEBACUyIgAjolgIouBISAEBACQkAICAEh0A8BEdB+eCm0EBACQkAICAEhIASEwJQIiIBOCaCiCwEhIASEgBAQAkJACPRDQAS0H14KLQSEgBAQAkJACAgBITAlAiKgUwKo6EJACAgBISAEhIAQEAL9EBAB7YeXQgsBISAEhIAQEAJCQAhMiYAI6JQAKroQEAJCQAgIASEgBIRAPwREQPvhpdBCQAgIASEgBISAEBACUyIgAjolgIouBISAEBACQkAICAEh0A8BEdB+eCm0EBACQkAICAEhIASEwJQIiIBOCaCiCwEhIASEgBAQAkJACPRDQAS0H14KLQSEgBAQAkJACAgBITAlAiKgUwKo6EJACAgBISAEhIAQEAL9EBAB7YeXQgsBISAEhIAQEAJCQAhMiYAI6JQAKroQEAJCQAgIASEgBIRAPwREQPvhpdBCQAgIASEgBISAEBACUyIgAjolgIouBISAEBACQkAICAEh0A+BVU1A//Of/6Q3vvGN6Ze//GX67W9/m373u9/l4x//+Mf0gQ98IG222Wb90FRoISAEhIAQEAJCQAgIgYkIrGoC+qEPfSg98YlPXADSeuutly6++OK00UYbLbinC0JACAgBISAEhIAQEALTIbCqCeill16azjnnnPSLX/wiHX300emiiy7KaN75zndOn/3sZ6dDVrGFgBAQAkJACAgBISAEahFY1QQ0IvK4xz0uffSjH82Xnv3sZ6eXvexl8faSnl9wwQXpFa94RVp//fXTi1/84rTpppsuaX7TJH7++een97znPTmJhzzkIelOd7rTNMnNXdxjjz02XXjhhQkt+Ete8pKx8v35z39Or3zlKxMYPOc5z0lbbbXV2H39WDwCxxxzTPrYxz6WHvGIRyS+xZUuk76j1YZH3fv+8pe/nL72ta+lr3/96+kf//hHeuADH5h22WWXuqBTX0MBgUJik002Sfvuu+/U6S11Ap/85CfTF77whZzNXnvtla52tastdZZKXwgMj8BIkhG40Y1uNLr85S+f/+zjnikqj3rUo6q899xzz5nm3TczIwlVWd/61rf2jT734R/wgAfk57MGfUFZzV64evbNN998ZDbEC8LoQn8EvvnNb1a4XuEKVxj95Cc/6Z/IGhaj7TtajXiUr88Gf1Wd8Hb5Gc94RhlssN93v/vdc343vvGNB0tzKRN6/vOfX+Hz/e9/fymzUtpCYMkQSEuW8hqU8Pe+973qY77iFa84+sMf/jDT0u+8885V/k960pNmmrdn9utf/3pk2ob8x3mTtHWcTXHWpOttBPTwww+v3tMtb3nL0b///e816dHmtqxf/epXK1whGz/4wQ/mtqxDFaztO+qCByTdv9e//e1vQxVrLtI58sgjq/pw9atffcQA/XnPe97o3e9+d+/yQebBiWObiIC2oaN7QyLQtU4Omee8piUCam/GpruqBu8e97jHzN/Vt7/97REklIb2hz/84czzJ0O0ma5paNNstnWcy1LwgTNtI6C///3vRzbdNdpuu+1Gp5566sA5r+7kXvWqV4349o466qhVAcSk72gSHrZ4svpeV5oG7MEPfnD1bDbNPFV9QKNJuzZJsykCOhXMitwDga51skeSa2xQEVB7dY9//OOrBm+//fZbY1/mNAUXAf0/9NoI6DT4Kq4QiAhMIqAxbN35Siag17ve9XJ7zCzDtNK1sxcBnRZpxe+KQNc62TW9NTmcCKi9vWj/efLJJ6/J73PRZRcB/T/oREAXXYUUsQcCIqD1YP3qV7+qlAG77bZbfaAeV7t29iKgPUBV0KkQ6Fonp8pkDYm86ggo9p3Rdu+73/1u1eBh/3nZZZetEa+O5/jLX/4yWFmHIqC/+c1vpiqTrTQf2WrUJV3g89///jfn8fe//31BWZeKgGJXO2nREuWyTRFGHBcrtqHCiL8hhHf5z3/+c9FJQSb+9a9/LTr+pIi2YcRgdWUI7MGrrk7VPcdqIKDYppo/5ZGtYK+DoPaaucSr2uMhFmR27ezbCCjP8ac//am2vF0vDvldkudSLUIaupxd8Zl1OOrkz3/+8151s66M1A3qbB/pWieb0qRdHaqNt813cvnb+hz6rWn7paZnWRUE9JJLLhm99KUvzXZA2ANd85rXHO2www6jn/3sZ6M3v/nNVYNHI7QcYrsujbbYYov8d9pppzUWAe0sU2+3u93tRqwW5u+2t71tth01v6WN8Zpu0Kh6vv5RuL2UX+cYSWVdx/mJT3xitPvuu4+YMiP+9a9//dHDH/7w0etf//oxst9UDuxen/WsZ41poq961auOtt5669G73vWuqRsJz/fTn/706EEPetCIhQ2U80pXulJ+/iOOOKLKo42AmnumCq9Xv/rVnmx1vNvd7pbvP/nJT87XsO3luXhH5HeNa1wj518uiPjiF784wu7t2te+dg533eted7TjjjuO3vKWt1Rpt52cccYZI3NPU8Unr2td61r52uc+97nGqJTD3zPfAfL5z39+9LSnPa0q85WvfOUc5qCDDppIrhjYsYCEsnh94j2Cy1Oe8pTRj3/848ay3O9+98v5YAfdJjzPox/96BEY8Zz8XeUqVxnd5S53yXm3LSA0F1vV837lK1/J2Rx//PGjxzzmMaMb3vCG1TvCFvXEE09sK0a+BzmnHvDufBaFstCOPPWpTx21fZN131HMsA4P2gZ/X15XeP7b3OY21fWddtopJ8NA7q53vWu+Tl2aJHQy2267bQ6//fbbL3oQxIJOFgzd5CY3qd4P7dQtbnGLkbmYG/3EFk/VCd8dz0bb5u/1Ote5TvVc3HvnO99ZF3XBNd6J48Q3Tnr+rft1c3s3Fq8koHTMBx544Ij3gEcMlBOEMfdro/POO28sbtOPxX6XTenF610IKO8Um3V/5te97nUxiep8MeV8wxveUKX78Y9/vEqr6YQFZF4O+rsuEvPoYnOPEsXzOOmkkxZkwTs97LDDRngw4X1SLzjy+9BDD+1M6uivyjpO+/Gwhz1sdPDBB4/qFvEupk76AzCoPeGEE0b3uc99qr6LstOfmGuy0Qc/+MHWgf4zn/nMChfSZFBI/aFd5tskLa5FQRGHJ4r73//+Vb9Cm3Pf+943X6d9GUJWNAFF+7LPPvuM6ARpgJ7+9KePjjvuuBErzelYb3azm43uda97VQ0eL2U5JGof6ZhK4Tle9KIXVeWkwpR/VCTsV7tqYMiDRTVlOnW/4wiv7DhPOeWUjG1dPK7REbeNriCYdNpN8bnOop9pRnw0xDQYbXnc8Y53zHm0EVAWe3gadXWFjor7pMGg56Y3vWkV3uNx5Hm90Ta/orVhPHzZUca6AeEzn7Wt8UmHZ49af0/jS1/6UhWXfFjw4eTc849H8/maR8IePx4ZpDCoi+HLc0gx77tOnLA2DQLRWFCXyjTL37e61a1G3/rWt+qyGL3mNa+p4kO0GSCV8ePvxz72sY11lzyctMQ48Zw2h2+7TsrvqAxTh0eME/OJ53TALrvuumv1fBDDNjnrrLOqsOYHsy1o4z0Wc9KuxvKU53Sa73//+xekcfOb37w1HukwUOwikZyV+ftvBoZR/F2CO1otiKeHLY8Mfsw3aYw+dj7tdzmWWMOP+Ix1i9Bo8xgIe9mf+9znLqjL05TzG9/4RpU2aygmCQN/ykL9qCNodfFjHj6orwvn17bZZpucB+0wfVsUBg1xUOS4xCPtddt7JT34w6T+CkVMmU58XzHPeF7WSfJDS4siJoarO2cQDMGuk4c+9KFVfOr2Pe95z+q3pxUJKGVnUOv36o4oVcxPb112va4tyhG9NSDp7W9/ezItQnZMijNys9dJpvUa3lHpIlPEcbERzWRaw7ylJmW2F1mlZo15Ms1H9ZsTG2UknKvPWt72trdlx+bkayPFZJVprAg2FVU5f7ePKFljkqyC5L3rzzzzzMSWoqZZyHH233//ZKR7LH7TD9PgJCME+fbZZ5+dwAjhPUYn66aVqrYlBU/TQOVwtnI/GZFK1qkkI4nJGvHsMNrcyCT7UJM1cDmcfVjJNGj5PP7jWY1U5EvrrrtuMo1Nuve9752sgU88l2m7khG5fN80I+m0005LhOsrBxxwQLLRf4621lprJft4knUwychKso43fepTn8pbr9pgJFnDlR1fb7DBBskayrGszD1Q5XjftITJRs1j94285ee/9a1vnTbccMO8s5aRslzvTNueTFOcd94iEmFtUJHfJfhR78DciFwuk2+KQNimekkZuIdYI5Eov2mxkhH+dPrpp+c/nOcj1CFbWZ3P/R+Ovm1UnX/i5BvH1pSbd2lawARW1gkkI1HJBjY5nJGyZP5QPYl8pB6ZBjL96Ec/yr+JTzgb4CXrHPPzvO9970s2ZZ7vf+Yzn8nhYyLUa5taSqaNSNTFUkjPtBr5Mu+GukZdsVF5rhfUDa8rOBNnh7Mb3OAGY8m89rWvTf/zP/+Tr1GH2VCBOkA6W265ZfU9mYamimea4UT9jwIWlNOmpfJlnp13d4c73CHjhPN06r819vm+aXLSE57whJhEbpf8O6Ju2gzC2P06PH76058m0wTlcO94xzuSdar5/IUvfGGyWZ18bhqdxHeJxDaOMPw1CW0Gzu8RI+fp9re/fVPQ2uvg5A7c/RujbvHdUs/4ls3cqYoLPqatrX6bxjmZSVGuI7RhCO/EMeI3O9SB+yQ599xz03e+850czGa+ks305O8jtkGmkc11yNPi/dmgIoGfddAJR+98S5zzLkx7n+uLp2skJ39fm222mSdRHaf9LquEWk5e8IIXpDe96U05BP0w35oL37/5TK3aBtOA5Y1O/L4fpy0n36DN8uS+gc07mrauph2lfEaKk2nUEm1BV/E8TMGS3wGbtdQJ3wZ9IkK9on65sOkDbeNf//rXfIlwfPPUcb5V2g5/r7QdNiOV6t6rzaAk+jIX2nmbLch9Arsp0hf69wkW9Mvejy6mTtJ20yfybIiR9/wclJ02l2/KtNfJ23j6NZ6FTVSimGa22tmR8w9/+MO5j+X7AgtwYfMd6j5YwZNo49Zee+1kxD/3laY8yHyPtoHnMpaZw9O+X+5yl4vZ9TvvRVctcJsmjnvzILD8qI3BpUmdMNXm7B4NYpOWjWkjng2bJKaWUYXHEUNd2n2utWlArfJVanK0G3V2n5gS2AeTn4WprsXY3cUyNGlteKZSCwOG2OKVgjaN6Q3wZUq+FLSqvtqVcHVTJpgIME3g78gIRJnMxN/Y+EatDFMZdYJ23PPhyCi6lK4aUOIzJWOEbCwJNA6YKsR8GC3bFrBj4fhhRKkKhwazFCNx1X0jWrXT25gA+FQt9dsawbFkogaUMjH9ia1PKWjP0FwRhnTKqXQjclVZmjQVaHyJSxqYkZRSp/HzMGjMHDO0qNZI+q3qiJbddlGqwjE1VWreowaU9NAQ8k5KYarX86tbiY1phN/fY489yuj5N+YNrhGnLSolfkd131sbHqTVZRU8WmO+Pcpq5K0sQvUbbZlr661Tqq53PaE+eP0gr/e+9721UdFgOm7U2TpNGO2Ch1kOG1Dypp5Sp0sBz1jHbPekMshoiO9yQaI1F6JGLWpAqfOxLbMd/WpijwYpZ5xBMFJSmw8XY99i5KcxXN2NmAemXk0S61bcSIa6TX/tdcqIe20ScXaFqfRSaKNpezydJvOo6MO27rsnXf+2ObYJGlHPj37QiOKC4HAWZn08XN2MWdSAEo6Z0rJt9IRj3bFBrl8eO0YOWNd2jQWe8KPXFLyNXKoH9Qcuj4RZbsHOw8tFp9o0LR0rLfZSTYKNDFMITvJobLH/GkriB0rHFIWPyZ8FUtIkTDEwvclfE5Fuisv1WIa2ShU7Tmy06joRzwdTBy879pNRTMtR3cPWp0kg125fRydJg9JHsIHyMjBd3STl1MS0BBR70zqhs/bycMSmsU5obNx+zUbvC4Jgr0d8yokNaZPQITYRv0hAyat8RzFNGm4vdzlYwLbP77XZPVKXqZ919pXeKJvGI2abz7nm6X/kIx9ZcN8vYP9pWo0qLM8XJRJQzAma2gXixMFpuTCRZ+Q5sGtrS8O2FM1lqWsv4ndU97214UH5uhBQwkXTk6ZpeNM4V5g12QmSVpNEMoTJU5uYJrjKi/dRyjwQ0LZ2lk0SvC5i11zKEN9lmWbd74i5E1BIRWzv6AebZIhy8q68jWqbhmd6GMxQOLR9L3VljXnU4e1xaCPJg+8mKmDigIABZ1P/QX/u5lek45h6+pA2f++mOfbLC468A+wmCUu7W7ephn/bHJsEkybHFtzKQX+MR9/vplP0ySXGkYBCMNvEp/vJu47wEhesGKDRBp5mdunTSC8C6sD6i6g7EmY5BQ2Oa30oHzaKTRIJ0qSGkzS8o4WMDimR/JUEFC2W48xigqaRy7TliWWo6xA9/dhxNo3wPGx08F+OkBkY8Fx0znVaKE+DI1vwOQZ9HFODlU2f5bjY7UAy2yR2xNMQUOKWjUDM1wk1tslNHznhIUk8N4vmokDKnVROegfE80VQjOAjBpGAtg3ASMNMAqp3UJIUNEH+fto6PdJpEm+USwJ6wQUXVGnTQUySqC21Keex4JGATvreue/P5AuWxhLr8APtk6dR2oTF76jue2vCw7PtSkApu5ehTjtCev6szERgc9ZH+MaYdSEP6jNawjaJBBOSX0q8v1wa0LYBHeX1BWulVnmo77LEpO53SUB5D1FjNmlQP0T7QblY9Ma7px2va8tYse1EivItRnynQIhYXf1iltDrePnNswDH7016r2juPWxsx2IdZzat7jnjc2H/z/fNX92g3r/tNgJq0/1VWZq+25hnfPe+vsDvRwI6aTEXCzIdgz59refV99iLgNKxeuGajnUdd99CTRM+vgg+iroK6+n7tBPPQgc7SVgBRtguFWJSWvF+JH9U2iiM2DbddNMKdz54s+9rHMnFuH3OYxnqOkRPK3acTdM7HpYpE68nTKW40Mn5dUbik8RsnarwddNeTfH5+D0fVklPEkwJPHxdPe46BV+nsYx5m+1QzicuGIn3/ZxpZMrD6DYKGkQvJ5rkSWJ2dFV4BjQukYBO2meb7Qw9TwZiUeJiATo2FrFg+tBHvFEuCShaRs93EmkkP7R8Hp6ptyiRgDZNE3v4ODsSp/T8fpfjy1/+8qospTY2fkd131sTHp5vVwJKeBbYgUlJmLhH+8JiTO53GcwQJwqky/GeNIjxeE7giFcO1JabgHYhGL6IgwFdlKG+y5hm03lJQFlkBJ58fwz822TIcrKi3d9/qWSgDLa+obo/iQA2lZlV3p5H3bcYp+nLBYiu6GBwNYk4EtfzgYi5xDpe9w15uK5H/7bbCChaVi9LF24SlT2lBj8S0EkYsBOd54s2FZOCOrOsrs86KdyKIqBxtAWIbQ1q1Kzw0UZXQ3WgYXvpq9+Ykh9SIvkrCSj5QDgh014xOGLbhcsaKkidDWHf8sUy1HWInt6kjtPDcUQ972WOBDSSGe5DOtr+PA2Ok0hvzJ9Veh4XbXcXcXuaaQjoJE2d5zGJgPqUUFmWSI764hen/CMBnTSoiv5ySwIKrpHcOeZm4J7tppmqaXOPRHxvlEsCirbV07OFjwRtFaaH0MQRh/yjxDKyCr5Nonu2uk6PuDTmaAmo2xBC3hflZ4Dh9s1e9uUkoPG5y2l4W6xV4TuJlNfhFTWsXb8xXxENNnTuUZabgLaRAi+nr5AvCehQ36Xn03aMBJQ65/WM4ySSMWQ5mVFxl2h10/C2uDKXDSK4WCEP/57qtOJuTlC2HeTH7JFjw/22P8ilh8Xzisti+hGPW3f0tq6trrlmmfJ02Z47erEoTQQiAa0rT7yGwu6Rj3xkhQP5Q96ZrUCxgFIpmjjEuIs570VA530KHvWyVyCOUY1eghNV3F20Y572pGnTMp8uvyP5qyOgpEFDj1sY71zjc0Kg0ZaVqvcueXuYWIahCChkx8tJo+eCfaRf73vED19XsdXtVT74Z+siDFooU0n6iNtVA7rUBBSftn1x8/BoE1z6EFBbJVrl2bTYkOlvGm7PKx7R4kJQogbWy8HRG+WyE8EXnafDQKyLuB0opjhRIhHrQ0DrFj/wnUZTHy9j03E5CSgLJulEKFs50KBT4TpkahJxiVj6+WK+sWinWJomrAkE1Ot4aRoz1Hfp2LYdIwEt69ykgcDQ5fT3WU7Dsz7Ap99xNzeN7L333rmeltPwUTuJMiYK9bnEputvzJ9cYh3HH/K04m1dGwHd5v9dStG3dyF8TPv7s7FQLkofAko8BvFwJzfd8nT9iAkZawKa3D7FvCed9yKg874IKWpLAKvNhoFt3hzQulXGJXC+aAYnzUNLJH9NBNTzZIERq9MwyPapXH+OLtMvnk55jGVYagLKe/EyM/2H5qXtj2lYpo3462OPF/OpGzmXGPDbXOnkss0zAaVxcPyox23YcS/ih72Uy9AE1NNlxI5WkJG0L9zz8tKBlGSMeN4olwQUDxYeF03qJGFK2WcLyhXsQxFQvDHwrVEuOlhWzaIVNvdU2WE0G0agkYimD+UzT5pJaMLDn7/PFDxxfGAVpxCxbfPpd1YBL0aYVvX30/Ubix3iT8zDSJQ1mYAO9V1GPJrOSwKKQgWH6v4uDj/88KaomVx4uGnaD88gtrNxGp4ZC/LhW5l2li7WMwihC7au5IHpBDOgUajfPmtJmEntZGwrozIntpN4MZlW/NtuI6D+vVLuLtjFMpaeSOL31rfszJBAulGq+EInysQfK/NLzPum34uAknhcgu8F8WOTZqRvoRYbPrq4mWT/GR0fd3EN4Wr+qElDXc1HBik1f1+501lM2SP5m0RAy/SZUoNAu4aDd1G6/ynj1P2OZVhqAhpXgreZSdSVs881cPC6id3WJGHE7DjOMwFlAOLP1abln/S8sdEqNWNl3C4a0DIOvyGEkDEW0HmZWbRSijfKJQFlpyKP16V9ie+8tMUdgoDyzaMtpEwscGubHqOt8LIvNwGlc/Wy+DR8nH5frFkRBNLT7fKN8d5j21tqXddkAjrUd1l+G3W/IwH12SVmF3zKmYFRNLeJaSxFOV1bFqfhffp9qIXJbs8ZB0vmEzPXP9wj1okvkIM8ddEk1qURFzl1mS2tSyNe87aujYBCIv27qpuBielxbn5Pq/BouKNMQ0BjOnyrzKC5kobyNbmhi/HaznsTUBJDE0qlopPmj/N5cL/E1IO/tDZiEzspwjuLp7PEDQGG01HYdsp9SWLXiKB+5rlxz8A1bCTq/IflwBP+RfLXl4B60lQEf3YqY1+JZVhqAkpD4Aur0JAtlTCV4LZDDEh4v20SbVPnmYDidsPfNVq2xcosCKiXjXceNfblIMkb5ZKAMkXrz0pDOkmiZpFpuyhDEFCImpfHO/6YRzyPpHu5CSg27E6cfbDh0+9oitEWLUZ4r+5rtMs3hksrx4+OrJQ1mYAO9V2WmNT9jgQ0ugyKi4JoWxkglLIU5TzkkEPye6UOQFTi9DuEdwjxXePoO2jbmX73mYioeY15QUy9vpULlGK4tnP6DW+f0KiWC+fKuJSN54dXlAMswnpabQQ0+hOl3ZoksT5gChVlKALqabJ+xhU1DCankUUR0GkyXMq4Pk1OhWuzFYwr8+KUFDZmxC1dN7kvMSofFYpVYWhX3NcjoyLiMeJbjETyVxJQph4YAbEQgordJPhm9A8tammbwpfXo01sm8P32MG3EVXSb7IB5V50/Nvm25Gw+FLz6ZNy0QL32ySaWtTt3+5x6YDd3Qc4zjMBpcwssKGcEOySzPkz+RENpOMXG88hCCi4UTepo+TTJk54KHdpz+mNcklASc+1K3x/bWY1aCddI0IepQZoCAIatUdte5MzaKUOUQ7+hiagsV6zSKKL+DdHm8d7c00ke55PI9FNWtvUL3ngJscxqVtQODQBdROD0pNE+bzUO8rVRgo8TpMNKPeH+C49n7ZjJByRgBIn2k0zTVq3ecnQ5cTjSCSDPv0OIa3bqKTt2ZruMRXtedD3OkmDkMZ2LcZn4xGvb5NM7di+09tJ280vJjNyLwOkVbcIMwaOztzr2qsudTKSawaIbYukwcVNnajntD1RuhJQ8qAd52+SFxPfIAYi2sZLYjnqzlcUAWUU5JWtSQPKVKL7YSRsdE4OaS2NnAHtgAMOyOnihgl1/DZmIMz0FcLoiFXNaBfiAo98s+O/NgLqoz7K2kaqY4fUNBpsK46TbPIpjZhjvKEIKB+4j6L4aJpcdFx66aXVTg9gXDoFj2WrO4++PZmWOu3/NdhlWLRCXnc4zjsBddsnygpBa9oQwLY0reyg4spOnn8IAko67miasqCBqRNWsrqNGu8dohGljYBGN1y4Tivjejp8y/4OcQlU+pcdgoCiUfI80K7UaQ7pyJgd8XAchyagcbDd5vPRseEYtbdxwFnnLDvGm3SOltoXm3AsBxceP2rnICZ1PhKHJqBuOsU7KBc8ebk4DkVAh/guY7maztsIKPU+2hA+wZz/l7IU5fQ6zzS85z9pQVRZrkm/3TUdK719h6PYh5fx2U3PB1rUgXKhkoeHwMZdrsrBK2YrcQFwk9IkuoxiMFwnXetktCEHz7I9I23a1bhpRh1H6EpAIa64XgInPBug6awT2gsfCEQFnofFpJF3g0tMn132e+VxRRFQpoMYLQAgpIaXE4UpVh8pEIY/yCXCKI3t4XBcW4prVWik0HaWK3nJZ5KbmTLN+LuNgKJtjRWfFYeQQBYjQcYgwvHDwbUPOPQViLVXKnDhQ0dTjDY44jgUAaV80Z6Yis/CKkasDBIY4eJHMa407jIVUffc0Z4GEkujyEiX7RJZOMJUKaQIO162IuT5552A0hj57h+Ul+ltOiUWwFA/aSAZiTvJpw6VGsqhCGjUvmODBplnlTmzBazApg65U33KWrcbRxsBZZDnPniJj10XGgnS5ZumXrjLKu5DgphmLGUIAkqavsqevCDfuGyiseZbZCEkfjcpg+8qQrihCWj0j0pbx6Ikpt6aBliUG7LsLsAoE390hkMI7ainyTfLN8a3zLQn2jD8KlJOD8N3VydDE9DoTxHFA75kqTf4ro0yFAEd4ruM5Wo6byOgxKF/iCYv5azWUpQz2mv7e0axMaSwEJG0Y19Vfltlfmj0vDzEY3Ek9Y8BCQN0vl8fHBOuyZTu0EMPrdKhLkMQmQWhjjOgg+i7DS7p0BbXSdc6ifLFTdVIj/6JBUG0MwzysPV0H7/ch/tAuEvpSkCJF2epaOccJ2aXsHeHq8Qy0Y9GYfDN4JLy8DdpdmVFEVCAYIWcA0AnxUukouGcFZLDaIEpQ68o/GYkzgpOtJ+4M4gS7T8BlEaMxU6LNdqPaft5GwElDCOKuUdyLQAAB0ZJREFUkjj7C45HRknTOI2Nu0bEdKPGaUgCClGOUxsxz/K8dK7r2HU5QoSiX7UybX7jHBsS7kRm3gkoz43W06cD657Jr/EsdLqlDEVAIYiYfbgWzPONnQTX+M2go27Kpo2AUm46VNd+ePp1R77xuEo2PvNQBJT2xKfR6srANfaKjlr1spOc9B1NwoMOAe1Dmf8k37J0YDHOJKflEb+2cwhN3K415hHPqQN05E0yNAHFPCUSXy9LuSvPUASU55r2u2zCJl6fREAJC8n2vpCBaLkLztDlRInj+YEzsxXUiyEFghXzqLMjrssP4hoVOV4PyiNmdHV2m6TJAC7ublbG9d9wi7bZ0K51kjx5h65U8/TrjhDRJlOsPgSUtS1R8+p5lW05ihy24ywFcwBXehC39Elahl9xBJQHpINwuzEHEMCwP3JbEVTssSJTaep2HHD/n3TijABQ4XtFXoytZfkC+D2JgBIGYswIK+7exLPRuLL6FNuruulA4nYVPjw0OIycI5mIpHZSxxnzarMBjeFIs45csPBrl1126eV6KaYbzyE97PJQfszkAfH2qYI1iYDyfNRnRqlxZaLXeeo0BB8tZJ0MRUA9bdIDP3dM7eVgYMf1JofuxJ9EuAjDO0RbUUe8+L6ZimtqhIk/FAElLTClbpbPygyJ24YvJQGlDLQJPDMzN441HVGb0IZ5WNqxIXz5xfx4xwyEyw6LTomZmkn+V4cmoJQNbTj23XE2pZy2HZKAkuc03yXxJ0kXAkoa0XUimitMSKIMXc5oCtbFa0UsS9fzuOC2jxcQeAHl8/7bvwPqKu8f07UufSj9GqSurOMMSqnjXRY7damTjgd9EwqYaDroZWc2CDO9thnYPgTU80SzCybwHs+LI/ntuuuutXvce1xskInHrBezmW2yFjfTChUz5E3mNzKttdZayabw0iabbDL2pNahJauUyRq9ZFOvyTqxsfv8MBVyso4rGclLpkXK903Dksz+K6277rrJtpVMG220Ub5ujXmyhRL5fCn/2dR7Ov/885ORxGSENJdj6Pxs5JpshJzsI0sbb7zx0MnXpmfq+2RayASOpvHNf2A8pJi2Lr8zG6kla4iSudJJ66+//pBZLEtafMY2UEhGjJJpx5I1Vrk+U/eXQyiHdXbJyFGyjm/wIviz2gKLZAQ3GRFMG2ywweD5TEoQ3I3UJTPgz3XJBrWToizJfTOTSXw/1Om2+mykNdkgDMVDMm1PsmnyJSmPdYj5WwYXGwjlb7lsf5ck4wmJUi4jXckG7mnttdeeEHr62/P2XTY90VDlNM8Tybyw5GxsqjjZYqemLJftOt8K3IBvgXpAW+l9eJ9CmcY30Y/w3Rkxy2n1ie9hu9ZJ+i7KTB+5zjrr5HbPZnyWtB6Tpw3qMxeg3ejKb0xTnYyw+iM2Hlc0AW186h43bNu1ZAtkkmlP8x9RqXRmM5JToZOl0TftWjKbwmQamh6pK6gQEAJCYHYImC1gMm1KztCmCZOZcMwuc+W0ohGA2NmCn0zITBOfzB55RT+vHm56BERAWzBEk4RmBU2pGRQnW1SQQ0M0zXY0M3w0oIit+ko25ZCP+YL+CQEhIATmCAFmemi3bEovmclDsgVceXZojoqooqzBCNii0WT2vfkJzAY62WKfNfhpVPRZICAC2oKy+fBKtstR2nDDDbPamyNidiJ5aoGpHNvVJ5ndU9YqEH65pjxbHkO3hIAQWKUI2CKGZD79krkjyyZEtpgrI2Gr6JOt4F+lqOixh0LAFqLkAQ3maeeee2427bAdi5It0l3SqeGhyq90lhcBEdAW/M3FQDLXQMkMi5MtFBoLaavqMuk0Y9uELQgaUmxJJEJACAiBeUHAFmkkWyxZFQfbMVu0kMzrR3VNJ0JgsQjYIs6EnaAL5PPEE09M2CZKhMAkBERAWxBiIQ6LlPio1ltvvQUhuW8r3rI96NCLZRZkpgtCQAgIgZ4ImC/fZDuA5QULLCKwlfuVKVHPpBRcCCxAwNx+Za0ni3DoJ8291aIW9CxIWBdWBQIioKviNeshhYAQEAJCQAgIASEwPwiIgM7Pu1BJhIAQEAJCQAgIASGwKhAQAV0Vr1kPKQSEgBAQAkJACAiB+UFABHR+3oVKIgSEgBAQAkJACAiBVYGACOiqeM16SCEgBISAEBACQkAIzA8CIqDz8y5UEiEgBISAEBACQkAIrAoEREBXxWvWQwoBISAEhIAQEAJCYH4QEAGdn3ehkggBISAEhIAQEAJCYFUgIAK6Kl6zHlIICAEhIASEgBAQAvODgAjo/LwLlUQICAEhIASEgBAQAqsCARHQVfGa9ZBCQAgIASEgBISAEJgfBERA5+ddqCRCQAgIASEgBISAEFgVCIiArorXrIcUAkJACAgBISAEhMD8ICACOj/vQiURAkJACAgBISAEhMCqQEAEdFW8Zj2kEBACQkAICAEhIATmBwER0Pl5FyqJEBACQkAICAEhIARWBQL/C9KQfAzwBsCGAAAAAElFTkSuQmCC;" vertex="1" parent="1">
                    <mxGeometry x="341.28" y="-247" width="185.14" height="81" as="geometry"/>
                </mxCell>
                <mxCell id="996" value="..." style="text;html=1;strokeColor=none;fillColor=none;align=center;verticalAlign=middle;whiteSpace=wrap;rounded=0;fontStyle=1;fontColor=#18141d;" vertex="1" parent="1">
                    <mxGeometry x="338.65" y="5" width="60" height="30" as="geometry"/>
                </mxCell>
            </root>
        </mxGraphModel>
    </diagram>
</mxfile>